<mxfile host="65bd71144e" modified="2020-11-03T14:08:16.132Z" agent="5.0 (Macintosh; Intel Mac OS X 10_15_7) AppleWebKit/537.36 (KHTML, like Gecko) Code/1.50.1 Chrome/83.0.4103.122 Electron/9.2.1 Safari/537.36" etag="IHmcezbWXmhJxmNC4IX1" version="13.6.5">
    <diagram id="6hGFLwfOUW9BJ-s0fimq" name="Page-1">
        <mxGraphModel dx="858" dy="738" grid="1" gridSize="10" guides="1" tooltips="1" connect="1" arrows="1" fold="1" page="1" pageScale="1" pageWidth="1654" pageHeight="2336" background="#ffffff" math="0" shadow="0">
            <root>
                <mxCell id="0"/>
                <mxCell id="1" parent="0"/>
                <mxCell id="93" value="&lt;b&gt;Resource Group: S013-mss-infra-reference-baseline-dev&lt;br&gt;(S013-MSS-Classic1)&lt;/b&gt;" style="rounded=0;whiteSpace=wrap;html=1;fillColor=#ffffff;verticalAlign=top;" parent="1" vertex="1">
                    <mxGeometry x="260" y="415" width="290" height="375" as="geometry"/>
                </mxCell>
                <mxCell id="21" value="&lt;b&gt;Subscription shared resources&lt;br&gt;(S013-MSS-Classic1)&lt;/b&gt;" style="rounded=0;whiteSpace=wrap;html=1;fillColor=#ffffff;verticalAlign=top;" parent="1" vertex="1">
                    <mxGeometry x="260" y="120" width="290" height="260" as="geometry"/>
                </mxCell>
                <mxCell id="94" style="edgeStyle=orthogonalEdgeStyle;rounded=0;orthogonalLoop=1;jettySize=auto;html=1;entryX=1;entryY=0.5;entryDx=0;entryDy=0;" parent="1" source="2" target="93" edge="1">
                    <mxGeometry relative="1" as="geometry"/>
                </mxCell>
                <mxCell id="2" value="&lt;b&gt;Resource Group: S013-mss-infra-reference-dev&lt;/b&gt;" style="rounded=0;whiteSpace=wrap;html=1;dashed=1;verticalAlign=top;" parent="1" vertex="1">
                    <mxGeometry x="660" y="130" width="600" height="660" as="geometry"/>
                </mxCell>
                <mxCell id="4" value="&lt;b&gt;CentOS servers&lt;/b&gt;" style="rounded=0;whiteSpace=wrap;html=1;fillColor=#f5f5f5;strokeColor=#666666;fontColor=#333333;verticalAlign=top;" parent="1" vertex="1">
                    <mxGeometry x="700" y="160" width="490" height="330" as="geometry"/>
                </mxCell>
                <mxCell id="6" value="&lt;b&gt;Windows server&lt;/b&gt;" style="rounded=0;whiteSpace=wrap;html=1;fillColor=#f5f5f5;strokeColor=#666666;fontColor=#333333;verticalAlign=top;" parent="1" vertex="1">
                    <mxGeometry x="710" y="530" width="300" height="220" as="geometry"/>
                </mxCell>
                <mxCell id="27" style="edgeStyle=orthogonalEdgeStyle;rounded=0;orthogonalLoop=1;jettySize=auto;html=1;entryX=1;entryY=0.5;entryDx=0;entryDy=0;" parent="1" source="9" target="23" edge="1">
                    <mxGeometry relative="1" as="geometry"/>
                </mxCell>
                <mxCell id="28" value="DNS record" style="edgeLabel;html=1;align=center;verticalAlign=middle;resizable=0;points=[];" parent="27" vertex="1" connectable="0">
                    <mxGeometry x="0.3305" y="1" relative="1" as="geometry">
                        <mxPoint x="-14" y="13.2" as="offset"/>
                    </mxGeometry>
                </mxCell>
                <mxCell id="9" value="Internal Load &#10;Balancer" style="shape=image;verticalLabelPosition=bottom;labelBackgroundColor=#ffffff;verticalAlign=top;aspect=fixed;imageAspect=0;image=data:image/svg+xml,PHN2ZyB4bWxucz0iaHR0cDovL3d3dy53My5vcmcvMjAwMC9zdmciIGlkPSJlMWU3MWUyOS0wNjVhLTQ2ZjctYWQ0Yi01MmFmMzZhMGJmY2IiIHdpZHRoPSIxOCIgaGVpZ2h0PSIxOCIgdmlld0JveD0iMCAwIDE4IDE4Ij4mI3hhOyAgPGRlZnM+JiN4YTsgICAgPGxpbmVhckdyYWRpZW50IGlkPSJlZjg0NjYzYS1hN2I2LTQ2YTctYTI3NS0xZTQxOWY1ZWFlNjIiIHgxPSI5IiB5MT0iMTkuODUiIHgyPSI5IiB5Mj0iLTEuMDIiIGdyYWRpZW50VW5pdHM9InVzZXJTcGFjZU9uVXNlIj4mI3hhOyAgICAgIDxzdG9wIG9mZnNldD0iMCIgc3RvcC1jb2xvcj0iIzVlOTYyNCIvPiYjeGE7ICAgICAgPHN0b3Agb2Zmc2V0PSIwLjAyIiBzdG9wLWNvbG9yPSIjNWY5NzI0Ii8+JiN4YTsgICAgICA8c3RvcCBvZmZzZXQ9IjEiIHN0b3AtY29sb3I9IiM3NmJjMmQiLz4mI3hhOyAgICA8L2xpbmVhckdyYWRpZW50PiYjeGE7ICA8L2RlZnM+JiN4YTsgIDx0aXRsZT5JY29uLW5ldHdvcmtpbmctNjI8L3RpdGxlPiYjeGE7ICA8cGF0aCBkPSJNLjE4LDguNTcsOC41Ny4xOGEuNi42LDAsMCwxLC44NiwwbDguMzksOC4zOWEuNi42LDAsMCwxLDAsLjg2bC04LjQsOC40YS42LjYsMCwwLDEtLjg0LDBMLjE4LDkuNDNBLjYuNiwwLDAsMSwuMTgsOC41N1oiIGZpbGw9InVybCgjZWY4NDY2M2EtYTdiNi00NmE3LWEyNzUtMWU0MTlmNWVhZTYyKSIvPiYjeGE7ICA8cGF0aCBkPSJNMTEuMiw0LDkuMDgsMS44OWEuMTIuMTIsMCwwLDAtLjE2LDBMNi44LDRhLjEuMSwwLDAsMCwuMDguMThIOC4xMmEuMTEuMTEsMCwwLDEsLjExLjExdjJhLjExLjExLDAsMCwwLC4xMS4xMUg5LjY2YS4xMS4xMSwwLDAsMCwuMTEtLjExdi0yYS4xMS4xMSwwLDAsMSwuMTEtLjExaDEuMjRBLjEuMSwwLDAsMCwxMS4yLDRaIiBmaWxsPSIjYjRlYzM2Ii8+JiN4YTsgIDxwYXRoIGQ9Ik00LDYuNjEsMS45LDguNzRhLjExLjExLDAsMCwwLDAsLjE1TDQsMTFhLjExLjExLDAsMCwwLC4xOS0uMDhWOS42OWEuMTEuMTEsMCwwLDEsLjExLS4xMWgyYS4xLjEsMCwwLDAsLjEtLjExVjguMTVBLjEuMSwwLDAsMCw2LjMzLDhoLTJhLjEuMSwwLDAsMS0uMTEtLjFWNi42OUEuMTEuMTEsMCwwLDAsNCw2LjYxWiIgZmlsbD0iI2I0ZWMzNiIvPiYjeGE7ICA8cGF0aCBkPSJNMTQuMDgsMTFsMi4xMy0yLjEyYS4xMS4xMSwwLDAsMCwwLS4xNUwxNC4wOCw2LjYxYS4xMS4xMSwwLDAsMC0uMTguMDhWNy45NGEuMS4xLDAsMCwxLS4xMS4xaC0yYS4xLjEsMCwwLDAtLjEuMTFWOS40N2EuMS4xLDAsMCwwLC4xLjExaDJhLjExLjExLDAsMCwxLC4xMS4xMXYxLjI0QS4xMS4xMSwwLDAsMCwxNC4wOCwxMVoiIGZpbGw9IiNiNGVjMzYiLz4mI3hhOyAgPHBhdGggZD0iTTExLjc5LDlhMi43OSwyLjc5LDAsMSwwLTMuNTQsMi42N3YuOTVhMS43MSwxLjcxLDAsMSwwLDEuNTcsMHYtMUEyLjc3LDIuNzcsMCwwLDAsMTEuNzksOVoiIGZpbGw9IiNmZmYiLz4mI3hhOyAgPGNpcmNsZSBpZD0iZTk5YzMzODctMTVjMy00ZjI4LWJkNGItY2IyMDliNDMwZTA2IiBjeD0iOS4wMSIgY3k9IjguOTkiIHI9IjEuNjIiIGZpbGw9IiM1ZWEwZWYiLz4mI3hhOzxtZXRhZGF0YT4mI3hhOyAgIDxyZGY6UkRGIHhtbG5zOnJkZj0iaHR0cDovL3d3dy53My5vcmcvMTk5OS8wMi8yMi1yZGYtc3ludGF4LW5zIyI+JiN4YTsgICAgICA8cmRmOmxpPnB1YmxpYzp0cnVlPC9yZGY6bGk+JiN4YTsgICAgICA8cmRmOmxpPnNkazpNc1BvcnRhbEZ4LkJhc2UuSW1hZ2VzLlBvbHljaHJvbWF0aWMuTG9hZEJhbGFuY2VyKCk8L3JkZjpsaT4mI3hhOyAgICAgIDxyZGY6bGk+Y2F0ZWdvcnk6IE5ldHdvcmtpbmc8L3JkZjpsaT4mI3hhOyAgIDwvcmRmOlJERj4mI3hhOzwvbWV0YWRhdGE+JiN4YTs8L3N2Zz4=;" parent="1" vertex="1">
                    <mxGeometry x="850" y="200" width="48" height="48" as="geometry"/>
                </mxCell>
                <mxCell id="10" value="Network&#10;Security Group" style="shape=image;verticalLabelPosition=bottom;labelBackgroundColor=#ffffff;verticalAlign=top;aspect=fixed;imageAspect=0;image=data:image/svg+xml,PHN2ZyB4bWxucz0iaHR0cDovL3d3dy53My5vcmcvMjAwMC9zdmciIGlkPSJiNzU5NDNiYS0xYTNmLTQ4NWQtYjQ1ZC0zZmVlMDBlZDdlNWUiIHdpZHRoPSIxOCIgaGVpZ2h0PSIxOCIgdmlld0JveD0iMCAwIDE4IDE4Ij48ZGVmcz48bGluZWFyR3JhZGllbnQgaWQ9ImZlNWNlNDNmLTI4MjMtNDYxNy1iYjU0LTU3ZGY5ZTc3ODM3MiIgeDE9IjkuMDEiIHkxPSIwLjc1IiB4Mj0iOS4wMSIgeTI9IjE3LjI1IiBncmFkaWVudFVuaXRzPSJ1c2VyU3BhY2VPblVzZSI+PHN0b3Agb2Zmc2V0PSIwIiBzdG9wLWNvbG9yPSIjNWVhMGVmIi8+PHN0b3Agb2Zmc2V0PSIwLjE4IiBzdG9wLWNvbG9yPSIjNTU5Y2VjIi8+PHN0b3Agb2Zmc2V0PSIwLjQ3IiBzdG9wLWNvbG9yPSIjM2M5MWU1Ii8+PHN0b3Agb2Zmc2V0PSIwLjg0IiBzdG9wLWNvbG9yPSIjMTM4MGRhIi8+PHN0b3Agb2Zmc2V0PSIxIiBzdG9wLWNvbG9yPSIjMDA3OGQ0Ii8+PC9saW5lYXJHcmFkaWVudD48L2RlZnM+PHRpdGxlPkljb24tbmV0d29ya2luZy02NzwvdGl0bGU+PHBhdGggZD0iTTE2LjM2LDguNGMwLDQuODQtNS44NSw4Ljc0LTcuMTIsOS41M2EuNDYuNDYsMCwwLDEtLjQ4LDBjLTEuMjctLjc5LTcuMTItNC42OS03LjEyLTkuNTNWMi41OGEuNDYuNDYsMCwwLDEsLjQ1LS40NkM2LjY0LDIsNS41OSwwLDksMHMyLjM2LDIsNi45MSwyLjEyYS40Ni40NiwwLDAsMSwuNDUuNDZaIiBmaWxsPSIjMDA3OGQ0Ii8+PHBhdGggZD0iTTE1Ljc1LDguNDVjMCw0LjQ0LTUuMzYsOC02LjUzLDguNzRhLjQzLjQzLDAsMCwxLS40NCwwYy0xLjE3LS43Mi02LjUzLTQuMy02LjUzLTguNzRWMy4xMWEuNDIuNDIsMCwwLDEsLjQxLS40MkM2LjgzLDIuNTgsNS44Ny43NSw5LC43NXMyLjE3LDEuODMsNi4zNCwxLjk0YS40Mi40MiwwLDAsMSwuNDEuNDJaIiBmaWxsPSIjNmJiOWYyIi8+PHBhdGggZD0iTTksOVYuNzVjMy4xMywwLDIuMTcsMS44Myw2LjM0LDEuOTRhLjQzLjQzLDAsMCwxLC40MS40M1Y4LjQ2YTQuODksNC44OSwwLDAsMSwwLC41NFpNOSw5SDIuMjhjLjQsNC4xOCw1LjM4LDcuNSw2LjUsOC4xOWEuMzkuMzksMCwwLDAsLjE4LjA2SDlaIiBmaWxsPSJ1cmwoI2ZlNWNlNDNmLTI4MjMtNDYxNy1iYjU0LTU3ZGY5ZTc3ODM3MikiLz48cGF0aCBkPSJNMi42NiwyLjY5QzYuODMsMi41OCw1Ljg3Ljc1LDksLjc1VjlIMi4yOGE0Ljg5LDQuODksMCwwLDEsMC0uNTRWMy4xMkEuNDMuNDMsMCwwLDEsMi42NiwyLjY5WiIgZmlsbD0iIzUwZTZmZiIvPjxwYXRoIGQ9Ik0xNS43Miw5SDl2OC4yNUg5YS4zOS4zOSwwLDAsMCwuMTgtLjA2QzEwLjM0LDE2LjUsMTUuMzIsMTMuMTgsMTUuNzIsOVoiIGZpbGw9IiM1MGU2ZmYiLz4mI3hhOzxtZXRhZGF0YT4mI3hhOyAgIDxyZGY6UkRGIHhtbG5zOnJkZj0iaHR0cDovL3d3dy53My5vcmcvMTk5OS8wMi8yMi1yZGYtc3ludGF4LW5zIyI+JiN4YTsgICAgICA8cmRmOmxpPnB1YmxpYzp0cnVlPC9yZGY6bGk+JiN4YTsgICAgICA8cmRmOmxpPnNkazpmYWxzZTwvcmRmOmxpPiYjeGE7ICAgICAgPHJkZjpsaT5jYXRlZ29yeTogTmV0d29ya2luZzwvcmRmOmxpPiYjeGE7ICAgPC9yZGY6UkRGPiYjeGE7PC9tZXRhZGF0YT4mI3hhOzwvc3ZnPg==;" parent="1" vertex="1">
                    <mxGeometry x="854" y="300" width="40" height="40" as="geometry"/>
                </mxCell>
                <mxCell id="16" style="edgeStyle=orthogonalEdgeStyle;rounded=0;orthogonalLoop=1;jettySize=auto;html=1;exitX=0;exitY=0.5;exitDx=0;exitDy=0;entryX=1;entryY=0.5;entryDx=0;entryDy=0;" parent="1" source="8" target="9" edge="1">
                    <mxGeometry relative="1" as="geometry">
                        <Array as="points">
                            <mxPoint x="970" y="245"/>
                            <mxPoint x="970" y="224"/>
                        </Array>
                    </mxGeometry>
                </mxCell>
                <mxCell id="17" style="edgeStyle=orthogonalEdgeStyle;rounded=0;orthogonalLoop=1;jettySize=auto;html=1;exitX=0;exitY=0.5;exitDx=0;exitDy=0;entryX=1;entryY=0.5;entryDx=0;entryDy=0;" parent="1" source="8" target="10" edge="1">
                    <mxGeometry relative="1" as="geometry">
                        <Array as="points">
                            <mxPoint x="970" y="245"/>
                            <mxPoint x="970" y="320"/>
                        </Array>
                    </mxGeometry>
                </mxCell>
                <mxCell id="14" value="2x" style="rounded=0;whiteSpace=wrap;html=1;fillColor=none;verticalAlign=top;" parent="1" vertex="1">
                    <mxGeometry x="1000" y="190" width="150" height="210" as="geometry"/>
                </mxCell>
                <mxCell id="8" value="Network interfaceÂ &#10;card" style="shape=image;verticalLabelPosition=bottom;labelBackgroundColor=#ffffff;verticalAlign=top;aspect=fixed;imageAspect=0;image=data:image/svg+xml,PHN2ZyB4bWxucz0iaHR0cDovL3d3dy53My5vcmcvMjAwMC9zdmciIGlkPSJlMDA1MDcyMS1lOGQ4LTRjNzktYWU1MC1kOGZjMjg3MWQ5MzIiIHdpZHRoPSIxOCIgaGVpZ2h0PSIxOCIgdmlld0JveD0iMCAwIDE4IDE4Ij48ZGVmcz48bGluZWFyR3JhZGllbnQgaWQ9ImZjYWQzMjg3LWI3MWMtNDRmYS05NzFhLTZhMThiY2YzODRhMCIgeDE9IjkuMDEiIHkxPSIxNi41IiB4Mj0iOS4wMSIgeTI9IjEuNSIgZ3JhZGllbnRVbml0cz0idXNlclNwYWNlT25Vc2UiPjxzdG9wIG9mZnNldD0iMCIgc3RvcC1jb2xvcj0iIzVlOTY0MSIvPjxzdG9wIG9mZnNldD0iMC4zNCIgc3RvcC1jb2xvcj0iIzZiYWE0MiIvPjxzdG9wIG9mZnNldD0iMC42NyIgc3RvcC1jb2xvcj0iIzczYjc0MyIvPjxzdG9wIG9mZnNldD0iMSIgc3RvcC1jb2xvcj0iIzc2YmI0MyIvPjwvbGluZWFyR3JhZGllbnQ+PC9kZWZzPjx0aXRsZT5JY29uLW5ldHdvcmtpbmctODA8L3RpdGxlPjxwYXRoIGQ9Ik0xNS44OSwyLjkxaDEuMjdhLjM0LjM0LDAsMCwxLC4zNC4zNHYzLjVhLjM0LjM0LDAsMCwxLS4zNC4zNEgxNS44OWEwLDAsMCwwLDEsMCwwVjIuOTFBMCwwLDAsMCwxLDE1Ljg5LDIuOTFaIiBmaWxsPSIjZmZjYTAwIi8+PHBhdGggZD0iTTE1Ljg5LDloMS4yN2EuMzQuMzQsMCwwLDEsLjM0LjM0djUuODZhLjM0LjM0LDAsMCwxLS4zNC4zNEgxNS44OWEwLDAsMCwwLDEsMCwwVjlBMCwwLDAsMCwxLDE1Ljg5LDlaIiBmaWxsPSIjZmZjYTAwIi8+PHJlY3QgeD0iMi4xMyIgeT0iMS41IiB3aWR0aD0iMTMuNzYiIGhlaWdodD0iMTUiIHJ4PSIwLjY5IiBmaWxsPSJ1cmwoI2ZjYWQzMjg3LWI3MWMtNDRmYS05NzFhLTZhMThiY2YzODRhMCkiLz48cGF0aCBkPSJNNS45LDEyLjlINS4xOUEuMi4yLDAsMCwxLDUsMTIuNjlWNC4zNGEuMTkuMTksMCwwLDEsLjE5LS4ySDcuMTJhLjE5LjE5LDAsMCwxLC4xOS4yLjIuMiwwLDAsMS0uMTkuMjFINS4zOHY3LjkzSDUuOWEuMi4yLDAsMCwxLC4xOS4yMUEuMjEuMjEsMCwwLDEsNS45LDEyLjlaIiBmaWxsPSIjYjRlYzM2Ii8+PHBhdGggZD0iTTYsMTMuOTJINC40YS4yLjIsMCwwLDEtLjE5LS4yMUw0LjA4LDMuMzhhLjIuMiwwLDAsMSwuMDYtLjE1LjE2LjE2LDAsMCwxLC4xMy0uMDZINy4xMnYuNDFINC40N2wuMTIsOS45Mkg2WiIgZmlsbD0iI2I0ZWMzNiIvPjxwYXRoIGQ9Ik0xMiwxM0gxMC40MWEuMTkuMTksMCwwLDEtLjE0LS4wNy4xOC4xOCwwLDAsMS0uMDYtLjE0VjcuOWEuMTkuMTksMCwwLDEsLjE5LS4ybC45MSwwLDAtMi4yNWguMzhsMCwyLjQ0YS4yLjIsMCwwLDEtLjE4LjIxbC0uOTEsMHY0LjQySDEyWiIgZmlsbD0iI2I0ZWMzNiIvPjxyZWN0IHg9IjcuMDciIHk9IjIuMjkiIHdpZHRoPSI2LjE0IiBoZWlnaHQ9IjMuMTEiIHJ4PSIwLjI2IiBmaWxsPSIjMzY1NjE1Ii8+PHJlY3QgeD0iNS44NiIgeT0iMTIuNjkiIHdpZHRoPSI0LjkiIGhlaWdodD0iMS4wOSIgcng9IjAuMjYiIHRyYW5zZm9ybT0idHJhbnNsYXRlKDIxLjU0IDQuOTMpIHJvdGF0ZSg5MCkiIGZpbGw9IiMzNjU2MTUiLz48cmVjdCB4PSIzLjk5IiB5PSIxMi43MSIgd2lkdGg9IjQuOSIgaGVpZ2h0PSIxLjA5IiByeD0iMC4yNiIgdHJhbnNmb3JtPSJ0cmFuc2xhdGUoMTkuNyA2LjgyKSByb3RhdGUoOTApIiBmaWxsPSIjMzY1NjE1Ii8+PHJlY3QgeD0iOS45OCIgeT0iMTIuNzEiIHdpZHRoPSI0LjkiIGhlaWdodD0iMS4wOSIgcng9IjAuMjYiIHRyYW5zZm9ybT0idHJhbnNsYXRlKDI1LjY4IDAuODMpIHJvdGF0ZSg5MCkiIGZpbGw9IiNmMmYyZjIiLz48ZWxsaXBzZSBjeD0iOC4xMSIgY3k9IjguMDYiIHJ4PSIxLjA0IiByeT0iMS4xMiIgZmlsbD0iI2YyZjJmMiIvPjxwYXRoIGQ9Ik0uNSw1LjdIMS43N0EuMzQuMzQsMCwwLDEsMi4xMSw2djUuODZhLjM0LjM0LDAsMCwxLS4zNC4zNEguNWEwLDAsMCwwLDEsMCwwVjUuN0EwLDAsMCwwLDEsLjUsNS43WiIgdHJhbnNmb3JtPSJ0cmFuc2xhdGUoMi42MSAxNy45NSkgcm90YXRlKDE4MCkiIGZpbGw9IiMzYjNiM2IiLz4mI3hhOzxtZXRhZGF0YT4mI3hhOyAgIDxyZGY6UkRGIHhtbG5zOnJkZj0iaHR0cDovL3d3dy53My5vcmcvMTk5OS8wMi8yMi1yZGYtc3ludGF4LW5zIyI+JiN4YTsgICAgICA8cmRmOmxpPnB1YmxpYzp0cnVlPC9yZGY6bGk+JiN4YTsgICAgICA8cmRmOmxpPnNkazpNc1BvcnRhbEZ4LkJhc2UuSW1hZ2VzLlBvbHljaHJvbWF0aWMuTmV0d29ya0ludGVyZmFjZUNhcmQoKTwvcmRmOmxpPiYjeGE7ICAgICAgPHJkZjpsaT5jYXRlZ29yeTogTmV0d29ya2luZzwvcmRmOmxpPiYjeGE7ICAgPC9yZGY6UkRGPiYjeGE7PC9tZXRhZGF0YT4mI3hhOzwvc3ZnPg==;" parent="1" vertex="1">
                    <mxGeometry x="1050" y="220" width="49.583333333333336" height="49.583333333333336" as="geometry"/>
                </mxCell>
                <mxCell id="20" style="edgeStyle=orthogonalEdgeStyle;rounded=0;orthogonalLoop=1;jettySize=auto;html=1;exitX=0.5;exitY=0;exitDx=0;exitDy=0;" parent="1" source="12" target="8" edge="1">
                    <mxGeometry relative="1" as="geometry"/>
                </mxCell>
                <mxCell id="38" style="edgeStyle=orthogonalEdgeStyle;rounded=0;orthogonalLoop=1;jettySize=auto;html=1;exitX=0;exitY=0.5;exitDx=0;exitDy=0;entryX=1;entryY=0.5;entryDx=0;entryDy=0;" parent="1" source="12" target="37" edge="1">
                    <mxGeometry relative="1" as="geometry"/>
                </mxCell>
                <mxCell id="12" value="VM" style="shape=image;verticalLabelPosition=bottom;labelBackgroundColor=#ffffff;verticalAlign=top;aspect=fixed;imageAspect=0;image=data:image/svg+xml,PHN2ZyB4bWxucz0iaHR0cDovL3d3dy53My5vcmcvMjAwMC9zdmciIGlkPSJmZDQ1NGYxYy01NTA2LTQ0YjgtODc0ZS04ODE0YjhiMmY3MGIiIHdpZHRoPSIxOCIgaGVpZ2h0PSIxOCIgdmlld0JveD0iMCAwIDE4IDE4Ij48ZGVmcz48bGluZWFyR3JhZGllbnQgaWQ9ImYzNGQ5NTY5LTJiZDAtNDAwMi04ZjE2LTNkMDFkODEwNmNiNSIgeDE9IjguODgiIHkxPSIxMi4yMSIgeDI9IjguODgiIHkyPSIwLjIxIiBncmFkaWVudFVuaXRzPSJ1c2VyU3BhY2VPblVzZSI+PHN0b3Agb2Zmc2V0PSIwIiBzdG9wLWNvbG9yPSIjMDA3OGQ0Ii8+PHN0b3Agb2Zmc2V0PSIwLjgyIiBzdG9wLWNvbG9yPSIjNWVhMGVmIi8+PC9saW5lYXJHcmFkaWVudD48bGluZWFyR3JhZGllbnQgaWQ9ImJkYjQ1YTBiLWViNTgtNDk3MC1hNjBhLWZiMmNlMzE0Zjg2NiIgeDE9IjguODgiIHkxPSIxNi44NCIgeDI9IjguODgiIHkyPSIxMi4yMSIgZ3JhZGllbnRVbml0cz0idXNlclNwYWNlT25Vc2UiPjxzdG9wIG9mZnNldD0iMC4xNSIgc3RvcC1jb2xvcj0iI2NjYyIvPjxzdG9wIG9mZnNldD0iMSIgc3RvcC1jb2xvcj0iIzcwNzA3MCIvPjwvbGluZWFyR3JhZGllbnQ+PC9kZWZzPjx0aXRsZT5JY29uLWNvbXB1dGUtMjE8L3RpdGxlPjxyZWN0IHg9Ii0wLjEyIiB5PSIwLjIxIiB3aWR0aD0iMTgiIGhlaWdodD0iMTIiIHJ4PSIwLjYiIGZpbGw9InVybCgjZjM0ZDk1NjktMmJkMC00MDAyLThmMTYtM2QwMWQ4MTA2Y2I1KSIvPjxwb2x5Z29uIHBvaW50cz0iMTEuODggNC40NiAxMS44OCA3Ljk1IDguODggOS43MSA4Ljg4IDYuMjEgMTEuODggNC40NiIgZmlsbD0iIzUwZTZmZiIvPjxwb2x5Z29uIHBvaW50cz0iMTEuODggNC40NiA4Ljg4IDYuMjIgNS44OCA0LjQ2IDguODggMi43MSAxMS44OCA0LjQ2IiBmaWxsPSIjYzNmMWZmIi8+PHBvbHlnb24gcG9pbnRzPSI4Ljg4IDYuMjIgOC44OCA5LjcxIDUuODggNy45NSA1Ljg4IDQuNDYgOC44OCA2LjIyIiBmaWxsPSIjOWNlYmZmIi8+PHBvbHlnb24gcG9pbnRzPSI1Ljg4IDcuOTUgOC44OCA2LjIxIDguODggOS43MSA1Ljg4IDcuOTUiIGZpbGw9IiNjM2YxZmYiLz48cG9seWdvbiBwb2ludHM9IjExLjg4IDcuOTUgOC44OCA2LjIxIDguODggOS43MSAxMS44OCA3Ljk1IiBmaWxsPSIjOWNlYmZmIi8+PHBhdGggZD0iTTEyLjQ5LDE1Ljg0Yy0xLjc4LS4yOC0xLjg1LTEuNTYtMS44NS0zLjYzSDcuMTFjMCwyLjA3LS4wNiwzLjM1LTEuODQsMy42M2ExLDEsMCwwLDAtLjg5LDFoOUExLDEsMCwwLDAsMTIuNDksMTUuODRaIiBmaWxsPSJ1cmwoI2JkYjQ1YTBiLWViNTgtNDk3MC1hNjBhLWZiMmNlMzE0Zjg2NikiLz4mI3hhOzxtZXRhZGF0YT4mI3hhOyAgIDxyZGY6UkRGIHhtbG5zOnJkZj0iaHR0cDovL3d3dy53My5vcmcvMTk5OS8wMi8yMi1yZGYtc3ludGF4LW5zIyI+JiN4YTsgICAgICA8cmRmOmxpPnB1YmxpYzp0cnVlPC9yZGY6bGk+JiN4YTsgICAgICA8cmRmOmxpPnNkazpNc1BvcnRhbEZ4LkJhc2UuSW1hZ2VzLlBvbHljaHJvbWF0aWMuVmlydHVhbE1hY2hpbmUoKTwvcmRmOmxpPiYjeGE7ICAgICAgPHJkZjpsaT5jYXRlZ29yeTogQ29tcHV0ZTwvcmRmOmxpPiYjeGE7ICAgPC9yZGY6UkRGPiYjeGE7PC9tZXRhZGF0YT4mI3hhOzwvc3ZnPg==;" parent="1" vertex="1">
                    <mxGeometry x="1050" y="320" width="49.583333333333336" height="49.583333333333336" as="geometry"/>
                </mxCell>
                <mxCell id="23" value="Private DNS Zone&#10;(S013)" style="shape=image;verticalLabelPosition=bottom;labelBackgroundColor=#ffffff;verticalAlign=top;aspect=fixed;imageAspect=0;image=data:image/svg+xml,PHN2ZyB4bWxucz0iaHR0cDovL3d3dy53My5vcmcvMjAwMC9zdmciIGlkPSJhNTQyY2YzOS0yYmE2LTQyMDYtODI3OC02YTRmMWMyNDUyZjUiIHdpZHRoPSIxOCIgaGVpZ2h0PSIxOCIgdmlld0JveD0iMCAwIDE4IDE4Ij48ZGVmcz48cmFkaWFsR3JhZGllbnQgaWQ9ImU3NTc5ZjRkLTM2YTMtNDY5My1hNzI2LTdhNjA1MGFjNTY3MSIgY3g9Ii02ODExLjQiIGN5PSI2NzI5LjY5IiByPSIxNyIgZ3JhZGllbnRUcmFuc2Zvcm09Im1hdHJpeCgwLjUsIDAsIDAsIC0wLjUsIDM0MTQuOTEsIDMzNzQuMDUpIiBncmFkaWVudFVuaXRzPSJ1c2VyU3BhY2VPblVzZSI+PHN0b3Agb2Zmc2V0PSIwLjE4IiBzdG9wLWNvbG9yPSIjNWVhMGVmIi8+PHN0b3Agb2Zmc2V0PSIxIiBzdG9wLWNvbG9yPSIjMDA3OGQ0Ii8+PC9yYWRpYWxHcmFkaWVudD48L2RlZnM+PHRpdGxlPkljb24tbmV0d29ya2luZy02NDwvdGl0bGU+PHBhdGggaWQ9ImY1N2UxMDVkLTZkMmQtNGFkNy1iOGMzLWMxMDY4NGM5ZjliOCIgZD0iTTE0LjIxLDE1LjcyQTguNSw4LjUsMCwwLDEsMy43OSwyLjI4bC4wOS0uMDZhOC41LDguNSwwLDAsMSwxMC4zMywxMy41IiBmaWxsPSJ1cmwoI2U3NTc5ZjRkLTM2YTMtNDY5My1hNzI2LTdhNjA1MGFjNTY3MSkiLz48cGF0aCBkPSJNOSwxLjMxQTcuNjksNy42OSwwLDEsMCwxNi42OSw5LDcuNyw3LjcsMCwwLDAsOSwxLjMxWk0xNC4xNSwzLjlBNy4zNyw3LjM3LDAsMCwxLDEyLDQuNyw4LjgzLDguODMsMCwwLDAsMTAuNzUsMiw3LjIsNy4yLDAsMCwxLDE0LjE1LDMuOVpNOSwxLjc0YTYuNTksNi41OSwwLDAsMSwxLjA5LjA5aDBhNy40OCw3LjQ4LDAsMCwxLDEuNTMsMywxNS4xMiwxNS4xMiwwLDAsMS01LjQ1LDBBNy4zOCw3LjM4LDAsMCwxLDcuNjgsMS44OWwwLDBBNy4zNCw3LjM0LDAsMCwxLDksMS43NFpNNywyQTguNzIsOC43MiwwLDAsMCw1LjczLDQuNjhhNS41OCw1LjU4LDAsMCwxLTEuOS0uNzdBNy4zNSw3LjM1LDAsMCwxLDcsMlpNMy43MiwxNGE1LjI3LDUuMjcsMCwwLDEsMS43OC0uNzYsNy4wOCw3LjA4LDAsMCwwLDEuMzUsMi43MkE3LjI1LDcuMjUsMCwwLDEsMy43MiwxNFptNi40MSwyLjJBNy4wOCw3LjA4LDAsMCwxLDksMTYuMjZhNi44Myw2LjgzLDAsMCwxLTEuNDQtLjE1bDAsMGE2LDYsMCwwLDEtMS42Ny0zLDE0LjczLDE0LjczLDAsMCwxLDUuODgsMCw2LDYsMCwwLDEtMS42OSwzWm0uNzMtLjE2YTcuMTMsNy4xMywwLDAsMCwxLjM4LTIuOCw2LjY4LDYuNjgsMCwwLDEsMiwuODNBNy4xMyw3LjEzLDAsMCwxLDEwLjg2LDE2Wm0xLjQ4LTMuMjJjLjA4LS4zNi4xNS0uNzMuMi0xLjEybC0uNDYuMTFjLS4wNS4zMS0uMS42Mi0uMTcuOTFhMTUuMjMsMTUuMjMsMCwwLDAtNi4wOSwwYy0uMDctLjI3LS4xMi0uNTYtLjE3LS44NmEuMjguMjgsMCwwLDEsMC0uMDlsLS40Ni0uMTNhMi4zNiwyLjM2LDAsMCwwLDAsLjI4YzAsLjMyLjExLjYyLjE3LjkxYTUuOSw1LjksMCwwLDAtMiwuODUsNy4yNCw3LjI0LDAsMCwxLC4xMS05LjQsNi4yOSw2LjI5LDAsMCwwLDIuMDguODZjLS4wNy4yNC0uMTMuNS0uMTguNzZzMCwuMjUtLjA4LjM3bC40Ny0uMTEsMC0uMTdjLjA2LS4yNi4xMi0uNTEuMTktLjc1QTE0Ljg5LDE0Ljg5LDAsMCwwLDksNS40OGExNSwxNSwwLDAsMCwyLjc4LS4yNmMuMDcuMjcuMTQuNTYuMi44NWwuNDYuMTFxLS4xMS0uNTQtLjI0LTFhNy43Myw3LjczLDAsMCwwLDIuMy0uOTEsNy4yMiw3LjIyLDAsMCwxLC4wNiw5LjQ5QTcuMjgsNy4yOCwwLDAsMCwxMi4zNCwxMi43OVoiIGZpbGw9IiM1ZWEwZWYiLz48cGF0aCBkPSJNMy42OSw3YTcuOTIsNy45MiwwLDAsMSwxLjE2LS4wOCwyLjQ0LDIuNDQsMCwwLDEsMS43MS41MkEyLDIsMCwwLDEsNy4xNSw4LjlhMi4yMSwyLjIxLDAsMCwxLS42MSwxLjY0LDIuNiwyLjYsMCwwLDEtMS44Ni42MSw5LjE3LDkuMTcsMCwwLDEtMS0uMDVabS41NSwzLjczYTQsNCwwLDAsMCwuNTUsMEExLjYyLDEuNjIsMCwwLDAsNi41OCw4LjkyLDEuNSwxLjUsMCwwLDAsNC44Nyw3LjNhMy4xNywzLjE3LDAsMCwwLS42MywwWiIgZmlsbD0iI2ZmZiIvPjxwYXRoIGQ9Ik03Ljg2LDExLjExVjYuOWguNTlMOS44LDlhMTIuMTgsMTIuMTgsMCwwLDEsLjc2LDEuMzdoMGMtLjA1LS41Ni0uMDYtMS4wNy0uMDYtMS43M1Y2LjlIMTF2NC4yMWgtLjU1TDkuMTMsOWMtLjI5LS40Ny0uNTctMS0uNzktMS40aDBjMCwuNTMsMCwxLDAsMS43NHYxLjhaIiBmaWxsPSIjZmZmIi8+PHBhdGggZD0iTTExLjg5LDEwLjQ1YTIsMiwwLDAsMCwxLC4yN2MuNTYsMCwuODgtLjI5Ljg4LS43MnMtLjIyLS42Mi0uNzktLjgzLTEuMTItLjYtMS4xMi0xLjJhMS4yMiwxLjIyLDAsMCwxLDEuMzctMS4xNCwyLDIsMCwwLDEsLjkzLjJMMTQsNy40OGExLjYzLDEuNjMsMCwwLDAtLjgtLjJjLS41OCwwLS44LjM0LS44LjYzcy4yNi41OS44NC44MSwxLjA4LjYyLDEuMDgsMS4yNC0uNDgsMS4yMS0xLjQ4LDEuMjFhMi4xNiwyLjE2LDAsMCwxLTEuMDctLjI3WiIgZmlsbD0iI2ZmZiIvPiYjeGE7PG1ldGFkYXRhPiYjeGE7ICAgPHJkZjpSREYgeG1sbnM6cmRmPSJodHRwOi8vd3d3LnczLm9yZy8xOTk5LzAyLzIyLXJkZi1zeW50YXgtbnMjIj4mI3hhOyAgICAgIDxyZGY6bGk+cHVibGljOnRydWU8L3JkZjpsaT4mI3hhOyAgICAgIDxyZGY6bGk+c2RrOmZhbHNlPC9yZGY6bGk+JiN4YTsgICAgICA8cmRmOmxpPmNhdGVnb3J5OiBOZXR3b3JraW5nPC9yZGY6bGk+JiN4YTsgICA8L3JkZjpSREY+JiN4YTs8L21ldGFkYXRhPiYjeGE7PC9zdmc+;" parent="1" vertex="1">
                    <mxGeometry x="430" y="199" width="50" height="50" as="geometry"/>
                </mxCell>
                <mxCell id="24" value="VNET (NOE)" style="shape=image;verticalLabelPosition=bottom;labelBackgroundColor=#ffffff;verticalAlign=top;aspect=fixed;imageAspect=0;image=data:image/svg+xml,PHN2ZyB4bWxucz0iaHR0cDovL3d3dy53My5vcmcvMjAwMC9zdmciIGlkPSJhMTYwNmE1Mi1mYjE0LTQ2MzctODdkZS00ZDUyNGJiYTE4MjkiIHdpZHRoPSIxOCIgaGVpZ2h0PSIxOCIgdmlld0JveD0iMCAwIDE4IDE4Ij4mI3hhOyAgICA8ZGVmcz4mI3hhOyAgICAgICAgPGxpbmVhckdyYWRpZW50IGlkPSJmMDIwZmI3ZS0yMjQzLTQ1MDEtODE1My01ZDY5YmQzYzM0ZjciIHgxPSI5Ljg4IiB5MT0iOC41OSIgeDI9IjExLjUyIiB5Mj0iMTAuMjMiIGdyYWRpZW50VHJhbnNmb3JtPSJ0cmFuc2xhdGUoMi4wMyAtMC40KSByb3RhdGUoLTAuMDgpIiBncmFkaWVudFVuaXRzPSJ1c2VyU3BhY2VPblVzZSI+JiN4YTsgICAgICAgICAgICA8c3RvcCBvZmZzZXQ9IjAiIHN0b3AtY29sb3I9IiM4NmQ2MzMiLz4mI3hhOzxzdG9wIG9mZnNldD0iMSIgc3RvcC1jb2xvcj0iIzVlOTYyNCIvPiYjeGE7ICAgICAgICA8L2xpbmVhckdyYWRpZW50PiYjeGE7ICAgICAgICA8bGluZWFyR3JhZGllbnQgaWQ9ImIzYzJiYzk0LThjN2MtNDhhMi05NzE5LTZlZTg5OWE0M2E5NyIgeDE9IjYuMTgiIHkxPSI4LjU5IiB4Mj0iNy44MSIgeTI9IjEwLjIzIiBncmFkaWVudFVuaXRzPSJ1c2VyU3BhY2VPblVzZSI+JiN4YTsgICAgICAgICAgICAgICAgICAgIDxzdG9wIG9mZnNldD0iMCIgc3RvcC1jb2xvcj0iIzg2ZDYzMyIvPiYjeGE7PHN0b3Agb2Zmc2V0PSIxIiBzdG9wLWNvbG9yPSIjNWU5NjI0Ii8+JiN4YTsgICAgICAgIDwvbGluZWFyR3JhZGllbnQ+JiN4YTsgICAgICAgIDxsaW5lYXJHcmFkaWVudCBpZD0iZTkwMGMzNWQtMDk1OC00ZDRmLWIyOGYtMzAyZWVhYWY1MmY1IiB4MT0iMi40OCIgeTE9IjguNTkiIHgyPSI0LjExIiB5Mj0iMTAuMjMiIGdyYWRpZW50VW5pdHM9InVzZXJTcGFjZU9uVXNlIj4mI3hhOyAgICAgICAgICAgICAgICAgICAgPHN0b3Agb2Zmc2V0PSIwIiBzdG9wLWNvbG9yPSIjODZkNjMzIi8+JiN4YTs8c3RvcCBvZmZzZXQ9IjEiIHN0b3AtY29sb3I9IiM1ZTk2MjQiLz4mI3hhOyAgICAgICAgPC9saW5lYXJHcmFkaWVudD4mI3hhOyAgICA8L2RlZnM+JiN4YTsgICAgPHRpdGxlPkljb24tbmV0d29ya2luZy02MTwvdGl0bGU+JiN4YTsgICAgPGNpcmNsZSBjeD0iMTIuNzQiIGN5PSI4Ljk5IiByPSIxLjE2IiBmaWxsPSJ1cmwoI2YwMjBmYjdlLTIyNDMtNDUwMS04MTUzLTVkNjliZDNjMzRmNykiLz4mI3hhOyAgICA8Y2lyY2xlIGN4PSI5LjA0IiBjeT0iOSIgcj0iMS4xNiIgZmlsbD0idXJsKCNiM2MyYmM5NC04YzdjLTQ4YTItOTcxOS02ZWU4OTlhNDNhOTcpIi8+JiN4YTsgICAgPGNpcmNsZSBjeD0iNS4zNCIgY3k9IjkiIHI9IjEuMTYiIGZpbGw9InVybCgjZTkwMGMzNWQtMDk1OC00ZDRmLWIyOGYtMzAyZWVhYWY1MmY1KSIvPiYjeGE7ICAgIDxwYXRoIGQ9Ik0yLjYxLDcuMjhoLjk0YS4zLjMsMCwwLDEsLjMuM3Y2Ljk0YS42LjYsMCwwLDEtLjYuNkgyLjMxYTAsMCwwLDAsMSwwLDBWNy41OGEuMy4zLDAsMCwxLC4zLS4zWiIgdHJhbnNmb3JtPSJ0cmFuc2xhdGUoMTMuMTggMTYuOTMpIHJvdGF0ZSgxMzQuOTIpIiBmaWxsPSIjNTBlNmZmIi8+JiN4YTsgICAgPHBhdGggZD0iTTIuNTYsMi45MUgzLjVhLjMuMywwLDAsMSwuMy4zdjcuNDNhMCwwLDAsMCwxLDAsMEgyLjg2YS42LjYsMCwwLDEtLjYtLjZWMy4yMWEuMy4zLDAsMCwxLC4zLS4zWiIgdHJhbnNmb3JtPSJ0cmFuc2xhdGUoNS42NiAtMC4xNikgcm90YXRlKDQ0LjkyKSIgZmlsbD0iIzE0OTBkZiIvPiYjeGE7ICAgIDxwYXRoIGQ9Ik0xNC4xNSw3LjI4aC45NGEuNi42LDAsMCwxLC42LjZ2Ni45NGEuMy4zLDAsMCwxLS4zLjNoLS45NGEuMy4zLDAsMCwxLS4zLS4zVjcuMjhhMCwwLDAsMCwxLDAsMFoiIHRyYW5zZm9ybT0idHJhbnNsYXRlKDEyLjMyIC03LjI4KSByb3RhdGUoNDUuMDgpIiBmaWxsPSIjNTBlNmZmIi8+JiN4YTsgICAgPHBhdGggZD0iTTE0LjgxLDIuOTFoLjk0YTAsMCwwLDAsMSwwLDB2Ny40M2EuMy4zLDAsMCwxLS4zLjNIMTQuNWEuMy4zLDAsMCwxLS4zLS4zVjMuNTFhLjYuNiwwLDAsMSwuNi0uNloiIHRyYW5zZm9ybT0idHJhbnNsYXRlKDMwLjM2IDAuOTkpIHJvdGF0ZSgxMzUuMDgpIiBmaWxsPSIjMTQ5MGRmIi8+JiN4YTs8bWV0YWRhdGE+JiN4YTsgICA8cmRmOlJERiB4bWxuczpyZGY9Imh0dHA6Ly93d3cudzMub3JnLzE5OTkvMDIvMjItcmRmLXN5bnRheC1ucyMiPiYjeGE7ICAgICAgPHJkZjpsaT5wdWJsaWM6dHJ1ZTwvcmRmOmxpPiYjeGE7ICAgICAgPHJkZjpsaT5zZGs6TXNQb3J0YWxGeC5CYXNlLkltYWdlcy5Qb2x5Y2hyb21hdGljLlZpcnR1YWxOZXR3b3JrKCk8L3JkZjpsaT4mI3hhOyAgICAgIDxyZGY6bGk+Y2F0ZWdvcnk6IE5ldHdvcmtpbmc8L3JkZjpsaT4mI3hhOyAgIDwvcmRmOlJERj4mI3hhOzwvbWV0YWRhdGE+JiN4YTs8L3N2Zz4=;" parent="1" vertex="1">
                    <mxGeometry x="300" y="194" width="60" height="60" as="geometry"/>
                </mxCell>
                <mxCell id="43" style="edgeStyle=orthogonalEdgeStyle;rounded=0;orthogonalLoop=1;jettySize=auto;html=1;entryX=1;entryY=0.5;entryDx=0;entryDy=0;" parent="1" source="29" target="31" edge="1">
                    <mxGeometry relative="1" as="geometry"/>
                </mxCell>
                <mxCell id="29" value="Network interfaceÂ &#10;card" style="shape=image;verticalLabelPosition=bottom;labelBackgroundColor=#ffffff;verticalAlign=top;aspect=fixed;imageAspect=0;image=data:image/svg+xml,PHN2ZyB4bWxucz0iaHR0cDovL3d3dy53My5vcmcvMjAwMC9zdmciIGlkPSJlMDA1MDcyMS1lOGQ4LTRjNzktYWU1MC1kOGZjMjg3MWQ5MzIiIHdpZHRoPSIxOCIgaGVpZ2h0PSIxOCIgdmlld0JveD0iMCAwIDE4IDE4Ij48ZGVmcz48bGluZWFyR3JhZGllbnQgaWQ9ImZjYWQzMjg3LWI3MWMtNDRmYS05NzFhLTZhMThiY2YzODRhMCIgeDE9IjkuMDEiIHkxPSIxNi41IiB4Mj0iOS4wMSIgeTI9IjEuNSIgZ3JhZGllbnRVbml0cz0idXNlclNwYWNlT25Vc2UiPjxzdG9wIG9mZnNldD0iMCIgc3RvcC1jb2xvcj0iIzVlOTY0MSIvPjxzdG9wIG9mZnNldD0iMC4zNCIgc3RvcC1jb2xvcj0iIzZiYWE0MiIvPjxzdG9wIG9mZnNldD0iMC42NyIgc3RvcC1jb2xvcj0iIzczYjc0MyIvPjxzdG9wIG9mZnNldD0iMSIgc3RvcC1jb2xvcj0iIzc2YmI0MyIvPjwvbGluZWFyR3JhZGllbnQ+PC9kZWZzPjx0aXRsZT5JY29uLW5ldHdvcmtpbmctODA8L3RpdGxlPjxwYXRoIGQ9Ik0xNS44OSwyLjkxaDEuMjdhLjM0LjM0LDAsMCwxLC4zNC4zNHYzLjVhLjM0LjM0LDAsMCwxLS4zNC4zNEgxNS44OWEwLDAsMCwwLDEsMCwwVjIuOTFBMCwwLDAsMCwxLDE1Ljg5LDIuOTFaIiBmaWxsPSIjZmZjYTAwIi8+PHBhdGggZD0iTTE1Ljg5LDloMS4yN2EuMzQuMzQsMCwwLDEsLjM0LjM0djUuODZhLjM0LjM0LDAsMCwxLS4zNC4zNEgxNS44OWEwLDAsMCwwLDEsMCwwVjlBMCwwLDAsMCwxLDE1Ljg5LDlaIiBmaWxsPSIjZmZjYTAwIi8+PHJlY3QgeD0iMi4xMyIgeT0iMS41IiB3aWR0aD0iMTMuNzYiIGhlaWdodD0iMTUiIHJ4PSIwLjY5IiBmaWxsPSJ1cmwoI2ZjYWQzMjg3LWI3MWMtNDRmYS05NzFhLTZhMThiY2YzODRhMCkiLz48cGF0aCBkPSJNNS45LDEyLjlINS4xOUEuMi4yLDAsMCwxLDUsMTIuNjlWNC4zNGEuMTkuMTksMCwwLDEsLjE5LS4ySDcuMTJhLjE5LjE5LDAsMCwxLC4xOS4yLjIuMiwwLDAsMS0uMTkuMjFINS4zOHY3LjkzSDUuOWEuMi4yLDAsMCwxLC4xOS4yMUEuMjEuMjEsMCwwLDEsNS45LDEyLjlaIiBmaWxsPSIjYjRlYzM2Ii8+PHBhdGggZD0iTTYsMTMuOTJINC40YS4yLjIsMCwwLDEtLjE5LS4yMUw0LjA4LDMuMzhhLjIuMiwwLDAsMSwuMDYtLjE1LjE2LjE2LDAsMCwxLC4xMy0uMDZINy4xMnYuNDFINC40N2wuMTIsOS45Mkg2WiIgZmlsbD0iI2I0ZWMzNiIvPjxwYXRoIGQ9Ik0xMiwxM0gxMC40MWEuMTkuMTksMCwwLDEtLjE0LS4wNy4xOC4xOCwwLDAsMS0uMDYtLjE0VjcuOWEuMTkuMTksMCwwLDEsLjE5LS4ybC45MSwwLDAtMi4yNWguMzhsMCwyLjQ0YS4yLjIsMCwwLDEtLjE4LjIxbC0uOTEsMHY0LjQySDEyWiIgZmlsbD0iI2I0ZWMzNiIvPjxyZWN0IHg9IjcuMDciIHk9IjIuMjkiIHdpZHRoPSI2LjE0IiBoZWlnaHQ9IjMuMTEiIHJ4PSIwLjI2IiBmaWxsPSIjMzY1NjE1Ii8+PHJlY3QgeD0iNS44NiIgeT0iMTIuNjkiIHdpZHRoPSI0LjkiIGhlaWdodD0iMS4wOSIgcng9IjAuMjYiIHRyYW5zZm9ybT0idHJhbnNsYXRlKDIxLjU0IDQuOTMpIHJvdGF0ZSg5MCkiIGZpbGw9IiMzNjU2MTUiLz48cmVjdCB4PSIzLjk5IiB5PSIxMi43MSIgd2lkdGg9IjQuOSIgaGVpZ2h0PSIxLjA5IiByeD0iMC4yNiIgdHJhbnNmb3JtPSJ0cmFuc2xhdGUoMTkuNyA2LjgyKSByb3RhdGUoOTApIiBmaWxsPSIjMzY1NjE1Ii8+PHJlY3QgeD0iOS45OCIgeT0iMTIuNzEiIHdpZHRoPSI0LjkiIGhlaWdodD0iMS4wOSIgcng9IjAuMjYiIHRyYW5zZm9ybT0idHJhbnNsYXRlKDI1LjY4IDAuODMpIHJvdGF0ZSg5MCkiIGZpbGw9IiNmMmYyZjIiLz48ZWxsaXBzZSBjeD0iOC4xMSIgY3k9IjguMDYiIHJ4PSIxLjA0IiByeT0iMS4xMiIgZmlsbD0iI2YyZjJmMiIvPjxwYXRoIGQ9Ik0uNSw1LjdIMS43N0EuMzQuMzQsMCwwLDEsMi4xMSw2djUuODZhLjM0LjM0LDAsMCwxLS4zNC4zNEguNWEwLDAsMCwwLDEsMCwwVjUuN0EwLDAsMCwwLDEsLjUsNS43WiIgdHJhbnNmb3JtPSJ0cmFuc2xhdGUoMi42MSAxNy45NSkgcm90YXRlKDE4MCkiIGZpbGw9IiMzYjNiM2IiLz4mI3hhOzxtZXRhZGF0YT4mI3hhOyAgIDxyZGY6UkRGIHhtbG5zOnJkZj0iaHR0cDovL3d3dy53My5vcmcvMTk5OS8wMi8yMi1yZGYtc3ludGF4LW5zIyI+JiN4YTsgICAgICA8cmRmOmxpPnB1YmxpYzp0cnVlPC9yZGY6bGk+JiN4YTsgICAgICA8cmRmOmxpPnNkazpNc1BvcnRhbEZ4LkJhc2UuSW1hZ2VzLlBvbHljaHJvbWF0aWMuTmV0d29ya0ludGVyZmFjZUNhcmQoKTwvcmRmOmxpPiYjeGE7ICAgICAgPHJkZjpsaT5jYXRlZ29yeTogTmV0d29ya2luZzwvcmRmOmxpPiYjeGE7ICAgPC9yZGY6UkRGPiYjeGE7PC9tZXRhZGF0YT4mI3hhOzwvc3ZnPg==;" parent="1" vertex="1">
                    <mxGeometry x="885.21" y="570" width="49.583333333333336" height="49.583333333333336" as="geometry"/>
                </mxCell>
                <mxCell id="42" style="edgeStyle=orthogonalEdgeStyle;rounded=0;orthogonalLoop=1;jettySize=auto;html=1;exitX=0.5;exitY=0;exitDx=0;exitDy=0;" parent="1" source="30" target="29" edge="1">
                    <mxGeometry relative="1" as="geometry"/>
                </mxCell>
                <mxCell id="30" value="VM" style="shape=image;verticalLabelPosition=bottom;labelBackgroundColor=#ffffff;verticalAlign=top;aspect=fixed;imageAspect=0;image=data:image/svg+xml,PHN2ZyB4bWxucz0iaHR0cDovL3d3dy53My5vcmcvMjAwMC9zdmciIGlkPSJmZDQ1NGYxYy01NTA2LTQ0YjgtODc0ZS04ODE0YjhiMmY3MGIiIHdpZHRoPSIxOCIgaGVpZ2h0PSIxOCIgdmlld0JveD0iMCAwIDE4IDE4Ij48ZGVmcz48bGluZWFyR3JhZGllbnQgaWQ9ImYzNGQ5NTY5LTJiZDAtNDAwMi04ZjE2LTNkMDFkODEwNmNiNSIgeDE9IjguODgiIHkxPSIxMi4yMSIgeDI9IjguODgiIHkyPSIwLjIxIiBncmFkaWVudFVuaXRzPSJ1c2VyU3BhY2VPblVzZSI+PHN0b3Agb2Zmc2V0PSIwIiBzdG9wLWNvbG9yPSIjMDA3OGQ0Ii8+PHN0b3Agb2Zmc2V0PSIwLjgyIiBzdG9wLWNvbG9yPSIjNWVhMGVmIi8+PC9saW5lYXJHcmFkaWVudD48bGluZWFyR3JhZGllbnQgaWQ9ImJkYjQ1YTBiLWViNTgtNDk3MC1hNjBhLWZiMmNlMzE0Zjg2NiIgeDE9IjguODgiIHkxPSIxNi44NCIgeDI9IjguODgiIHkyPSIxMi4yMSIgZ3JhZGllbnRVbml0cz0idXNlclNwYWNlT25Vc2UiPjxzdG9wIG9mZnNldD0iMC4xNSIgc3RvcC1jb2xvcj0iI2NjYyIvPjxzdG9wIG9mZnNldD0iMSIgc3RvcC1jb2xvcj0iIzcwNzA3MCIvPjwvbGluZWFyR3JhZGllbnQ+PC9kZWZzPjx0aXRsZT5JY29uLWNvbXB1dGUtMjE8L3RpdGxlPjxyZWN0IHg9Ii0wLjEyIiB5PSIwLjIxIiB3aWR0aD0iMTgiIGhlaWdodD0iMTIiIHJ4PSIwLjYiIGZpbGw9InVybCgjZjM0ZDk1NjktMmJkMC00MDAyLThmMTYtM2QwMWQ4MTA2Y2I1KSIvPjxwb2x5Z29uIHBvaW50cz0iMTEuODggNC40NiAxMS44OCA3Ljk1IDguODggOS43MSA4Ljg4IDYuMjEgMTEuODggNC40NiIgZmlsbD0iIzUwZTZmZiIvPjxwb2x5Z29uIHBvaW50cz0iMTEuODggNC40NiA4Ljg4IDYuMjIgNS44OCA0LjQ2IDguODggMi43MSAxMS44OCA0LjQ2IiBmaWxsPSIjYzNmMWZmIi8+PHBvbHlnb24gcG9pbnRzPSI4Ljg4IDYuMjIgOC44OCA5LjcxIDUuODggNy45NSA1Ljg4IDQuNDYgOC44OCA2LjIyIiBmaWxsPSIjOWNlYmZmIi8+PHBvbHlnb24gcG9pbnRzPSI1Ljg4IDcuOTUgOC44OCA2LjIxIDguODggOS43MSA1Ljg4IDcuOTUiIGZpbGw9IiNjM2YxZmYiLz48cG9seWdvbiBwb2ludHM9IjExLjg4IDcuOTUgOC44OCA2LjIxIDguODggOS43MSAxMS44OCA3Ljk1IiBmaWxsPSIjOWNlYmZmIi8+PHBhdGggZD0iTTEyLjQ5LDE1Ljg0Yy0xLjc4LS4yOC0xLjg1LTEuNTYtMS44NS0zLjYzSDcuMTFjMCwyLjA3LS4wNiwzLjM1LTEuODQsMy42M2ExLDEsMCwwLDAtLjg5LDFoOUExLDEsMCwwLDAsMTIuNDksMTUuODRaIiBmaWxsPSJ1cmwoI2JkYjQ1YTBiLWViNTgtNDk3MC1hNjBhLWZiMmNlMzE0Zjg2NikiLz4mI3hhOzxtZXRhZGF0YT4mI3hhOyAgIDxyZGY6UkRGIHhtbG5zOnJkZj0iaHR0cDovL3d3dy53My5vcmcvMTk5OS8wMi8yMi1yZGYtc3ludGF4LW5zIyI+JiN4YTsgICAgICA8cmRmOmxpPnB1YmxpYzp0cnVlPC9yZGY6bGk+JiN4YTsgICAgICA8cmRmOmxpPnNkazpNc1BvcnRhbEZ4LkJhc2UuSW1hZ2VzLlBvbHljaHJvbWF0aWMuVmlydHVhbE1hY2hpbmUoKTwvcmRmOmxpPiYjeGE7ICAgICAgPHJkZjpsaT5jYXRlZ29yeTogQ29tcHV0ZTwvcmRmOmxpPiYjeGE7ICAgPC9yZGY6UkRGPiYjeGE7PC9tZXRhZGF0YT4mI3hhOzwvc3ZnPg==;" parent="1" vertex="1">
                    <mxGeometry x="885.21" y="670" width="49.583333333333336" height="49.583333333333336" as="geometry"/>
                </mxCell>
                <mxCell id="31" value="Network&#10;Security Group" style="shape=image;verticalLabelPosition=bottom;labelBackgroundColor=#ffffff;verticalAlign=top;aspect=fixed;imageAspect=0;image=data:image/svg+xml,PHN2ZyB4bWxucz0iaHR0cDovL3d3dy53My5vcmcvMjAwMC9zdmciIGlkPSJiNzU5NDNiYS0xYTNmLTQ4NWQtYjQ1ZC0zZmVlMDBlZDdlNWUiIHdpZHRoPSIxOCIgaGVpZ2h0PSIxOCIgdmlld0JveD0iMCAwIDE4IDE4Ij48ZGVmcz48bGluZWFyR3JhZGllbnQgaWQ9ImZlNWNlNDNmLTI4MjMtNDYxNy1iYjU0LTU3ZGY5ZTc3ODM3MiIgeDE9IjkuMDEiIHkxPSIwLjc1IiB4Mj0iOS4wMSIgeTI9IjE3LjI1IiBncmFkaWVudFVuaXRzPSJ1c2VyU3BhY2VPblVzZSI+PHN0b3Agb2Zmc2V0PSIwIiBzdG9wLWNvbG9yPSIjNWVhMGVmIi8+PHN0b3Agb2Zmc2V0PSIwLjE4IiBzdG9wLWNvbG9yPSIjNTU5Y2VjIi8+PHN0b3Agb2Zmc2V0PSIwLjQ3IiBzdG9wLWNvbG9yPSIjM2M5MWU1Ii8+PHN0b3Agb2Zmc2V0PSIwLjg0IiBzdG9wLWNvbG9yPSIjMTM4MGRhIi8+PHN0b3Agb2Zmc2V0PSIxIiBzdG9wLWNvbG9yPSIjMDA3OGQ0Ii8+PC9saW5lYXJHcmFkaWVudD48L2RlZnM+PHRpdGxlPkljb24tbmV0d29ya2luZy02NzwvdGl0bGU+PHBhdGggZD0iTTE2LjM2LDguNGMwLDQuODQtNS44NSw4Ljc0LTcuMTIsOS41M2EuNDYuNDYsMCwwLDEtLjQ4LDBjLTEuMjctLjc5LTcuMTItNC42OS03LjEyLTkuNTNWMi41OGEuNDYuNDYsMCwwLDEsLjQ1LS40NkM2LjY0LDIsNS41OSwwLDksMHMyLjM2LDIsNi45MSwyLjEyYS40Ni40NiwwLDAsMSwuNDUuNDZaIiBmaWxsPSIjMDA3OGQ0Ii8+PHBhdGggZD0iTTE1Ljc1LDguNDVjMCw0LjQ0LTUuMzYsOC02LjUzLDguNzRhLjQzLjQzLDAsMCwxLS40NCwwYy0xLjE3LS43Mi02LjUzLTQuMy02LjUzLTguNzRWMy4xMWEuNDIuNDIsMCwwLDEsLjQxLS40MkM2LjgzLDIuNTgsNS44Ny43NSw5LC43NXMyLjE3LDEuODMsNi4zNCwxLjk0YS40Mi40MiwwLDAsMSwuNDEuNDJaIiBmaWxsPSIjNmJiOWYyIi8+PHBhdGggZD0iTTksOVYuNzVjMy4xMywwLDIuMTcsMS44Myw2LjM0LDEuOTRhLjQzLjQzLDAsMCwxLC40MS40M1Y4LjQ2YTQuODksNC44OSwwLDAsMSwwLC41NFpNOSw5SDIuMjhjLjQsNC4xOCw1LjM4LDcuNSw2LjUsOC4xOWEuMzkuMzksMCwwLDAsLjE4LjA2SDlaIiBmaWxsPSJ1cmwoI2ZlNWNlNDNmLTI4MjMtNDYxNy1iYjU0LTU3ZGY5ZTc3ODM3MikiLz48cGF0aCBkPSJNMi42NiwyLjY5QzYuODMsMi41OCw1Ljg3Ljc1LDksLjc1VjlIMi4yOGE0Ljg5LDQuODksMCwwLDEsMC0uNTRWMy4xMkEuNDMuNDMsMCwwLDEsMi42NiwyLjY5WiIgZmlsbD0iIzUwZTZmZiIvPjxwYXRoIGQ9Ik0xNS43Miw5SDl2OC4yNUg5YS4zOS4zOSwwLDAsMCwuMTgtLjA2QzEwLjM0LDE2LjUsMTUuMzIsMTMuMTgsMTUuNzIsOVoiIGZpbGw9IiM1MGU2ZmYiLz4mI3hhOzxtZXRhZGF0YT4mI3hhOyAgIDxyZGY6UkRGIHhtbG5zOnJkZj0iaHR0cDovL3d3dy53My5vcmcvMTk5OS8wMi8yMi1yZGYtc3ludGF4LW5zIyI+JiN4YTsgICAgICA8cmRmOmxpPnB1YmxpYzp0cnVlPC9yZGY6bGk+JiN4YTsgICAgICA8cmRmOmxpPnNkazpmYWxzZTwvcmRmOmxpPiYjeGE7ICAgICAgPHJkZjpsaT5jYXRlZ29yeTogTmV0d29ya2luZzwvcmRmOmxpPiYjeGE7ICAgPC9yZGY6UkRGPiYjeGE7PC9tZXRhZGF0YT4mI3hhOzwvc3ZnPg==;" parent="1" vertex="1">
                    <mxGeometry x="760" y="630" width="40" height="40" as="geometry"/>
                </mxCell>
                <mxCell id="37" value="Availability Set" style="shape=image;verticalLabelPosition=bottom;labelBackgroundColor=#ffffff;verticalAlign=top;aspect=fixed;imageAspect=0;image=data:image/svg+xml,PHN2ZyB4bWxucz0iaHR0cDovL3d3dy53My5vcmcvMjAwMC9zdmciIGlkPSJhYWJkZTBiNi0yMjg5LTRkNmYtOGJlOC01YmI2NzBiYzgwYzAiIHdpZHRoPSIxOCIgaGVpZ2h0PSIxOCIgdmlld0JveD0iMCAwIDE4IDE4Ij4mI3hhOyAgPGRlZnM+JiN4YTsgICAgPGxpbmVhckdyYWRpZW50IGlkPSJiMDIwZDFhMy02MDRkLTRmNzktODA4Ny1iMDIxZDM5MzE0YzUiIHgxPSIxMC4zMSIgeTE9IjEyLjciIHgyPSIxMC4zMSIgeTI9IjYuODMiIGdyYWRpZW50VW5pdHM9InVzZXJTcGFjZU9uVXNlIj4mI3hhOyAgICAgIDxzdG9wIG9mZnNldD0iMCIgc3RvcC1jb2xvcj0iIzAwNzhkNCIvPiYjeGE7ICAgICAgPHN0b3Agb2Zmc2V0PSIwLjgyIiBzdG9wLWNvbG9yPSIjNWVhMGVmIi8+JiN4YTsgICAgPC9saW5lYXJHcmFkaWVudD4mI3hhOyAgICA8bGluZWFyR3JhZGllbnQgaWQ9ImZkODg1ZWEwLTliMzEtNDg3OC05ZTg1LTkzMGQ2NGYzMzk1NSIgeDE9IjEwLjMxIiB5MT0iMTQuOTciIHgyPSIxMC4zMSIgeTI9IjEyLjciIGdyYWRpZW50VW5pdHM9InVzZXJTcGFjZU9uVXNlIj4mI3hhOyAgICAgIDxzdG9wIG9mZnNldD0iMC4xNSIgc3RvcC1jb2xvcj0iI2NjYyIvPiYjeGE7ICAgICAgPHN0b3Agb2Zmc2V0PSIxIiBzdG9wLWNvbG9yPSIjNzA3MDcwIi8+JiN4YTsgICAgPC9saW5lYXJHcmFkaWVudD4mI3hhOyAgPC9kZWZzPiYjeGE7ICA8dGl0bGU+SWNvbi1jb21wdXRlLTI1PC90aXRsZT4mI3hhOyAgPGc+JiN4YTsgICAgPHJlY3QgeD0iMi4xMiIgeT0iMC41IiB3aWR0aD0iMS45NyIgaGVpZ2h0PSIwLjU3IiBmaWxsPSIjMDA3OGQ0Ii8+JiN4YTsgICAgPHBvbHlnb24gcG9pbnRzPSIxNi42MyAxLjA3IDE2Ljk1IDEuMDcgMTYuOTUgMS4zOCAxNy41IDEuMzggMTcuNSAwLjUgMTYuNjMgMC41IDE2LjYzIDEuMDciIGZpbGw9IiMwMDc4ZDQiLz4mI3hhOyAgICA8cG9seWdvbiBwb2ludHM9IjEuNDEgMTYuODkgMS4xMyAxNi44OSAxLjEzIDE2LjU3IDAuNSAxNi41NyAwLjUgMTcuNSAxLjQxIDE3LjUgMS40MSAxNi44OSIgZmlsbD0iIzAwNzhkNCIvPiYjeGE7ICAgIDxwb2x5Z29uIHBvaW50cz0iMTYuOTUgMTYuNiAxNi45NSAxNi44OSAxNi42MyAxNi44OSAxNi42MyAxNy41IDE3LjUgMTcuNSAxNy41IDE2LjYgMTYuOTUgMTYuNiIgZmlsbD0iIzAwNzhkNCIvPiYjeGE7ICAgIDxwb2x5Z29uIHBvaW50cz0iMS4xMyAxLjM2IDEuMTMgMS4wNyAxLjQxIDEuMDcgMS40MSAwLjUgMC41IDAuNSAwLjUgMS4zNiAxLjEzIDEuMzYiIGZpbGw9IiMwMDc4ZDQiLz4mI3hhOyAgICA8cmVjdCB4PSIzLjM3IiB5PSIzLjU1IiB3aWR0aD0iOC43OSIgaGVpZ2h0PSI1Ljg4IiByeD0iMC4yOSIgZmlsbD0iIzAwNzhkNCIvPiYjeGE7ICAgIDxnPiYjeGE7ICAgICAgPHBvbHlnb24gcG9pbnRzPSI5LjIzIDUuNjQgOS4yMyA3LjM1IDcuNzcgOC4yMSA3Ljc3IDYuNDkgOS4yMyA1LjY0IiBmaWxsPSIjNTBlNmZmIi8+JiN4YTsgICAgICA8cG9seWdvbiBwb2ludHM9IjkuMjMgNS42NCA3Ljc3IDYuNSA2LjMgNS42NCA3Ljc3IDQuNzggOS4yMyA1LjY0IiBmaWxsPSIjYzNmMWZmIi8+JiN4YTsgICAgICA8cG9seWdvbiBwb2ludHM9IjcuNzcgNi41IDcuNzcgOC4yMSA2LjMgNy4zNSA2LjMgNS42NCA3Ljc3IDYuNSIgZmlsbD0iIzljZWJmZiIvPiYjeGE7ICAgIDwvZz4mI3hhOyAgICA8Zz4mI3hhOyAgICAgIDxyZWN0IHg9IjUuOTEiIHk9IjYuODMiIHdpZHRoPSI4Ljc5IiBoZWlnaHQ9IjUuODgiIHJ4PSIwLjI5IiBmaWxsPSJ1cmwoI2IwMjBkMWEzLTYwNGQtNGY3OS04MDg3LWIwMjFkMzkzMTRjNSkiLz4mI3hhOyAgICAgIDxnPiYjeGE7ICAgICAgICA8cG9seWdvbiBwb2ludHM9IjExLjc3IDguOTEgMTEuNzcgMTAuNjIgMTAuMzEgMTEuNDggMTAuMzEgOS43NyAxMS43NyA4LjkxIiBmaWxsPSIjNTBlNmZmIi8+JiN4YTsgICAgICAgIDxwb2x5Z29uIHBvaW50cz0iMTEuNzcgOC45MSAxMC4zMSA5Ljc3IDguODQgOC45MSAxMC4zMSA4LjA1IDExLjc3IDguOTEiIGZpbGw9IiNjM2YxZmYiLz4mI3hhOyAgICAgICAgPHBvbHlnb24gcG9pbnRzPSIxMC4zMSA5Ljc3IDEwLjMxIDExLjQ4IDguODQgMTAuNjIgOC44NCA4LjkxIDEwLjMxIDkuNzciIGZpbGw9IiM5Y2ViZmYiLz4mI3hhOyAgICAgICAgPHBvbHlnb24gcG9pbnRzPSI4Ljg0IDEwLjYyIDEwLjMxIDkuNzcgMTAuMzEgMTEuNDggOC44NCAxMC42MiIgZmlsbD0iI2MzZjFmZiIvPiYjeGE7ICAgICAgICA8cG9seWdvbiBwb2ludHM9IjExLjc3IDEwLjYyIDEwLjMxIDkuNzcgMTAuMzEgMTEuNDggMTEuNzcgMTAuNjIiIGZpbGw9IiM5Y2ViZmYiLz4mI3hhOyAgICAgIDwvZz4mI3hhOyAgICAgIDxwYXRoIGQ9Ik0xMi4wNywxNC40OGMtLjg3LS4xNC0uOS0uNzctLjktMS43OEg5LjQ0YzAsMSwwLDEuNjQtLjksMS43OGEuNTEuNTEsMCwwLDAtLjQzLjQ5aDQuNEEuNTEuNTEsMCwwLDAsMTIuMDcsMTQuNDhaIiBmaWxsPSJ1cmwoI2ZkODg1ZWEwLTliMzEtNDg3OC05ZTg1LTkzMGQ2NGYzMzk1NSkiLz4mI3hhOyAgICA8L2c+JiN4YTsgICAgPHJlY3QgeD0iNS4wNyIgeT0iMC41IiB3aWR0aD0iMS45NyIgaGVpZ2h0PSIwLjU3IiBmaWxsPSIjMDA3OGQ0Ii8+JiN4YTsgICAgPHJlY3QgeD0iOC4wMSIgeT0iMC41IiB3aWR0aD0iMS45NyIgaGVpZ2h0PSIwLjU3IiBmaWxsPSIjMDA3OGQ0Ii8+JiN4YTsgICAgPHJlY3QgeD0iMTAuOTYiIHk9IjAuNSIgd2lkdGg9IjEuOTciIGhlaWdodD0iMC41NyIgZmlsbD0iIzAwNzhkNCIvPiYjeGE7ICAgIDxyZWN0IHg9IjEzLjkxIiB5PSIwLjUiIHdpZHRoPSIxLjk3IiBoZWlnaHQ9IjAuNTciIGZpbGw9IiMwMDc4ZDQiLz4mI3hhOyAgICA8cmVjdCB4PSIyLjE0IiB5PSIxNi44OSIgd2lkdGg9IjEuOTciIGhlaWdodD0iMC41NyIgZmlsbD0iIzAwNzhkNCIvPiYjeGE7ICAgIDxyZWN0IHg9IjUuMDgiIHk9IjE2Ljg5IiB3aWR0aD0iMS45NyIgaGVpZ2h0PSIwLjU3IiBmaWxsPSIjMDA3OGQ0Ii8+JiN4YTsgICAgPHJlY3QgeD0iOC4wMyIgeT0iMTYuODkiIHdpZHRoPSIxLjk3IiBoZWlnaHQ9IjAuNTciIGZpbGw9IiMwMDc4ZDQiLz4mI3hhOyAgICA8cmVjdCB4PSIxMC45OCIgeT0iMTYuODkiIHdpZHRoPSIxLjk3IiBoZWlnaHQ9IjAuNTciIGZpbGw9IiMwMDc4ZDQiLz4mI3hhOyAgICA8cmVjdCB4PSIxMy45MiIgeT0iMTYuODkiIHdpZHRoPSIxLjk3IiBoZWlnaHQ9IjAuNTciIGZpbGw9IiMwMDc4ZDQiLz4mI3hhOyAgICA8cmVjdCB4PSIxNi45MyIgeT0iMi4wNSIgd2lkdGg9IjAuNTciIGhlaWdodD0iMS45NyIgZmlsbD0iIzAwNzhkNCIvPiYjeGE7ICAgIDxyZWN0IHg9IjE2LjkzIiB5PSI0Ljk5IiB3aWR0aD0iMC41NyIgaGVpZ2h0PSIxLjk3IiBmaWxsPSIjMDA3OGQ0Ii8+JiN4YTsgICAgPHJlY3QgeD0iMTYuOTMiIHk9IjcuOTQiIHdpZHRoPSIwLjU3IiBoZWlnaHQ9IjEuOTciIGZpbGw9IiMwMDc4ZDQiLz4mI3hhOyAgICA8cmVjdCB4PSIxNi45MyIgeT0iMTAuODgiIHdpZHRoPSIwLjU3IiBoZWlnaHQ9IjEuOTciIGZpbGw9IiMwMDc4ZDQiLz4mI3hhOyAgICA8cmVjdCB4PSIxNi45MyIgeT0iMTMuODMiIHdpZHRoPSIwLjU3IiBoZWlnaHQ9IjEuOTciIGZpbGw9IiMwMDc4ZDQiLz4mI3hhOyAgICA8cmVjdCB4PSIwLjUiIHk9IjIuMDMiIHdpZHRoPSIwLjU3IiBoZWlnaHQ9IjEuOTciIGZpbGw9IiMwMDc4ZDQiLz4mI3hhOyAgICA8cmVjdCB4PSIwLjUiIHk9IjQuOTgiIHdpZHRoPSIwLjU3IiBoZWlnaHQ9IjEuOTciIGZpbGw9IiMwMDc4ZDQiLz4mI3hhOyAgICA8cmVjdCB4PSIwLjUiIHk9IjcuOTIiIHdpZHRoPSIwLjU3IiBoZWlnaHQ9IjEuOTciIGZpbGw9IiMwMDc4ZDQiLz4mI3hhOyAgICA8cmVjdCB4PSIwLjUiIHk9IjEwLjg3IiB3aWR0aD0iMC41NyIgaGVpZ2h0PSIxLjk3IiBmaWxsPSIjMDA3OGQ0Ii8+JiN4YTsgICAgPHJlY3QgeD0iMC41IiB5PSIxMy44MSIgd2lkdGg9IjAuNTciIGhlaWdodD0iMS45NyIgZmlsbD0iIzAwNzhkNCIvPiYjeGE7ICA8L2c+JiN4YTs8bWV0YWRhdGE+JiN4YTsgICA8cmRmOlJERiB4bWxuczpyZGY9Imh0dHA6Ly93d3cudzMub3JnLzE5OTkvMDIvMjItcmRmLXN5bnRheC1ucyMiPiYjeGE7ICAgICAgPHJkZjpsaT5wdWJsaWM6dHJ1ZTwvcmRmOmxpPiYjeGE7ICAgICAgPHJkZjpsaT5zZGs6TXNQb3J0YWxGeC5CYXNlLkltYWdlcy5Qb2x5Y2hyb21hdGljLkF2YWlsYWJpbGl0eVNldCgpPC9yZGY6bGk+JiN4YTsgICAgICA8cmRmOmxpPmNhdGVnb3J5OiBDb21wdXRlPC9yZGY6bGk+JiN4YTsgICA8L3JkZjpSREY+JiN4YTs8L21ldGFkYXRhPiYjeGE7PC9zdmc+;" parent="1" vertex="1">
                    <mxGeometry x="845" y="400" width="58" height="58" as="geometry"/>
                </mxCell>
                <mxCell id="39" style="edgeStyle=orthogonalEdgeStyle;rounded=0;orthogonalLoop=1;jettySize=auto;html=1;exitX=0.5;exitY=1;exitDx=0;exitDy=0;" parent="1" source="2" target="2" edge="1">
                    <mxGeometry relative="1" as="geometry"/>
                </mxCell>
                <mxCell id="49" value="&lt;b&gt;Baseline&lt;/b&gt;" style="rounded=0;whiteSpace=wrap;html=1;fillColor=#f5f5f5;strokeColor=#666666;fontColor=#333333;verticalAlign=top;" parent="1" vertex="1">
                    <mxGeometry x="355" y="539.58" width="120" height="180" as="geometry"/>
                </mxCell>
                <mxCell id="50" value="Key Vault&#10;(Internal)" style="shape=image;verticalLabelPosition=bottom;labelBackgroundColor=#ffffff;verticalAlign=top;aspect=fixed;imageAspect=0;image=data:image/svg+xml,PHN2ZyB4bWxucz0iaHR0cDovL3d3dy53My5vcmcvMjAwMC9zdmciIGlkPSJiYzkzMTY5YS0yNGM0LTQ2ODYtOWYzNy1jN2U0ZjUzYjNkMzQiIHdpZHRoPSIxOCIgaGVpZ2h0PSIxOCIgdmlld0JveD0iMCAwIDE4IDE4Ij4mI3hhOyAgPGRlZnM+JiN4YTsgICAgPHJhZGlhbEdyYWRpZW50IGlkPSJmYjExNGM5My03YzE2LTQ1NDAtODk5YS0wNzk2MDQxNjI5ZTYiIGN4PSI5IiBjeT0iOSIgcj0iOC41IiBncmFkaWVudFVuaXRzPSJ1c2VyU3BhY2VPblVzZSI+JiN4YTsgICAgICA8c3RvcCBvZmZzZXQ9IjAuMTgiIHN0b3AtY29sb3I9IiM1ZWEwZWYiLz4mI3hhOyAgICAgIDxzdG9wIG9mZnNldD0iMC41NiIgc3RvcC1jb2xvcj0iIzVjOWZlZSIvPiYjeGE7ICAgICAgPHN0b3Agb2Zmc2V0PSIwLjY5IiBzdG9wLWNvbG9yPSIjNTU5Y2VkIi8+JiN4YTsgICAgICA8c3RvcCBvZmZzZXQ9IjAuNzgiIHN0b3AtY29sb3I9IiM0YTk3ZTkiLz4mI3hhOyAgICAgIDxzdG9wIG9mZnNldD0iMC44NiIgc3RvcC1jb2xvcj0iIzM5OTBlNCIvPiYjeGE7ICAgICAgPHN0b3Agb2Zmc2V0PSIwLjkzIiBzdG9wLWNvbG9yPSIjMjM4N2RlIi8+JiN4YTsgICAgICA8c3RvcCBvZmZzZXQ9IjAuOTkiIHN0b3AtY29sb3I9IiMwODdiZDYiLz4mI3hhOyAgICAgIDxzdG9wIG9mZnNldD0iMSIgc3RvcC1jb2xvcj0iIzAwNzhkNCIvPiYjeGE7ICAgIDwvcmFkaWFsR3JhZGllbnQ+JiN4YTsgICAgPHJhZGlhbEdyYWRpZW50IGlkPSJlYzQ3OGJkMy01YjM4LTRlN2YtYjY2MS0xMWYzNTU1NzhiZmYiIGN4PSIzOC45NSIgY3k9IjE4Mi4wNyIgcj0iOS44OCIgZ3JhZGllbnRUcmFuc2Zvcm09InRyYW5zbGF0ZSgtMjguNzEgLTE2My4yNCkgc2NhbGUoMC45NCAwLjk0KSIgZ3JhZGllbnRVbml0cz0idXNlclNwYWNlT25Vc2UiPiYjeGE7ICAgICAgPHN0b3Agb2Zmc2V0PSIwLjI3IiBzdG9wLWNvbG9yPSIjZmZkNzBmIi8+JiN4YTsgICAgICA8c3RvcCBvZmZzZXQ9IjAuNDkiIHN0b3AtY29sb3I9IiNmZmNiMTIiLz4mI3hhOyAgICAgIDxzdG9wIG9mZnNldD0iMC44OCIgc3RvcC1jb2xvcj0iI2ZlYWMxOSIvPiYjeGE7ICAgICAgPHN0b3Agb2Zmc2V0PSIxIiBzdG9wLWNvbG9yPSIjZmVhMTFiIi8+JiN4YTsgICAgPC9yYWRpYWxHcmFkaWVudD4mI3hhOyAgPC9kZWZzPiYjeGE7ICA8dGl0bGU+SWNvbi1zZWN1cml0eS0yNDU8L3RpdGxlPiYjeGE7ICA8cGF0aCBpZD0iYWFjZjgzMTEtYTMxNy00MDBmLWI2MTMtNzRiZDAwZGE1Y2UzIiBkPSJNOSwuNUE4LjUsOC41LDAsMSwwLDE3LjUsOSw4LjUxLDguNTEsMCwwLDAsOSwuNVpNOSwxNi4zNEE3LjM0LDcuMzQsMCwxLDEsMTYuMzQsOSw3LjM0LDcuMzQsMCwwLDEsOSwxNi4zNFoiIGZpbGw9InVybCgjZmIxMTRjOTMtN2MxNi00NTQwLTg5OWEtMDc5NjA0MTYyOWU2KSIvPiYjeGE7ICA8Y2lyY2xlIGN4PSI5IiBjeT0iOSIgcj0iNy4zNCIgZmlsbD0iI2ZmZiIvPiYjeGE7ICA8Zz4mI3hhOyAgICA8cGF0aCBpZD0iYmQ5ODNjNDEtZGI3My00MGVjLWE0ZjQtZGExMjEzZmM5OTI0IiBkPSJNMTMuNDQsNy4zM2ExLjg0LDEuODQsMCwwLDAsMC0yLjU5aDBMMTAuMjksMS41OGExLjgzLDEuODMsMCwwLDAtMi41OCwwaDBMNC41Niw0Ljc0YTEuODQsMS44NCwwLDAsMCwwLDIuNTlMNy4xOCwxMGEuNTEuNTEsMCwwLDEsLjE1LjM2djQuODhhLjYzLjYzLDAsMCwwLC4xOC40NGwxLjIsMS4yYS40MS40MSwwLDAsMCwuNTgsMGwxLjE2LTEuMTZoMGwuNjgtLjY4YS4yNS4yNSwwLDAsMCwwLS4zNGwtLjQ5LS40OWEuMjcuMjcsMCwwLDEsMC0uMzdsLjQ5LS40OWEuMjUuMjUsMCwwLDAsMC0uMzRsLS40OS0uNDlhLjI3LjI3LDAsMCwxLDAtLjM3bC40OS0uNDlhLjI1LjI1LDAsMCwwLDAtLjM0bC0uNjgtLjY5di0uMjVaTTksMi4zNUExLDEsMCwwLDEsOSw0LjQyLDEsMSwwLDEsMSw5LDIuMzVaIiBmaWxsPSJ1cmwoI2VjNDc4YmQzLTViMzgtNGU3Zi1iNjYxLTExZjM1NTU3OGJmZikiLz4mI3hhOyAgICA8cGF0aCBpZD0iYWQyZTdlNDQtOWJmZC00Nzc1LThiZjQtOGVmMjZhNTQ0OTIxIiBkPSJNOC4xOCwxNS4zaDBhLjIzLjIzLDAsMCwwLC4zOC0uMTd2LTRhLjI0LjI0LDAsMCwwLS4xMS0uMmgwYS4yMi4yMiwwLDAsMC0uMzQuMnY0QS4yOC4yOCwwLDAsMCw4LjE4LDE1LjNaIiBmaWxsPSIjZmY5MzAwIiBvcGFjaXR5PSIwLjc1Ii8+JiN4YTsgICAgPHJlY3QgaWQ9ImE5OTZmYmZmLTM5MzYtNGIyNC1iNDA3LTM2OTMzNmMxNDNiYSIgeD0iNi40OCIgeT0iNS43OSIgd2lkdGg9IjUuMTciIGhlaWdodD0iMC42MSIgcng9IjAuMjgiIGZpbGw9IiNmZjkzMDAiIG9wYWNpdHk9IjAuNzUiLz4mI3hhOyAgICA8cmVjdCBpZD0iYmIxMmQzMWMtMzM1Mi00YTE4LTg3ZGQtYTE2OWE0YTg3MjFkIiB4PSI2LjQ4IiB5PSI2Ljc4IiB3aWR0aD0iNS4xNyIgaGVpZ2h0PSIwLjYxIiByeD0iMC4yOCIgZmlsbD0iI2ZmOTMwMCIgb3BhY2l0eT0iMC43NSIvPiYjeGE7ICA8L2c+JiN4YTs8bWV0YWRhdGE+JiN4YTsgICA8cmRmOlJERiB4bWxuczpyZGY9Imh0dHA6Ly93d3cudzMub3JnLzE5OTkvMDIvMjItcmRmLXN5bnRheC1ucyMiPiYjeGE7ICAgICAgPHJkZjpsaT5wdWJsaWM6dHJ1ZTwvcmRmOmxpPiYjeGE7ICAgICAgPHJkZjpsaT5zZGs6ZmFsc2U8L3JkZjpsaT4mI3hhOyAgICAgIDxyZGY6bGk+Y2F0ZWdvcnk6IFNlY3VyaXR5PC9yZGY6bGk+JiN4YTsgICA8L3JkZjpSREY+JiN4YTs8L21ldGFkYXRhPiYjeGE7PC9zdmc+;" parent="1" vertex="1">
                    <mxGeometry x="390" y="604.58" width="50" height="50" as="geometry"/>
                </mxCell>
                <mxCell id="51" value="&lt;b&gt;Resource Group: S013-mss-infra-reference-baseline-test&lt;br&gt;(S013-MSS-Classic1)&lt;/b&gt;" style="rounded=0;whiteSpace=wrap;html=1;fillColor=#ffffff;verticalAlign=top;" parent="1" vertex="1">
                    <mxGeometry x="220" y="1465" width="290" height="375" as="geometry"/>
                </mxCell>
                <mxCell id="52" value="&lt;b&gt;Subscription shared resources&lt;br&gt;(S013-MSS-Classic1)&lt;/b&gt;" style="rounded=0;whiteSpace=wrap;html=1;fillColor=#ffffff;verticalAlign=top;" parent="1" vertex="1">
                    <mxGeometry x="220" y="1130" width="290" height="260" as="geometry"/>
                </mxCell>
                <mxCell id="53" style="edgeStyle=orthogonalEdgeStyle;rounded=0;orthogonalLoop=1;jettySize=auto;html=1;entryX=1;entryY=0.5;entryDx=0;entryDy=0;" parent="1" source="55" target="51" edge="1">
                    <mxGeometry relative="1" as="geometry"/>
                </mxCell>
                <mxCell id="55" value="&lt;b&gt;Resource Group: S013-mss-infra-reference-test&lt;/b&gt;" style="rounded=0;whiteSpace=wrap;html=1;dashed=1;verticalAlign=top;" parent="1" vertex="1">
                    <mxGeometry x="680" y="1120" width="600" height="720" as="geometry"/>
                </mxCell>
                <mxCell id="56" value="&lt;b&gt;CentOS servers&lt;/b&gt;" style="rounded=0;whiteSpace=wrap;html=1;fillColor=#f5f5f5;strokeColor=#666666;fontColor=#333333;verticalAlign=top;" parent="1" vertex="1">
                    <mxGeometry x="730" y="1180" width="480" height="320" as="geometry"/>
                </mxCell>
                <mxCell id="57" value="&lt;b&gt;Baseline&lt;/b&gt;" style="rounded=0;whiteSpace=wrap;html=1;fillColor=#f5f5f5;strokeColor=#666666;fontColor=#333333;verticalAlign=top;" parent="1" vertex="1">
                    <mxGeometry x="240" y="1529.79" width="250" height="280.21" as="geometry"/>
                </mxCell>
                <mxCell id="58" value="&lt;b&gt;Windows server&lt;/b&gt;" style="rounded=0;whiteSpace=wrap;html=1;fillColor=#f5f5f5;strokeColor=#666666;fontColor=#333333;verticalAlign=top;" parent="1" vertex="1">
                    <mxGeometry x="730" y="1540" width="480" height="220" as="geometry"/>
                </mxCell>
                <mxCell id="59" style="edgeStyle=orthogonalEdgeStyle;rounded=0;orthogonalLoop=1;jettySize=auto;html=1;entryX=1;entryY=0.5;entryDx=0;entryDy=0;" parent="1" source="61" target="70" edge="1">
                    <mxGeometry relative="1" as="geometry"/>
                </mxCell>
                <mxCell id="60" value="DNS record" style="edgeLabel;html=1;align=center;verticalAlign=middle;resizable=0;points=[];" parent="59" vertex="1" connectable="0">
                    <mxGeometry x="0.3305" y="1" relative="1" as="geometry">
                        <mxPoint x="-14" y="13.2" as="offset"/>
                    </mxGeometry>
                </mxCell>
                <mxCell id="61" value="Internal Load &#10;Balancer" style="shape=image;verticalLabelPosition=bottom;labelBackgroundColor=#ffffff;verticalAlign=top;aspect=fixed;imageAspect=0;image=data:image/svg+xml,PHN2ZyB4bWxucz0iaHR0cDovL3d3dy53My5vcmcvMjAwMC9zdmciIGlkPSJlMWU3MWUyOS0wNjVhLTQ2ZjctYWQ0Yi01MmFmMzZhMGJmY2IiIHdpZHRoPSIxOCIgaGVpZ2h0PSIxOCIgdmlld0JveD0iMCAwIDE4IDE4Ij4mI3hhOyAgPGRlZnM+JiN4YTsgICAgPGxpbmVhckdyYWRpZW50IGlkPSJlZjg0NjYzYS1hN2I2LTQ2YTctYTI3NS0xZTQxOWY1ZWFlNjIiIHgxPSI5IiB5MT0iMTkuODUiIHgyPSI5IiB5Mj0iLTEuMDIiIGdyYWRpZW50VW5pdHM9InVzZXJTcGFjZU9uVXNlIj4mI3hhOyAgICAgIDxzdG9wIG9mZnNldD0iMCIgc3RvcC1jb2xvcj0iIzVlOTYyNCIvPiYjeGE7ICAgICAgPHN0b3Agb2Zmc2V0PSIwLjAyIiBzdG9wLWNvbG9yPSIjNWY5NzI0Ii8+JiN4YTsgICAgICA8c3RvcCBvZmZzZXQ9IjEiIHN0b3AtY29sb3I9IiM3NmJjMmQiLz4mI3hhOyAgICA8L2xpbmVhckdyYWRpZW50PiYjeGE7ICA8L2RlZnM+JiN4YTsgIDx0aXRsZT5JY29uLW5ldHdvcmtpbmctNjI8L3RpdGxlPiYjeGE7ICA8cGF0aCBkPSJNLjE4LDguNTcsOC41Ny4xOGEuNi42LDAsMCwxLC44NiwwbDguMzksOC4zOWEuNi42LDAsMCwxLDAsLjg2bC04LjQsOC40YS42LjYsMCwwLDEtLjg0LDBMLjE4LDkuNDNBLjYuNiwwLDAsMSwuMTgsOC41N1oiIGZpbGw9InVybCgjZWY4NDY2M2EtYTdiNi00NmE3LWEyNzUtMWU0MTlmNWVhZTYyKSIvPiYjeGE7ICA8cGF0aCBkPSJNMTEuMiw0LDkuMDgsMS44OWEuMTIuMTIsMCwwLDAtLjE2LDBMNi44LDRhLjEuMSwwLDAsMCwuMDguMThIOC4xMmEuMTEuMTEsMCwwLDEsLjExLjExdjJhLjExLjExLDAsMCwwLC4xMS4xMUg5LjY2YS4xMS4xMSwwLDAsMCwuMTEtLjExdi0yYS4xMS4xMSwwLDAsMSwuMTEtLjExaDEuMjRBLjEuMSwwLDAsMCwxMS4yLDRaIiBmaWxsPSIjYjRlYzM2Ii8+JiN4YTsgIDxwYXRoIGQ9Ik00LDYuNjEsMS45LDguNzRhLjExLjExLDAsMCwwLDAsLjE1TDQsMTFhLjExLjExLDAsMCwwLC4xOS0uMDhWOS42OWEuMTEuMTEsMCwwLDEsLjExLS4xMWgyYS4xLjEsMCwwLDAsLjEtLjExVjguMTVBLjEuMSwwLDAsMCw2LjMzLDhoLTJhLjEuMSwwLDAsMS0uMTEtLjFWNi42OUEuMTEuMTEsMCwwLDAsNCw2LjYxWiIgZmlsbD0iI2I0ZWMzNiIvPiYjeGE7ICA8cGF0aCBkPSJNMTQuMDgsMTFsMi4xMy0yLjEyYS4xMS4xMSwwLDAsMCwwLS4xNUwxNC4wOCw2LjYxYS4xMS4xMSwwLDAsMC0uMTguMDhWNy45NGEuMS4xLDAsMCwxLS4xMS4xaC0yYS4xLjEsMCwwLDAtLjEuMTFWOS40N2EuMS4xLDAsMCwwLC4xLjExaDJhLjExLjExLDAsMCwxLC4xMS4xMXYxLjI0QS4xMS4xMSwwLDAsMCwxNC4wOCwxMVoiIGZpbGw9IiNiNGVjMzYiLz4mI3hhOyAgPHBhdGggZD0iTTExLjc5LDlhMi43OSwyLjc5LDAsMSwwLTMuNTQsMi42N3YuOTVhMS43MSwxLjcxLDAsMSwwLDEuNTcsMHYtMUEyLjc3LDIuNzcsMCwwLDAsMTEuNzksOVoiIGZpbGw9IiNmZmYiLz4mI3hhOyAgPGNpcmNsZSBpZD0iZTk5YzMzODctMTVjMy00ZjI4LWJkNGItY2IyMDliNDMwZTA2IiBjeD0iOS4wMSIgY3k9IjguOTkiIHI9IjEuNjIiIGZpbGw9IiM1ZWEwZWYiLz4mI3hhOzxtZXRhZGF0YT4mI3hhOyAgIDxyZGY6UkRGIHhtbG5zOnJkZj0iaHR0cDovL3d3dy53My5vcmcvMTk5OS8wMi8yMi1yZGYtc3ludGF4LW5zIyI+JiN4YTsgICAgICA8cmRmOmxpPnB1YmxpYzp0cnVlPC9yZGY6bGk+JiN4YTsgICAgICA8cmRmOmxpPnNkazpNc1BvcnRhbEZ4LkJhc2UuSW1hZ2VzLlBvbHljaHJvbWF0aWMuTG9hZEJhbGFuY2VyKCk8L3JkZjpsaT4mI3hhOyAgICAgIDxyZGY6bGk+Y2F0ZWdvcnk6IE5ldHdvcmtpbmc8L3JkZjpsaT4mI3hhOyAgIDwvcmRmOlJERj4mI3hhOzwvbWV0YWRhdGE+JiN4YTs8L3N2Zz4=;" parent="1" vertex="1">
                    <mxGeometry x="870" y="1210" width="48" height="48" as="geometry"/>
                </mxCell>
                <mxCell id="62" value="Network&#10;Security Group" style="shape=image;verticalLabelPosition=bottom;labelBackgroundColor=#ffffff;verticalAlign=top;aspect=fixed;imageAspect=0;image=data:image/svg+xml,PHN2ZyB4bWxucz0iaHR0cDovL3d3dy53My5vcmcvMjAwMC9zdmciIGlkPSJiNzU5NDNiYS0xYTNmLTQ4NWQtYjQ1ZC0zZmVlMDBlZDdlNWUiIHdpZHRoPSIxOCIgaGVpZ2h0PSIxOCIgdmlld0JveD0iMCAwIDE4IDE4Ij48ZGVmcz48bGluZWFyR3JhZGllbnQgaWQ9ImZlNWNlNDNmLTI4MjMtNDYxNy1iYjU0LTU3ZGY5ZTc3ODM3MiIgeDE9IjkuMDEiIHkxPSIwLjc1IiB4Mj0iOS4wMSIgeTI9IjE3LjI1IiBncmFkaWVudFVuaXRzPSJ1c2VyU3BhY2VPblVzZSI+PHN0b3Agb2Zmc2V0PSIwIiBzdG9wLWNvbG9yPSIjNWVhMGVmIi8+PHN0b3Agb2Zmc2V0PSIwLjE4IiBzdG9wLWNvbG9yPSIjNTU5Y2VjIi8+PHN0b3Agb2Zmc2V0PSIwLjQ3IiBzdG9wLWNvbG9yPSIjM2M5MWU1Ii8+PHN0b3Agb2Zmc2V0PSIwLjg0IiBzdG9wLWNvbG9yPSIjMTM4MGRhIi8+PHN0b3Agb2Zmc2V0PSIxIiBzdG9wLWNvbG9yPSIjMDA3OGQ0Ii8+PC9saW5lYXJHcmFkaWVudD48L2RlZnM+PHRpdGxlPkljb24tbmV0d29ya2luZy02NzwvdGl0bGU+PHBhdGggZD0iTTE2LjM2LDguNGMwLDQuODQtNS44NSw4Ljc0LTcuMTIsOS41M2EuNDYuNDYsMCwwLDEtLjQ4LDBjLTEuMjctLjc5LTcuMTItNC42OS03LjEyLTkuNTNWMi41OGEuNDYuNDYsMCwwLDEsLjQ1LS40NkM2LjY0LDIsNS41OSwwLDksMHMyLjM2LDIsNi45MSwyLjEyYS40Ni40NiwwLDAsMSwuNDUuNDZaIiBmaWxsPSIjMDA3OGQ0Ii8+PHBhdGggZD0iTTE1Ljc1LDguNDVjMCw0LjQ0LTUuMzYsOC02LjUzLDguNzRhLjQzLjQzLDAsMCwxLS40NCwwYy0xLjE3LS43Mi02LjUzLTQuMy02LjUzLTguNzRWMy4xMWEuNDIuNDIsMCwwLDEsLjQxLS40MkM2LjgzLDIuNTgsNS44Ny43NSw5LC43NXMyLjE3LDEuODMsNi4zNCwxLjk0YS40Mi40MiwwLDAsMSwuNDEuNDJaIiBmaWxsPSIjNmJiOWYyIi8+PHBhdGggZD0iTTksOVYuNzVjMy4xMywwLDIuMTcsMS44Myw2LjM0LDEuOTRhLjQzLjQzLDAsMCwxLC40MS40M1Y4LjQ2YTQuODksNC44OSwwLDAsMSwwLC41NFpNOSw5SDIuMjhjLjQsNC4xOCw1LjM4LDcuNSw2LjUsOC4xOWEuMzkuMzksMCwwLDAsLjE4LjA2SDlaIiBmaWxsPSJ1cmwoI2ZlNWNlNDNmLTI4MjMtNDYxNy1iYjU0LTU3ZGY5ZTc3ODM3MikiLz48cGF0aCBkPSJNMi42NiwyLjY5QzYuODMsMi41OCw1Ljg3Ljc1LDksLjc1VjlIMi4yOGE0Ljg5LDQuODksMCwwLDEsMC0uNTRWMy4xMkEuNDMuNDMsMCwwLDEsMi42NiwyLjY5WiIgZmlsbD0iIzUwZTZmZiIvPjxwYXRoIGQ9Ik0xNS43Miw5SDl2OC4yNUg5YS4zOS4zOSwwLDAsMCwuMTgtLjA2QzEwLjM0LDE2LjUsMTUuMzIsMTMuMTgsMTUuNzIsOVoiIGZpbGw9IiM1MGU2ZmYiLz4mI3hhOzxtZXRhZGF0YT4mI3hhOyAgIDxyZGY6UkRGIHhtbG5zOnJkZj0iaHR0cDovL3d3dy53My5vcmcvMTk5OS8wMi8yMi1yZGYtc3ludGF4LW5zIyI+JiN4YTsgICAgICA8cmRmOmxpPnB1YmxpYzp0cnVlPC9yZGY6bGk+JiN4YTsgICAgICA8cmRmOmxpPnNkazpmYWxzZTwvcmRmOmxpPiYjeGE7ICAgICAgPHJkZjpsaT5jYXRlZ29yeTogTmV0d29ya2luZzwvcmRmOmxpPiYjeGE7ICAgPC9yZGY6UkRGPiYjeGE7PC9tZXRhZGF0YT4mI3hhOzwvc3ZnPg==;" parent="1" vertex="1">
                    <mxGeometry x="874" y="1310" width="40" height="40" as="geometry"/>
                </mxCell>
                <mxCell id="63" style="edgeStyle=orthogonalEdgeStyle;rounded=0;orthogonalLoop=1;jettySize=auto;html=1;exitX=0;exitY=0.5;exitDx=0;exitDy=0;entryX=1;entryY=0.5;entryDx=0;entryDy=0;" parent="1" source="66" target="61" edge="1">
                    <mxGeometry relative="1" as="geometry">
                        <Array as="points">
                            <mxPoint x="990" y="1255"/>
                            <mxPoint x="990" y="1234"/>
                        </Array>
                    </mxGeometry>
                </mxCell>
                <mxCell id="64" style="edgeStyle=orthogonalEdgeStyle;rounded=0;orthogonalLoop=1;jettySize=auto;html=1;exitX=0;exitY=0.5;exitDx=0;exitDy=0;entryX=1;entryY=0.5;entryDx=0;entryDy=0;" parent="1" source="66" target="62" edge="1">
                    <mxGeometry relative="1" as="geometry">
                        <Array as="points">
                            <mxPoint x="990" y="1255"/>
                            <mxPoint x="990" y="1330"/>
                        </Array>
                    </mxGeometry>
                </mxCell>
                <mxCell id="65" value="2x" style="rounded=0;whiteSpace=wrap;html=1;fillColor=none;verticalAlign=top;" parent="1" vertex="1">
                    <mxGeometry x="1020" y="1200" width="150" height="210" as="geometry"/>
                </mxCell>
                <mxCell id="66" value="Network interfaceÂ &#10;card" style="shape=image;verticalLabelPosition=bottom;labelBackgroundColor=#ffffff;verticalAlign=top;aspect=fixed;imageAspect=0;image=data:image/svg+xml,PHN2ZyB4bWxucz0iaHR0cDovL3d3dy53My5vcmcvMjAwMC9zdmciIGlkPSJlMDA1MDcyMS1lOGQ4LTRjNzktYWU1MC1kOGZjMjg3MWQ5MzIiIHdpZHRoPSIxOCIgaGVpZ2h0PSIxOCIgdmlld0JveD0iMCAwIDE4IDE4Ij48ZGVmcz48bGluZWFyR3JhZGllbnQgaWQ9ImZjYWQzMjg3LWI3MWMtNDRmYS05NzFhLTZhMThiY2YzODRhMCIgeDE9IjkuMDEiIHkxPSIxNi41IiB4Mj0iOS4wMSIgeTI9IjEuNSIgZ3JhZGllbnRVbml0cz0idXNlclNwYWNlT25Vc2UiPjxzdG9wIG9mZnNldD0iMCIgc3RvcC1jb2xvcj0iIzVlOTY0MSIvPjxzdG9wIG9mZnNldD0iMC4zNCIgc3RvcC1jb2xvcj0iIzZiYWE0MiIvPjxzdG9wIG9mZnNldD0iMC42NyIgc3RvcC1jb2xvcj0iIzczYjc0MyIvPjxzdG9wIG9mZnNldD0iMSIgc3RvcC1jb2xvcj0iIzc2YmI0MyIvPjwvbGluZWFyR3JhZGllbnQ+PC9kZWZzPjx0aXRsZT5JY29uLW5ldHdvcmtpbmctODA8L3RpdGxlPjxwYXRoIGQ9Ik0xNS44OSwyLjkxaDEuMjdhLjM0LjM0LDAsMCwxLC4zNC4zNHYzLjVhLjM0LjM0LDAsMCwxLS4zNC4zNEgxNS44OWEwLDAsMCwwLDEsMCwwVjIuOTFBMCwwLDAsMCwxLDE1Ljg5LDIuOTFaIiBmaWxsPSIjZmZjYTAwIi8+PHBhdGggZD0iTTE1Ljg5LDloMS4yN2EuMzQuMzQsMCwwLDEsLjM0LjM0djUuODZhLjM0LjM0LDAsMCwxLS4zNC4zNEgxNS44OWEwLDAsMCwwLDEsMCwwVjlBMCwwLDAsMCwxLDE1Ljg5LDlaIiBmaWxsPSIjZmZjYTAwIi8+PHJlY3QgeD0iMi4xMyIgeT0iMS41IiB3aWR0aD0iMTMuNzYiIGhlaWdodD0iMTUiIHJ4PSIwLjY5IiBmaWxsPSJ1cmwoI2ZjYWQzMjg3LWI3MWMtNDRmYS05NzFhLTZhMThiY2YzODRhMCkiLz48cGF0aCBkPSJNNS45LDEyLjlINS4xOUEuMi4yLDAsMCwxLDUsMTIuNjlWNC4zNGEuMTkuMTksMCwwLDEsLjE5LS4ySDcuMTJhLjE5LjE5LDAsMCwxLC4xOS4yLjIuMiwwLDAsMS0uMTkuMjFINS4zOHY3LjkzSDUuOWEuMi4yLDAsMCwxLC4xOS4yMUEuMjEuMjEsMCwwLDEsNS45LDEyLjlaIiBmaWxsPSIjYjRlYzM2Ii8+PHBhdGggZD0iTTYsMTMuOTJINC40YS4yLjIsMCwwLDEtLjE5LS4yMUw0LjA4LDMuMzhhLjIuMiwwLDAsMSwuMDYtLjE1LjE2LjE2LDAsMCwxLC4xMy0uMDZINy4xMnYuNDFINC40N2wuMTIsOS45Mkg2WiIgZmlsbD0iI2I0ZWMzNiIvPjxwYXRoIGQ9Ik0xMiwxM0gxMC40MWEuMTkuMTksMCwwLDEtLjE0LS4wNy4xOC4xOCwwLDAsMS0uMDYtLjE0VjcuOWEuMTkuMTksMCwwLDEsLjE5LS4ybC45MSwwLDAtMi4yNWguMzhsMCwyLjQ0YS4yLjIsMCwwLDEtLjE4LjIxbC0uOTEsMHY0LjQySDEyWiIgZmlsbD0iI2I0ZWMzNiIvPjxyZWN0IHg9IjcuMDciIHk9IjIuMjkiIHdpZHRoPSI2LjE0IiBoZWlnaHQ9IjMuMTEiIHJ4PSIwLjI2IiBmaWxsPSIjMzY1NjE1Ii8+PHJlY3QgeD0iNS44NiIgeT0iMTIuNjkiIHdpZHRoPSI0LjkiIGhlaWdodD0iMS4wOSIgcng9IjAuMjYiIHRyYW5zZm9ybT0idHJhbnNsYXRlKDIxLjU0IDQuOTMpIHJvdGF0ZSg5MCkiIGZpbGw9IiMzNjU2MTUiLz48cmVjdCB4PSIzLjk5IiB5PSIxMi43MSIgd2lkdGg9IjQuOSIgaGVpZ2h0PSIxLjA5IiByeD0iMC4yNiIgdHJhbnNmb3JtPSJ0cmFuc2xhdGUoMTkuNyA2LjgyKSByb3RhdGUoOTApIiBmaWxsPSIjMzY1NjE1Ii8+PHJlY3QgeD0iOS45OCIgeT0iMTIuNzEiIHdpZHRoPSI0LjkiIGhlaWdodD0iMS4wOSIgcng9IjAuMjYiIHRyYW5zZm9ybT0idHJhbnNsYXRlKDI1LjY4IDAuODMpIHJvdGF0ZSg5MCkiIGZpbGw9IiNmMmYyZjIiLz48ZWxsaXBzZSBjeD0iOC4xMSIgY3k9IjguMDYiIHJ4PSIxLjA0IiByeT0iMS4xMiIgZmlsbD0iI2YyZjJmMiIvPjxwYXRoIGQ9Ik0uNSw1LjdIMS43N0EuMzQuMzQsMCwwLDEsMi4xMSw2djUuODZhLjM0LjM0LDAsMCwxLS4zNC4zNEguNWEwLDAsMCwwLDEsMCwwVjUuN0EwLDAsMCwwLDEsLjUsNS43WiIgdHJhbnNmb3JtPSJ0cmFuc2xhdGUoMi42MSAxNy45NSkgcm90YXRlKDE4MCkiIGZpbGw9IiMzYjNiM2IiLz4mI3hhOzxtZXRhZGF0YT4mI3hhOyAgIDxyZGY6UkRGIHhtbG5zOnJkZj0iaHR0cDovL3d3dy53My5vcmcvMTk5OS8wMi8yMi1yZGYtc3ludGF4LW5zIyI+JiN4YTsgICAgICA8cmRmOmxpPnB1YmxpYzp0cnVlPC9yZGY6bGk+JiN4YTsgICAgICA8cmRmOmxpPnNkazpNc1BvcnRhbEZ4LkJhc2UuSW1hZ2VzLlBvbHljaHJvbWF0aWMuTmV0d29ya0ludGVyZmFjZUNhcmQoKTwvcmRmOmxpPiYjeGE7ICAgICAgPHJkZjpsaT5jYXRlZ29yeTogTmV0d29ya2luZzwvcmRmOmxpPiYjeGE7ICAgPC9yZGY6UkRGPiYjeGE7PC9tZXRhZGF0YT4mI3hhOzwvc3ZnPg==;" parent="1" vertex="1">
                    <mxGeometry x="1070" y="1230" width="49.583333333333336" height="49.583333333333336" as="geometry"/>
                </mxCell>
                <mxCell id="67" style="edgeStyle=orthogonalEdgeStyle;rounded=0;orthogonalLoop=1;jettySize=auto;html=1;exitX=0.5;exitY=0;exitDx=0;exitDy=0;" parent="1" source="69" target="66" edge="1">
                    <mxGeometry relative="1" as="geometry"/>
                </mxCell>
                <mxCell id="68" style="edgeStyle=orthogonalEdgeStyle;rounded=0;orthogonalLoop=1;jettySize=auto;html=1;exitX=0;exitY=0.5;exitDx=0;exitDy=0;entryX=1;entryY=0.5;entryDx=0;entryDy=0;" parent="1" source="69" target="78" edge="1">
                    <mxGeometry relative="1" as="geometry"/>
                </mxCell>
                <mxCell id="69" value="VM" style="shape=image;verticalLabelPosition=bottom;labelBackgroundColor=#ffffff;verticalAlign=top;aspect=fixed;imageAspect=0;image=data:image/svg+xml,PHN2ZyB4bWxucz0iaHR0cDovL3d3dy53My5vcmcvMjAwMC9zdmciIGlkPSJmZDQ1NGYxYy01NTA2LTQ0YjgtODc0ZS04ODE0YjhiMmY3MGIiIHdpZHRoPSIxOCIgaGVpZ2h0PSIxOCIgdmlld0JveD0iMCAwIDE4IDE4Ij48ZGVmcz48bGluZWFyR3JhZGllbnQgaWQ9ImYzNGQ5NTY5LTJiZDAtNDAwMi04ZjE2LTNkMDFkODEwNmNiNSIgeDE9IjguODgiIHkxPSIxMi4yMSIgeDI9IjguODgiIHkyPSIwLjIxIiBncmFkaWVudFVuaXRzPSJ1c2VyU3BhY2VPblVzZSI+PHN0b3Agb2Zmc2V0PSIwIiBzdG9wLWNvbG9yPSIjMDA3OGQ0Ii8+PHN0b3Agb2Zmc2V0PSIwLjgyIiBzdG9wLWNvbG9yPSIjNWVhMGVmIi8+PC9saW5lYXJHcmFkaWVudD48bGluZWFyR3JhZGllbnQgaWQ9ImJkYjQ1YTBiLWViNTgtNDk3MC1hNjBhLWZiMmNlMzE0Zjg2NiIgeDE9IjguODgiIHkxPSIxNi44NCIgeDI9IjguODgiIHkyPSIxMi4yMSIgZ3JhZGllbnRVbml0cz0idXNlclNwYWNlT25Vc2UiPjxzdG9wIG9mZnNldD0iMC4xNSIgc3RvcC1jb2xvcj0iI2NjYyIvPjxzdG9wIG9mZnNldD0iMSIgc3RvcC1jb2xvcj0iIzcwNzA3MCIvPjwvbGluZWFyR3JhZGllbnQ+PC9kZWZzPjx0aXRsZT5JY29uLWNvbXB1dGUtMjE8L3RpdGxlPjxyZWN0IHg9Ii0wLjEyIiB5PSIwLjIxIiB3aWR0aD0iMTgiIGhlaWdodD0iMTIiIHJ4PSIwLjYiIGZpbGw9InVybCgjZjM0ZDk1NjktMmJkMC00MDAyLThmMTYtM2QwMWQ4MTA2Y2I1KSIvPjxwb2x5Z29uIHBvaW50cz0iMTEuODggNC40NiAxMS44OCA3Ljk1IDguODggOS43MSA4Ljg4IDYuMjEgMTEuODggNC40NiIgZmlsbD0iIzUwZTZmZiIvPjxwb2x5Z29uIHBvaW50cz0iMTEuODggNC40NiA4Ljg4IDYuMjIgNS44OCA0LjQ2IDguODggMi43MSAxMS44OCA0LjQ2IiBmaWxsPSIjYzNmMWZmIi8+PHBvbHlnb24gcG9pbnRzPSI4Ljg4IDYuMjIgOC44OCA5LjcxIDUuODggNy45NSA1Ljg4IDQuNDYgOC44OCA2LjIyIiBmaWxsPSIjOWNlYmZmIi8+PHBvbHlnb24gcG9pbnRzPSI1Ljg4IDcuOTUgOC44OCA2LjIxIDguODggOS43MSA1Ljg4IDcuOTUiIGZpbGw9IiNjM2YxZmYiLz48cG9seWdvbiBwb2ludHM9IjExLjg4IDcuOTUgOC44OCA2LjIxIDguODggOS43MSAxMS44OCA3Ljk1IiBmaWxsPSIjOWNlYmZmIi8+PHBhdGggZD0iTTEyLjQ5LDE1Ljg0Yy0xLjc4LS4yOC0xLjg1LTEuNTYtMS44NS0zLjYzSDcuMTFjMCwyLjA3LS4wNiwzLjM1LTEuODQsMy42M2ExLDEsMCwwLDAtLjg5LDFoOUExLDEsMCwwLDAsMTIuNDksMTUuODRaIiBmaWxsPSJ1cmwoI2JkYjQ1YTBiLWViNTgtNDk3MC1hNjBhLWZiMmNlMzE0Zjg2NikiLz4mI3hhOzxtZXRhZGF0YT4mI3hhOyAgIDxyZGY6UkRGIHhtbG5zOnJkZj0iaHR0cDovL3d3dy53My5vcmcvMTk5OS8wMi8yMi1yZGYtc3ludGF4LW5zIyI+JiN4YTsgICAgICA8cmRmOmxpPnB1YmxpYzp0cnVlPC9yZGY6bGk+JiN4YTsgICAgICA8cmRmOmxpPnNkazpNc1BvcnRhbEZ4LkJhc2UuSW1hZ2VzLlBvbHljaHJvbWF0aWMuVmlydHVhbE1hY2hpbmUoKTwvcmRmOmxpPiYjeGE7ICAgICAgPHJkZjpsaT5jYXRlZ29yeTogQ29tcHV0ZTwvcmRmOmxpPiYjeGE7ICAgPC9yZGY6UkRGPiYjeGE7PC9tZXRhZGF0YT4mI3hhOzwvc3ZnPg==;" parent="1" vertex="1">
                    <mxGeometry x="1070" y="1330" width="49.583333333333336" height="49.583333333333336" as="geometry"/>
                </mxCell>
                <mxCell id="70" value="Private DNS Zone&#10;(S013)" style="shape=image;verticalLabelPosition=bottom;labelBackgroundColor=#ffffff;verticalAlign=top;aspect=fixed;imageAspect=0;image=data:image/svg+xml,PHN2ZyB4bWxucz0iaHR0cDovL3d3dy53My5vcmcvMjAwMC9zdmciIGlkPSJhNTQyY2YzOS0yYmE2LTQyMDYtODI3OC02YTRmMWMyNDUyZjUiIHdpZHRoPSIxOCIgaGVpZ2h0PSIxOCIgdmlld0JveD0iMCAwIDE4IDE4Ij48ZGVmcz48cmFkaWFsR3JhZGllbnQgaWQ9ImU3NTc5ZjRkLTM2YTMtNDY5My1hNzI2LTdhNjA1MGFjNTY3MSIgY3g9Ii02ODExLjQiIGN5PSI2NzI5LjY5IiByPSIxNyIgZ3JhZGllbnRUcmFuc2Zvcm09Im1hdHJpeCgwLjUsIDAsIDAsIC0wLjUsIDM0MTQuOTEsIDMzNzQuMDUpIiBncmFkaWVudFVuaXRzPSJ1c2VyU3BhY2VPblVzZSI+PHN0b3Agb2Zmc2V0PSIwLjE4IiBzdG9wLWNvbG9yPSIjNWVhMGVmIi8+PHN0b3Agb2Zmc2V0PSIxIiBzdG9wLWNvbG9yPSIjMDA3OGQ0Ii8+PC9yYWRpYWxHcmFkaWVudD48L2RlZnM+PHRpdGxlPkljb24tbmV0d29ya2luZy02NDwvdGl0bGU+PHBhdGggaWQ9ImY1N2UxMDVkLTZkMmQtNGFkNy1iOGMzLWMxMDY4NGM5ZjliOCIgZD0iTTE0LjIxLDE1LjcyQTguNSw4LjUsMCwwLDEsMy43OSwyLjI4bC4wOS0uMDZhOC41LDguNSwwLDAsMSwxMC4zMywxMy41IiBmaWxsPSJ1cmwoI2U3NTc5ZjRkLTM2YTMtNDY5My1hNzI2LTdhNjA1MGFjNTY3MSkiLz48cGF0aCBkPSJNOSwxLjMxQTcuNjksNy42OSwwLDEsMCwxNi42OSw5LDcuNyw3LjcsMCwwLDAsOSwxLjMxWk0xNC4xNSwzLjlBNy4zNyw3LjM3LDAsMCwxLDEyLDQuNyw4LjgzLDguODMsMCwwLDAsMTAuNzUsMiw3LjIsNy4yLDAsMCwxLDE0LjE1LDMuOVpNOSwxLjc0YTYuNTksNi41OSwwLDAsMSwxLjA5LjA5aDBhNy40OCw3LjQ4LDAsMCwxLDEuNTMsMywxNS4xMiwxNS4xMiwwLDAsMS01LjQ1LDBBNy4zOCw3LjM4LDAsMCwxLDcuNjgsMS44OWwwLDBBNy4zNCw3LjM0LDAsMCwxLDksMS43NFpNNywyQTguNzIsOC43MiwwLDAsMCw1LjczLDQuNjhhNS41OCw1LjU4LDAsMCwxLTEuOS0uNzdBNy4zNSw3LjM1LDAsMCwxLDcsMlpNMy43MiwxNGE1LjI3LDUuMjcsMCwwLDEsMS43OC0uNzYsNy4wOCw3LjA4LDAsMCwwLDEuMzUsMi43MkE3LjI1LDcuMjUsMCwwLDEsMy43MiwxNFptNi40MSwyLjJBNy4wOCw3LjA4LDAsMCwxLDksMTYuMjZhNi44Myw2LjgzLDAsMCwxLTEuNDQtLjE1bDAsMGE2LDYsMCwwLDEtMS42Ny0zLDE0LjczLDE0LjczLDAsMCwxLDUuODgsMCw2LDYsMCwwLDEtMS42OSwzWm0uNzMtLjE2YTcuMTMsNy4xMywwLDAsMCwxLjM4LTIuOCw2LjY4LDYuNjgsMCwwLDEsMiwuODNBNy4xMyw3LjEzLDAsMCwxLDEwLjg2LDE2Wm0xLjQ4LTMuMjJjLjA4LS4zNi4xNS0uNzMuMi0xLjEybC0uNDYuMTFjLS4wNS4zMS0uMS42Mi0uMTcuOTFhMTUuMjMsMTUuMjMsMCwwLDAtNi4wOSwwYy0uMDctLjI3LS4xMi0uNTYtLjE3LS44NmEuMjguMjgsMCwwLDEsMC0uMDlsLS40Ni0uMTNhMi4zNiwyLjM2LDAsMCwwLDAsLjI4YzAsLjMyLjExLjYyLjE3LjkxYTUuOSw1LjksMCwwLDAtMiwuODUsNy4yNCw3LjI0LDAsMCwxLC4xMS05LjQsNi4yOSw2LjI5LDAsMCwwLDIuMDguODZjLS4wNy4yNC0uMTMuNS0uMTguNzZzMCwuMjUtLjA4LjM3bC40Ny0uMTEsMC0uMTdjLjA2LS4yNi4xMi0uNTEuMTktLjc1QTE0Ljg5LDE0Ljg5LDAsMCwwLDksNS40OGExNSwxNSwwLDAsMCwyLjc4LS4yNmMuMDcuMjcuMTQuNTYuMi44NWwuNDYuMTFxLS4xMS0uNTQtLjI0LTFhNy43Myw3LjczLDAsMCwwLDIuMy0uOTEsNy4yMiw3LjIyLDAsMCwxLC4wNiw5LjQ5QTcuMjgsNy4yOCwwLDAsMCwxMi4zNCwxMi43OVoiIGZpbGw9IiM1ZWEwZWYiLz48cGF0aCBkPSJNMy42OSw3YTcuOTIsNy45MiwwLDAsMSwxLjE2LS4wOCwyLjQ0LDIuNDQsMCwwLDEsMS43MS41MkEyLDIsMCwwLDEsNy4xNSw4LjlhMi4yMSwyLjIxLDAsMCwxLS42MSwxLjY0LDIuNiwyLjYsMCwwLDEtMS44Ni42MSw5LjE3LDkuMTcsMCwwLDEtMS0uMDVabS41NSwzLjczYTQsNCwwLDAsMCwuNTUsMEExLjYyLDEuNjIsMCwwLDAsNi41OCw4LjkyLDEuNSwxLjUsMCwwLDAsNC44Nyw3LjNhMy4xNywzLjE3LDAsMCwwLS42MywwWiIgZmlsbD0iI2ZmZiIvPjxwYXRoIGQ9Ik03Ljg2LDExLjExVjYuOWguNTlMOS44LDlhMTIuMTgsMTIuMTgsMCwwLDEsLjc2LDEuMzdoMGMtLjA1LS41Ni0uMDYtMS4wNy0uMDYtMS43M1Y2LjlIMTF2NC4yMWgtLjU1TDkuMTMsOWMtLjI5LS40Ny0uNTctMS0uNzktMS40aDBjMCwuNTMsMCwxLDAsMS43NHYxLjhaIiBmaWxsPSIjZmZmIi8+PHBhdGggZD0iTTExLjg5LDEwLjQ1YTIsMiwwLDAsMCwxLC4yN2MuNTYsMCwuODgtLjI5Ljg4LS43MnMtLjIyLS42Mi0uNzktLjgzLTEuMTItLjYtMS4xMi0xLjJhMS4yMiwxLjIyLDAsMCwxLDEuMzctMS4xNCwyLDIsMCwwLDEsLjkzLjJMMTQsNy40OGExLjYzLDEuNjMsMCwwLDAtLjgtLjJjLS41OCwwLS44LjM0LS44LjYzcy4yNi41OS44NC44MSwxLjA4LjYyLDEuMDgsMS4yNC0uNDgsMS4yMS0xLjQ4LDEuMjFhMi4xNiwyLjE2LDAsMCwxLTEuMDctLjI3WiIgZmlsbD0iI2ZmZiIvPiYjeGE7PG1ldGFkYXRhPiYjeGE7ICAgPHJkZjpSREYgeG1sbnM6cmRmPSJodHRwOi8vd3d3LnczLm9yZy8xOTk5LzAyLzIyLXJkZi1zeW50YXgtbnMjIj4mI3hhOyAgICAgIDxyZGY6bGk+cHVibGljOnRydWU8L3JkZjpsaT4mI3hhOyAgICAgIDxyZGY6bGk+c2RrOmZhbHNlPC9yZGY6bGk+JiN4YTsgICAgICA8cmRmOmxpPmNhdGVnb3J5OiBOZXR3b3JraW5nPC9yZGY6bGk+JiN4YTsgICA8L3JkZjpSREY+JiN4YTs8L21ldGFkYXRhPiYjeGE7PC9zdmc+;" parent="1" vertex="1">
                    <mxGeometry x="390" y="1209" width="50" height="50" as="geometry"/>
                </mxCell>
                <mxCell id="71" value="VNET (NOE)" style="shape=image;verticalLabelPosition=bottom;labelBackgroundColor=#ffffff;verticalAlign=top;aspect=fixed;imageAspect=0;image=data:image/svg+xml,PHN2ZyB4bWxucz0iaHR0cDovL3d3dy53My5vcmcvMjAwMC9zdmciIGlkPSJhMTYwNmE1Mi1mYjE0LTQ2MzctODdkZS00ZDUyNGJiYTE4MjkiIHdpZHRoPSIxOCIgaGVpZ2h0PSIxOCIgdmlld0JveD0iMCAwIDE4IDE4Ij4mI3hhOyAgICA8ZGVmcz4mI3hhOyAgICAgICAgPGxpbmVhckdyYWRpZW50IGlkPSJmMDIwZmI3ZS0yMjQzLTQ1MDEtODE1My01ZDY5YmQzYzM0ZjciIHgxPSI5Ljg4IiB5MT0iOC41OSIgeDI9IjExLjUyIiB5Mj0iMTAuMjMiIGdyYWRpZW50VHJhbnNmb3JtPSJ0cmFuc2xhdGUoMi4wMyAtMC40KSByb3RhdGUoLTAuMDgpIiBncmFkaWVudFVuaXRzPSJ1c2VyU3BhY2VPblVzZSI+JiN4YTsgICAgICAgICAgICA8c3RvcCBvZmZzZXQ9IjAiIHN0b3AtY29sb3I9IiM4NmQ2MzMiLz4mI3hhOzxzdG9wIG9mZnNldD0iMSIgc3RvcC1jb2xvcj0iIzVlOTYyNCIvPiYjeGE7ICAgICAgICA8L2xpbmVhckdyYWRpZW50PiYjeGE7ICAgICAgICA8bGluZWFyR3JhZGllbnQgaWQ9ImIzYzJiYzk0LThjN2MtNDhhMi05NzE5LTZlZTg5OWE0M2E5NyIgeDE9IjYuMTgiIHkxPSI4LjU5IiB4Mj0iNy44MSIgeTI9IjEwLjIzIiBncmFkaWVudFVuaXRzPSJ1c2VyU3BhY2VPblVzZSI+JiN4YTsgICAgICAgICAgICAgICAgICAgIDxzdG9wIG9mZnNldD0iMCIgc3RvcC1jb2xvcj0iIzg2ZDYzMyIvPiYjeGE7PHN0b3Agb2Zmc2V0PSIxIiBzdG9wLWNvbG9yPSIjNWU5NjI0Ii8+JiN4YTsgICAgICAgIDwvbGluZWFyR3JhZGllbnQ+JiN4YTsgICAgICAgIDxsaW5lYXJHcmFkaWVudCBpZD0iZTkwMGMzNWQtMDk1OC00ZDRmLWIyOGYtMzAyZWVhYWY1MmY1IiB4MT0iMi40OCIgeTE9IjguNTkiIHgyPSI0LjExIiB5Mj0iMTAuMjMiIGdyYWRpZW50VW5pdHM9InVzZXJTcGFjZU9uVXNlIj4mI3hhOyAgICAgICAgICAgICAgICAgICAgPHN0b3Agb2Zmc2V0PSIwIiBzdG9wLWNvbG9yPSIjODZkNjMzIi8+JiN4YTs8c3RvcCBvZmZzZXQ9IjEiIHN0b3AtY29sb3I9IiM1ZTk2MjQiLz4mI3hhOyAgICAgICAgPC9saW5lYXJHcmFkaWVudD4mI3hhOyAgICA8L2RlZnM+JiN4YTsgICAgPHRpdGxlPkljb24tbmV0d29ya2luZy02MTwvdGl0bGU+JiN4YTsgICAgPGNpcmNsZSBjeD0iMTIuNzQiIGN5PSI4Ljk5IiByPSIxLjE2IiBmaWxsPSJ1cmwoI2YwMjBmYjdlLTIyNDMtNDUwMS04MTUzLTVkNjliZDNjMzRmNykiLz4mI3hhOyAgICA8Y2lyY2xlIGN4PSI5LjA0IiBjeT0iOSIgcj0iMS4xNiIgZmlsbD0idXJsKCNiM2MyYmM5NC04YzdjLTQ4YTItOTcxOS02ZWU4OTlhNDNhOTcpIi8+JiN4YTsgICAgPGNpcmNsZSBjeD0iNS4zNCIgY3k9IjkiIHI9IjEuMTYiIGZpbGw9InVybCgjZTkwMGMzNWQtMDk1OC00ZDRmLWIyOGYtMzAyZWVhYWY1MmY1KSIvPiYjeGE7ICAgIDxwYXRoIGQ9Ik0yLjYxLDcuMjhoLjk0YS4zLjMsMCwwLDEsLjMuM3Y2Ljk0YS42LjYsMCwwLDEtLjYuNkgyLjMxYTAsMCwwLDAsMSwwLDBWNy41OGEuMy4zLDAsMCwxLC4zLS4zWiIgdHJhbnNmb3JtPSJ0cmFuc2xhdGUoMTMuMTggMTYuOTMpIHJvdGF0ZSgxMzQuOTIpIiBmaWxsPSIjNTBlNmZmIi8+JiN4YTsgICAgPHBhdGggZD0iTTIuNTYsMi45MUgzLjVhLjMuMywwLDAsMSwuMy4zdjcuNDNhMCwwLDAsMCwxLDAsMEgyLjg2YS42LjYsMCwwLDEtLjYtLjZWMy4yMWEuMy4zLDAsMCwxLC4zLS4zWiIgdHJhbnNmb3JtPSJ0cmFuc2xhdGUoNS42NiAtMC4xNikgcm90YXRlKDQ0LjkyKSIgZmlsbD0iIzE0OTBkZiIvPiYjeGE7ICAgIDxwYXRoIGQ9Ik0xNC4xNSw3LjI4aC45NGEuNi42LDAsMCwxLC42LjZ2Ni45NGEuMy4zLDAsMCwxLS4zLjNoLS45NGEuMy4zLDAsMCwxLS4zLS4zVjcuMjhhMCwwLDAsMCwxLDAsMFoiIHRyYW5zZm9ybT0idHJhbnNsYXRlKDEyLjMyIC03LjI4KSByb3RhdGUoNDUuMDgpIiBmaWxsPSIjNTBlNmZmIi8+JiN4YTsgICAgPHBhdGggZD0iTTE0LjgxLDIuOTFoLjk0YTAsMCwwLDAsMSwwLDB2Ny40M2EuMy4zLDAsMCwxLS4zLjNIMTQuNWEuMy4zLDAsMCwxLS4zLS4zVjMuNTFhLjYuNiwwLDAsMSwuNi0uNloiIHRyYW5zZm9ybT0idHJhbnNsYXRlKDMwLjM2IDAuOTkpIHJvdGF0ZSgxMzUuMDgpIiBmaWxsPSIjMTQ5MGRmIi8+JiN4YTs8bWV0YWRhdGE+JiN4YTsgICA8cmRmOlJERiB4bWxuczpyZGY9Imh0dHA6Ly93d3cudzMub3JnLzE5OTkvMDIvMjItcmRmLXN5bnRheC1ucyMiPiYjeGE7ICAgICAgPHJkZjpsaT5wdWJsaWM6dHJ1ZTwvcmRmOmxpPiYjeGE7ICAgICAgPHJkZjpsaT5zZGs6TXNQb3J0YWxGeC5CYXNlLkltYWdlcy5Qb2x5Y2hyb21hdGljLlZpcnR1YWxOZXR3b3JrKCk8L3JkZjpsaT4mI3hhOyAgICAgIDxyZGY6bGk+Y2F0ZWdvcnk6IE5ldHdvcmtpbmc8L3JkZjpsaT4mI3hhOyAgIDwvcmRmOlJERj4mI3hhOzwvbWV0YWRhdGE+JiN4YTs8L3N2Zz4=;" parent="1" vertex="1">
                    <mxGeometry x="260" y="1204" width="60" height="60" as="geometry"/>
                </mxCell>
                <mxCell id="72" style="edgeStyle=orthogonalEdgeStyle;rounded=0;orthogonalLoop=1;jettySize=auto;html=1;entryX=1;entryY=0.5;entryDx=0;entryDy=0;" parent="1" source="73" target="76" edge="1">
                    <mxGeometry relative="1" as="geometry"/>
                </mxCell>
                <mxCell id="73" value="Network interfaceÂ &#10;card" style="shape=image;verticalLabelPosition=bottom;labelBackgroundColor=#ffffff;verticalAlign=top;aspect=fixed;imageAspect=0;image=data:image/svg+xml,PHN2ZyB4bWxucz0iaHR0cDovL3d3dy53My5vcmcvMjAwMC9zdmciIGlkPSJlMDA1MDcyMS1lOGQ4LTRjNzktYWU1MC1kOGZjMjg3MWQ5MzIiIHdpZHRoPSIxOCIgaGVpZ2h0PSIxOCIgdmlld0JveD0iMCAwIDE4IDE4Ij48ZGVmcz48bGluZWFyR3JhZGllbnQgaWQ9ImZjYWQzMjg3LWI3MWMtNDRmYS05NzFhLTZhMThiY2YzODRhMCIgeDE9IjkuMDEiIHkxPSIxNi41IiB4Mj0iOS4wMSIgeTI9IjEuNSIgZ3JhZGllbnRVbml0cz0idXNlclNwYWNlT25Vc2UiPjxzdG9wIG9mZnNldD0iMCIgc3RvcC1jb2xvcj0iIzVlOTY0MSIvPjxzdG9wIG9mZnNldD0iMC4zNCIgc3RvcC1jb2xvcj0iIzZiYWE0MiIvPjxzdG9wIG9mZnNldD0iMC42NyIgc3RvcC1jb2xvcj0iIzczYjc0MyIvPjxzdG9wIG9mZnNldD0iMSIgc3RvcC1jb2xvcj0iIzc2YmI0MyIvPjwvbGluZWFyR3JhZGllbnQ+PC9kZWZzPjx0aXRsZT5JY29uLW5ldHdvcmtpbmctODA8L3RpdGxlPjxwYXRoIGQ9Ik0xNS44OSwyLjkxaDEuMjdhLjM0LjM0LDAsMCwxLC4zNC4zNHYzLjVhLjM0LjM0LDAsMCwxLS4zNC4zNEgxNS44OWEwLDAsMCwwLDEsMCwwVjIuOTFBMCwwLDAsMCwxLDE1Ljg5LDIuOTFaIiBmaWxsPSIjZmZjYTAwIi8+PHBhdGggZD0iTTE1Ljg5LDloMS4yN2EuMzQuMzQsMCwwLDEsLjM0LjM0djUuODZhLjM0LjM0LDAsMCwxLS4zNC4zNEgxNS44OWEwLDAsMCwwLDEsMCwwVjlBMCwwLDAsMCwxLDE1Ljg5LDlaIiBmaWxsPSIjZmZjYTAwIi8+PHJlY3QgeD0iMi4xMyIgeT0iMS41IiB3aWR0aD0iMTMuNzYiIGhlaWdodD0iMTUiIHJ4PSIwLjY5IiBmaWxsPSJ1cmwoI2ZjYWQzMjg3LWI3MWMtNDRmYS05NzFhLTZhMThiY2YzODRhMCkiLz48cGF0aCBkPSJNNS45LDEyLjlINS4xOUEuMi4yLDAsMCwxLDUsMTIuNjlWNC4zNGEuMTkuMTksMCwwLDEsLjE5LS4ySDcuMTJhLjE5LjE5LDAsMCwxLC4xOS4yLjIuMiwwLDAsMS0uMTkuMjFINS4zOHY3LjkzSDUuOWEuMi4yLDAsMCwxLC4xOS4yMUEuMjEuMjEsMCwwLDEsNS45LDEyLjlaIiBmaWxsPSIjYjRlYzM2Ii8+PHBhdGggZD0iTTYsMTMuOTJINC40YS4yLjIsMCwwLDEtLjE5LS4yMUw0LjA4LDMuMzhhLjIuMiwwLDAsMSwuMDYtLjE1LjE2LjE2LDAsMCwxLC4xMy0uMDZINy4xMnYuNDFINC40N2wuMTIsOS45Mkg2WiIgZmlsbD0iI2I0ZWMzNiIvPjxwYXRoIGQ9Ik0xMiwxM0gxMC40MWEuMTkuMTksMCwwLDEtLjE0LS4wNy4xOC4xOCwwLDAsMS0uMDYtLjE0VjcuOWEuMTkuMTksMCwwLDEsLjE5LS4ybC45MSwwLDAtMi4yNWguMzhsMCwyLjQ0YS4yLjIsMCwwLDEtLjE4LjIxbC0uOTEsMHY0LjQySDEyWiIgZmlsbD0iI2I0ZWMzNiIvPjxyZWN0IHg9IjcuMDciIHk9IjIuMjkiIHdpZHRoPSI2LjE0IiBoZWlnaHQ9IjMuMTEiIHJ4PSIwLjI2IiBmaWxsPSIjMzY1NjE1Ii8+PHJlY3QgeD0iNS44NiIgeT0iMTIuNjkiIHdpZHRoPSI0LjkiIGhlaWdodD0iMS4wOSIgcng9IjAuMjYiIHRyYW5zZm9ybT0idHJhbnNsYXRlKDIxLjU0IDQuOTMpIHJvdGF0ZSg5MCkiIGZpbGw9IiMzNjU2MTUiLz48cmVjdCB4PSIzLjk5IiB5PSIxMi43MSIgd2lkdGg9IjQuOSIgaGVpZ2h0PSIxLjA5IiByeD0iMC4yNiIgdHJhbnNmb3JtPSJ0cmFuc2xhdGUoMTkuNyA2LjgyKSByb3RhdGUoOTApIiBmaWxsPSIjMzY1NjE1Ii8+PHJlY3QgeD0iOS45OCIgeT0iMTIuNzEiIHdpZHRoPSI0LjkiIGhlaWdodD0iMS4wOSIgcng9IjAuMjYiIHRyYW5zZm9ybT0idHJhbnNsYXRlKDI1LjY4IDAuODMpIHJvdGF0ZSg5MCkiIGZpbGw9IiNmMmYyZjIiLz48ZWxsaXBzZSBjeD0iOC4xMSIgY3k9IjguMDYiIHJ4PSIxLjA0IiByeT0iMS4xMiIgZmlsbD0iI2YyZjJmMiIvPjxwYXRoIGQ9Ik0uNSw1LjdIMS43N0EuMzQuMzQsMCwwLDEsMi4xMSw2djUuODZhLjM0LjM0LDAsMCwxLS4zNC4zNEguNWEwLDAsMCwwLDEsMCwwVjUuN0EwLDAsMCwwLDEsLjUsNS43WiIgdHJhbnNmb3JtPSJ0cmFuc2xhdGUoMi42MSAxNy45NSkgcm90YXRlKDE4MCkiIGZpbGw9IiMzYjNiM2IiLz4mI3hhOzxtZXRhZGF0YT4mI3hhOyAgIDxyZGY6UkRGIHhtbG5zOnJkZj0iaHR0cDovL3d3dy53My5vcmcvMTk5OS8wMi8yMi1yZGYtc3ludGF4LW5zIyI+JiN4YTsgICAgICA8cmRmOmxpPnB1YmxpYzp0cnVlPC9yZGY6bGk+JiN4YTsgICAgICA8cmRmOmxpPnNkazpNc1BvcnRhbEZ4LkJhc2UuSW1hZ2VzLlBvbHljaHJvbWF0aWMuTmV0d29ya0ludGVyZmFjZUNhcmQoKTwvcmRmOmxpPiYjeGE7ICAgICAgPHJkZjpsaT5jYXRlZ29yeTogTmV0d29ya2luZzwvcmRmOmxpPiYjeGE7ICAgPC9yZGY6UkRGPiYjeGE7PC9tZXRhZGF0YT4mI3hhOzwvc3ZnPg==;" parent="1" vertex="1">
                    <mxGeometry x="990.21" y="1577.71" width="49.583333333333336" height="49.583333333333336" as="geometry"/>
                </mxCell>
                <mxCell id="74" style="edgeStyle=orthogonalEdgeStyle;rounded=0;orthogonalLoop=1;jettySize=auto;html=1;exitX=0.5;exitY=0;exitDx=0;exitDy=0;" parent="1" source="75" target="73" edge="1">
                    <mxGeometry relative="1" as="geometry"/>
                </mxCell>
                <mxCell id="75" value="VM" style="shape=image;verticalLabelPosition=bottom;labelBackgroundColor=#ffffff;verticalAlign=top;aspect=fixed;imageAspect=0;image=data:image/svg+xml,PHN2ZyB4bWxucz0iaHR0cDovL3d3dy53My5vcmcvMjAwMC9zdmciIGlkPSJmZDQ1NGYxYy01NTA2LTQ0YjgtODc0ZS04ODE0YjhiMmY3MGIiIHdpZHRoPSIxOCIgaGVpZ2h0PSIxOCIgdmlld0JveD0iMCAwIDE4IDE4Ij48ZGVmcz48bGluZWFyR3JhZGllbnQgaWQ9ImYzNGQ5NTY5LTJiZDAtNDAwMi04ZjE2LTNkMDFkODEwNmNiNSIgeDE9IjguODgiIHkxPSIxMi4yMSIgeDI9IjguODgiIHkyPSIwLjIxIiBncmFkaWVudFVuaXRzPSJ1c2VyU3BhY2VPblVzZSI+PHN0b3Agb2Zmc2V0PSIwIiBzdG9wLWNvbG9yPSIjMDA3OGQ0Ii8+PHN0b3Agb2Zmc2V0PSIwLjgyIiBzdG9wLWNvbG9yPSIjNWVhMGVmIi8+PC9saW5lYXJHcmFkaWVudD48bGluZWFyR3JhZGllbnQgaWQ9ImJkYjQ1YTBiLWViNTgtNDk3MC1hNjBhLWZiMmNlMzE0Zjg2NiIgeDE9IjguODgiIHkxPSIxNi44NCIgeDI9IjguODgiIHkyPSIxMi4yMSIgZ3JhZGllbnRVbml0cz0idXNlclNwYWNlT25Vc2UiPjxzdG9wIG9mZnNldD0iMC4xNSIgc3RvcC1jb2xvcj0iI2NjYyIvPjxzdG9wIG9mZnNldD0iMSIgc3RvcC1jb2xvcj0iIzcwNzA3MCIvPjwvbGluZWFyR3JhZGllbnQ+PC9kZWZzPjx0aXRsZT5JY29uLWNvbXB1dGUtMjE8L3RpdGxlPjxyZWN0IHg9Ii0wLjEyIiB5PSIwLjIxIiB3aWR0aD0iMTgiIGhlaWdodD0iMTIiIHJ4PSIwLjYiIGZpbGw9InVybCgjZjM0ZDk1NjktMmJkMC00MDAyLThmMTYtM2QwMWQ4MTA2Y2I1KSIvPjxwb2x5Z29uIHBvaW50cz0iMTEuODggNC40NiAxMS44OCA3Ljk1IDguODggOS43MSA4Ljg4IDYuMjEgMTEuODggNC40NiIgZmlsbD0iIzUwZTZmZiIvPjxwb2x5Z29uIHBvaW50cz0iMTEuODggNC40NiA4Ljg4IDYuMjIgNS44OCA0LjQ2IDguODggMi43MSAxMS44OCA0LjQ2IiBmaWxsPSIjYzNmMWZmIi8+PHBvbHlnb24gcG9pbnRzPSI4Ljg4IDYuMjIgOC44OCA5LjcxIDUuODggNy45NSA1Ljg4IDQuNDYgOC44OCA2LjIyIiBmaWxsPSIjOWNlYmZmIi8+PHBvbHlnb24gcG9pbnRzPSI1Ljg4IDcuOTUgOC44OCA2LjIxIDguODggOS43MSA1Ljg4IDcuOTUiIGZpbGw9IiNjM2YxZmYiLz48cG9seWdvbiBwb2ludHM9IjExLjg4IDcuOTUgOC44OCA2LjIxIDguODggOS43MSAxMS44OCA3Ljk1IiBmaWxsPSIjOWNlYmZmIi8+PHBhdGggZD0iTTEyLjQ5LDE1Ljg0Yy0xLjc4LS4yOC0xLjg1LTEuNTYtMS44NS0zLjYzSDcuMTFjMCwyLjA3LS4wNiwzLjM1LTEuODQsMy42M2ExLDEsMCwwLDAtLjg5LDFoOUExLDEsMCwwLDAsMTIuNDksMTUuODRaIiBmaWxsPSJ1cmwoI2JkYjQ1YTBiLWViNTgtNDk3MC1hNjBhLWZiMmNlMzE0Zjg2NikiLz4mI3hhOzxtZXRhZGF0YT4mI3hhOyAgIDxyZGY6UkRGIHhtbG5zOnJkZj0iaHR0cDovL3d3dy53My5vcmcvMTk5OS8wMi8yMi1yZGYtc3ludGF4LW5zIyI+JiN4YTsgICAgICA8cmRmOmxpPnB1YmxpYzp0cnVlPC9yZGY6bGk+JiN4YTsgICAgICA8cmRmOmxpPnNkazpNc1BvcnRhbEZ4LkJhc2UuSW1hZ2VzLlBvbHljaHJvbWF0aWMuVmlydHVhbE1hY2hpbmUoKTwvcmRmOmxpPiYjeGE7ICAgICAgPHJkZjpsaT5jYXRlZ29yeTogQ29tcHV0ZTwvcmRmOmxpPiYjeGE7ICAgPC9yZGY6UkRGPiYjeGE7PC9tZXRhZGF0YT4mI3hhOzwvc3ZnPg==;" parent="1" vertex="1">
                    <mxGeometry x="990.21" y="1677.71" width="49.583333333333336" height="49.583333333333336" as="geometry"/>
                </mxCell>
                <mxCell id="76" value="Network&#10;Security Group" style="shape=image;verticalLabelPosition=bottom;labelBackgroundColor=#ffffff;verticalAlign=top;aspect=fixed;imageAspect=0;image=data:image/svg+xml,PHN2ZyB4bWxucz0iaHR0cDovL3d3dy53My5vcmcvMjAwMC9zdmciIGlkPSJiNzU5NDNiYS0xYTNmLTQ4NWQtYjQ1ZC0zZmVlMDBlZDdlNWUiIHdpZHRoPSIxOCIgaGVpZ2h0PSIxOCIgdmlld0JveD0iMCAwIDE4IDE4Ij48ZGVmcz48bGluZWFyR3JhZGllbnQgaWQ9ImZlNWNlNDNmLTI4MjMtNDYxNy1iYjU0LTU3ZGY5ZTc3ODM3MiIgeDE9IjkuMDEiIHkxPSIwLjc1IiB4Mj0iOS4wMSIgeTI9IjE3LjI1IiBncmFkaWVudFVuaXRzPSJ1c2VyU3BhY2VPblVzZSI+PHN0b3Agb2Zmc2V0PSIwIiBzdG9wLWNvbG9yPSIjNWVhMGVmIi8+PHN0b3Agb2Zmc2V0PSIwLjE4IiBzdG9wLWNvbG9yPSIjNTU5Y2VjIi8+PHN0b3Agb2Zmc2V0PSIwLjQ3IiBzdG9wLWNvbG9yPSIjM2M5MWU1Ii8+PHN0b3Agb2Zmc2V0PSIwLjg0IiBzdG9wLWNvbG9yPSIjMTM4MGRhIi8+PHN0b3Agb2Zmc2V0PSIxIiBzdG9wLWNvbG9yPSIjMDA3OGQ0Ii8+PC9saW5lYXJHcmFkaWVudD48L2RlZnM+PHRpdGxlPkljb24tbmV0d29ya2luZy02NzwvdGl0bGU+PHBhdGggZD0iTTE2LjM2LDguNGMwLDQuODQtNS44NSw4Ljc0LTcuMTIsOS41M2EuNDYuNDYsMCwwLDEtLjQ4LDBjLTEuMjctLjc5LTcuMTItNC42OS03LjEyLTkuNTNWMi41OGEuNDYuNDYsMCwwLDEsLjQ1LS40NkM2LjY0LDIsNS41OSwwLDksMHMyLjM2LDIsNi45MSwyLjEyYS40Ni40NiwwLDAsMSwuNDUuNDZaIiBmaWxsPSIjMDA3OGQ0Ii8+PHBhdGggZD0iTTE1Ljc1LDguNDVjMCw0LjQ0LTUuMzYsOC02LjUzLDguNzRhLjQzLjQzLDAsMCwxLS40NCwwYy0xLjE3LS43Mi02LjUzLTQuMy02LjUzLTguNzRWMy4xMWEuNDIuNDIsMCwwLDEsLjQxLS40MkM2LjgzLDIuNTgsNS44Ny43NSw5LC43NXMyLjE3LDEuODMsNi4zNCwxLjk0YS40Mi40MiwwLDAsMSwuNDEuNDJaIiBmaWxsPSIjNmJiOWYyIi8+PHBhdGggZD0iTTksOVYuNzVjMy4xMywwLDIuMTcsMS44Myw2LjM0LDEuOTRhLjQzLjQzLDAsMCwxLC40MS40M1Y4LjQ2YTQuODksNC44OSwwLDAsMSwwLC41NFpNOSw5SDIuMjhjLjQsNC4xOCw1LjM4LDcuNSw2LjUsOC4xOWEuMzkuMzksMCwwLDAsLjE4LjA2SDlaIiBmaWxsPSJ1cmwoI2ZlNWNlNDNmLTI4MjMtNDYxNy1iYjU0LTU3ZGY5ZTc3ODM3MikiLz48cGF0aCBkPSJNMi42NiwyLjY5QzYuODMsMi41OCw1Ljg3Ljc1LDksLjc1VjlIMi4yOGE0Ljg5LDQuODksMCwwLDEsMC0uNTRWMy4xMkEuNDMuNDMsMCwwLDEsMi42NiwyLjY5WiIgZmlsbD0iIzUwZTZmZiIvPjxwYXRoIGQ9Ik0xNS43Miw5SDl2OC4yNUg5YS4zOS4zOSwwLDAsMCwuMTgtLjA2QzEwLjM0LDE2LjUsMTUuMzIsMTMuMTgsMTUuNzIsOVoiIGZpbGw9IiM1MGU2ZmYiLz4mI3hhOzxtZXRhZGF0YT4mI3hhOyAgIDxyZGY6UkRGIHhtbG5zOnJkZj0iaHR0cDovL3d3dy53My5vcmcvMTk5OS8wMi8yMi1yZGYtc3ludGF4LW5zIyI+JiN4YTsgICAgICA8cmRmOmxpPnB1YmxpYzp0cnVlPC9yZGY6bGk+JiN4YTsgICAgICA8cmRmOmxpPnNkazpmYWxzZTwvcmRmOmxpPiYjeGE7ICAgICAgPHJkZjpsaT5jYXRlZ29yeTogTmV0d29ya2luZzwvcmRmOmxpPiYjeGE7ICAgPC9yZGY6UkRGPiYjeGE7PC9tZXRhZGF0YT4mI3hhOzwvc3ZnPg==;" parent="1" vertex="1">
                    <mxGeometry x="865" y="1637.71" width="40" height="40" as="geometry"/>
                </mxCell>
                <mxCell id="77" value="Key Vault&#10;(External)" style="shape=image;verticalLabelPosition=bottom;labelBackgroundColor=#ffffff;verticalAlign=top;aspect=fixed;imageAspect=0;image=data:image/svg+xml,PHN2ZyB4bWxucz0iaHR0cDovL3d3dy53My5vcmcvMjAwMC9zdmciIGlkPSJiYzkzMTY5YS0yNGM0LTQ2ODYtOWYzNy1jN2U0ZjUzYjNkMzQiIHdpZHRoPSIxOCIgaGVpZ2h0PSIxOCIgdmlld0JveD0iMCAwIDE4IDE4Ij4mI3hhOyAgPGRlZnM+JiN4YTsgICAgPHJhZGlhbEdyYWRpZW50IGlkPSJmYjExNGM5My03YzE2LTQ1NDAtODk5YS0wNzk2MDQxNjI5ZTYiIGN4PSI5IiBjeT0iOSIgcj0iOC41IiBncmFkaWVudFVuaXRzPSJ1c2VyU3BhY2VPblVzZSI+JiN4YTsgICAgICA8c3RvcCBvZmZzZXQ9IjAuMTgiIHN0b3AtY29sb3I9IiM1ZWEwZWYiLz4mI3hhOyAgICAgIDxzdG9wIG9mZnNldD0iMC41NiIgc3RvcC1jb2xvcj0iIzVjOWZlZSIvPiYjeGE7ICAgICAgPHN0b3Agb2Zmc2V0PSIwLjY5IiBzdG9wLWNvbG9yPSIjNTU5Y2VkIi8+JiN4YTsgICAgICA8c3RvcCBvZmZzZXQ9IjAuNzgiIHN0b3AtY29sb3I9IiM0YTk3ZTkiLz4mI3hhOyAgICAgIDxzdG9wIG9mZnNldD0iMC44NiIgc3RvcC1jb2xvcj0iIzM5OTBlNCIvPiYjeGE7ICAgICAgPHN0b3Agb2Zmc2V0PSIwLjkzIiBzdG9wLWNvbG9yPSIjMjM4N2RlIi8+JiN4YTsgICAgICA8c3RvcCBvZmZzZXQ9IjAuOTkiIHN0b3AtY29sb3I9IiMwODdiZDYiLz4mI3hhOyAgICAgIDxzdG9wIG9mZnNldD0iMSIgc3RvcC1jb2xvcj0iIzAwNzhkNCIvPiYjeGE7ICAgIDwvcmFkaWFsR3JhZGllbnQ+JiN4YTsgICAgPHJhZGlhbEdyYWRpZW50IGlkPSJlYzQ3OGJkMy01YjM4LTRlN2YtYjY2MS0xMWYzNTU1NzhiZmYiIGN4PSIzOC45NSIgY3k9IjE4Mi4wNyIgcj0iOS44OCIgZ3JhZGllbnRUcmFuc2Zvcm09InRyYW5zbGF0ZSgtMjguNzEgLTE2My4yNCkgc2NhbGUoMC45NCAwLjk0KSIgZ3JhZGllbnRVbml0cz0idXNlclNwYWNlT25Vc2UiPiYjeGE7ICAgICAgPHN0b3Agb2Zmc2V0PSIwLjI3IiBzdG9wLWNvbG9yPSIjZmZkNzBmIi8+JiN4YTsgICAgICA8c3RvcCBvZmZzZXQ9IjAuNDkiIHN0b3AtY29sb3I9IiNmZmNiMTIiLz4mI3hhOyAgICAgIDxzdG9wIG9mZnNldD0iMC44OCIgc3RvcC1jb2xvcj0iI2ZlYWMxOSIvPiYjeGE7ICAgICAgPHN0b3Agb2Zmc2V0PSIxIiBzdG9wLWNvbG9yPSIjZmVhMTFiIi8+JiN4YTsgICAgPC9yYWRpYWxHcmFkaWVudD4mI3hhOyAgPC9kZWZzPiYjeGE7ICA8dGl0bGU+SWNvbi1zZWN1cml0eS0yNDU8L3RpdGxlPiYjeGE7ICA8cGF0aCBpZD0iYWFjZjgzMTEtYTMxNy00MDBmLWI2MTMtNzRiZDAwZGE1Y2UzIiBkPSJNOSwuNUE4LjUsOC41LDAsMSwwLDE3LjUsOSw4LjUxLDguNTEsMCwwLDAsOSwuNVpNOSwxNi4zNEE3LjM0LDcuMzQsMCwxLDEsMTYuMzQsOSw3LjM0LDcuMzQsMCwwLDEsOSwxNi4zNFoiIGZpbGw9InVybCgjZmIxMTRjOTMtN2MxNi00NTQwLTg5OWEtMDc5NjA0MTYyOWU2KSIvPiYjeGE7ICA8Y2lyY2xlIGN4PSI5IiBjeT0iOSIgcj0iNy4zNCIgZmlsbD0iI2ZmZiIvPiYjeGE7ICA8Zz4mI3hhOyAgICA8cGF0aCBpZD0iYmQ5ODNjNDEtZGI3My00MGVjLWE0ZjQtZGExMjEzZmM5OTI0IiBkPSJNMTMuNDQsNy4zM2ExLjg0LDEuODQsMCwwLDAsMC0yLjU5aDBMMTAuMjksMS41OGExLjgzLDEuODMsMCwwLDAtMi41OCwwaDBMNC41Niw0Ljc0YTEuODQsMS44NCwwLDAsMCwwLDIuNTlMNy4xOCwxMGEuNTEuNTEsMCwwLDEsLjE1LjM2djQuODhhLjYzLjYzLDAsMCwwLC4xOC40NGwxLjIsMS4yYS40MS40MSwwLDAsMCwuNTgsMGwxLjE2LTEuMTZoMGwuNjgtLjY4YS4yNS4yNSwwLDAsMCwwLS4zNGwtLjQ5LS40OWEuMjcuMjcsMCwwLDEsMC0uMzdsLjQ5LS40OWEuMjUuMjUsMCwwLDAsMC0uMzRsLS40OS0uNDlhLjI3LjI3LDAsMCwxLDAtLjM3bC40OS0uNDlhLjI1LjI1LDAsMCwwLDAtLjM0bC0uNjgtLjY5di0uMjVaTTksMi4zNUExLDEsMCwwLDEsOSw0LjQyLDEsMSwwLDEsMSw5LDIuMzVaIiBmaWxsPSJ1cmwoI2VjNDc4YmQzLTViMzgtNGU3Zi1iNjYxLTExZjM1NTU3OGJmZikiLz4mI3hhOyAgICA8cGF0aCBpZD0iYWQyZTdlNDQtOWJmZC00Nzc1LThiZjQtOGVmMjZhNTQ0OTIxIiBkPSJNOC4xOCwxNS4zaDBhLjIzLjIzLDAsMCwwLC4zOC0uMTd2LTRhLjI0LjI0LDAsMCwwLS4xMS0uMmgwYS4yMi4yMiwwLDAsMC0uMzQuMnY0QS4yOC4yOCwwLDAsMCw4LjE4LDE1LjNaIiBmaWxsPSIjZmY5MzAwIiBvcGFjaXR5PSIwLjc1Ii8+JiN4YTsgICAgPHJlY3QgaWQ9ImE5OTZmYmZmLTM5MzYtNGIyNC1iNDA3LTM2OTMzNmMxNDNiYSIgeD0iNi40OCIgeT0iNS43OSIgd2lkdGg9IjUuMTciIGhlaWdodD0iMC42MSIgcng9IjAuMjgiIGZpbGw9IiNmZjkzMDAiIG9wYWNpdHk9IjAuNzUiLz4mI3hhOyAgICA8cmVjdCBpZD0iYmIxMmQzMWMtMzM1Mi00YTE4LTg3ZGQtYTE2OWE0YTg3MjFkIiB4PSI2LjQ4IiB5PSI2Ljc4IiB3aWR0aD0iNS4xNyIgaGVpZ2h0PSIwLjYxIiByeD0iMC4yOCIgZmlsbD0iI2ZmOTMwMCIgb3BhY2l0eT0iMC43NSIvPiYjeGE7ICA8L2c+JiN4YTs8bWV0YWRhdGE+JiN4YTsgICA8cmRmOlJERiB4bWxuczpyZGY9Imh0dHA6Ly93d3cudzMub3JnLzE5OTkvMDIvMjItcmRmLXN5bnRheC1ucyMiPiYjeGE7ICAgICAgPHJkZjpsaT5wdWJsaWM6dHJ1ZTwvcmRmOmxpPiYjeGE7ICAgICAgPHJkZjpsaT5zZGs6ZmFsc2U8L3JkZjpsaT4mI3hhOyAgICAgIDxyZGY6bGk+Y2F0ZWdvcnk6IFNlY3VyaXR5PC9yZGY6bGk+JiN4YTsgICA8L3JkZjpSREY+JiN4YTs8L21ldGFkYXRhPiYjeGE7PC9zdmc+;" parent="1" vertex="1">
                    <mxGeometry x="390" y="1579.58" width="50" height="50" as="geometry"/>
                </mxCell>
                <mxCell id="78" value="Availability Set" style="shape=image;verticalLabelPosition=bottom;labelBackgroundColor=#ffffff;verticalAlign=top;aspect=fixed;imageAspect=0;image=data:image/svg+xml,PHN2ZyB4bWxucz0iaHR0cDovL3d3dy53My5vcmcvMjAwMC9zdmciIGlkPSJhYWJkZTBiNi0yMjg5LTRkNmYtOGJlOC01YmI2NzBiYzgwYzAiIHdpZHRoPSIxOCIgaGVpZ2h0PSIxOCIgdmlld0JveD0iMCAwIDE4IDE4Ij4mI3hhOyAgPGRlZnM+JiN4YTsgICAgPGxpbmVhckdyYWRpZW50IGlkPSJiMDIwZDFhMy02MDRkLTRmNzktODA4Ny1iMDIxZDM5MzE0YzUiIHgxPSIxMC4zMSIgeTE9IjEyLjciIHgyPSIxMC4zMSIgeTI9IjYuODMiIGdyYWRpZW50VW5pdHM9InVzZXJTcGFjZU9uVXNlIj4mI3hhOyAgICAgIDxzdG9wIG9mZnNldD0iMCIgc3RvcC1jb2xvcj0iIzAwNzhkNCIvPiYjeGE7ICAgICAgPHN0b3Agb2Zmc2V0PSIwLjgyIiBzdG9wLWNvbG9yPSIjNWVhMGVmIi8+JiN4YTsgICAgPC9saW5lYXJHcmFkaWVudD4mI3hhOyAgICA8bGluZWFyR3JhZGllbnQgaWQ9ImZkODg1ZWEwLTliMzEtNDg3OC05ZTg1LTkzMGQ2NGYzMzk1NSIgeDE9IjEwLjMxIiB5MT0iMTQuOTciIHgyPSIxMC4zMSIgeTI9IjEyLjciIGdyYWRpZW50VW5pdHM9InVzZXJTcGFjZU9uVXNlIj4mI3hhOyAgICAgIDxzdG9wIG9mZnNldD0iMC4xNSIgc3RvcC1jb2xvcj0iI2NjYyIvPiYjeGE7ICAgICAgPHN0b3Agb2Zmc2V0PSIxIiBzdG9wLWNvbG9yPSIjNzA3MDcwIi8+JiN4YTsgICAgPC9saW5lYXJHcmFkaWVudD4mI3hhOyAgPC9kZWZzPiYjeGE7ICA8dGl0bGU+SWNvbi1jb21wdXRlLTI1PC90aXRsZT4mI3hhOyAgPGc+JiN4YTsgICAgPHJlY3QgeD0iMi4xMiIgeT0iMC41IiB3aWR0aD0iMS45NyIgaGVpZ2h0PSIwLjU3IiBmaWxsPSIjMDA3OGQ0Ii8+JiN4YTsgICAgPHBvbHlnb24gcG9pbnRzPSIxNi42MyAxLjA3IDE2Ljk1IDEuMDcgMTYuOTUgMS4zOCAxNy41IDEuMzggMTcuNSAwLjUgMTYuNjMgMC41IDE2LjYzIDEuMDciIGZpbGw9IiMwMDc4ZDQiLz4mI3hhOyAgICA8cG9seWdvbiBwb2ludHM9IjEuNDEgMTYuODkgMS4xMyAxNi44OSAxLjEzIDE2LjU3IDAuNSAxNi41NyAwLjUgMTcuNSAxLjQxIDE3LjUgMS40MSAxNi44OSIgZmlsbD0iIzAwNzhkNCIvPiYjeGE7ICAgIDxwb2x5Z29uIHBvaW50cz0iMTYuOTUgMTYuNiAxNi45NSAxNi44OSAxNi42MyAxNi44OSAxNi42MyAxNy41IDE3LjUgMTcuNSAxNy41IDE2LjYgMTYuOTUgMTYuNiIgZmlsbD0iIzAwNzhkNCIvPiYjeGE7ICAgIDxwb2x5Z29uIHBvaW50cz0iMS4xMyAxLjM2IDEuMTMgMS4wNyAxLjQxIDEuMDcgMS40MSAwLjUgMC41IDAuNSAwLjUgMS4zNiAxLjEzIDEuMzYiIGZpbGw9IiMwMDc4ZDQiLz4mI3hhOyAgICA8cmVjdCB4PSIzLjM3IiB5PSIzLjU1IiB3aWR0aD0iOC43OSIgaGVpZ2h0PSI1Ljg4IiByeD0iMC4yOSIgZmlsbD0iIzAwNzhkNCIvPiYjeGE7ICAgIDxnPiYjeGE7ICAgICAgPHBvbHlnb24gcG9pbnRzPSI5LjIzIDUuNjQgOS4yMyA3LjM1IDcuNzcgOC4yMSA3Ljc3IDYuNDkgOS4yMyA1LjY0IiBmaWxsPSIjNTBlNmZmIi8+JiN4YTsgICAgICA8cG9seWdvbiBwb2ludHM9IjkuMjMgNS42NCA3Ljc3IDYuNSA2LjMgNS42NCA3Ljc3IDQuNzggOS4yMyA1LjY0IiBmaWxsPSIjYzNmMWZmIi8+JiN4YTsgICAgICA8cG9seWdvbiBwb2ludHM9IjcuNzcgNi41IDcuNzcgOC4yMSA2LjMgNy4zNSA2LjMgNS42NCA3Ljc3IDYuNSIgZmlsbD0iIzljZWJmZiIvPiYjeGE7ICAgIDwvZz4mI3hhOyAgICA8Zz4mI3hhOyAgICAgIDxyZWN0IHg9IjUuOTEiIHk9IjYuODMiIHdpZHRoPSI4Ljc5IiBoZWlnaHQ9IjUuODgiIHJ4PSIwLjI5IiBmaWxsPSJ1cmwoI2IwMjBkMWEzLTYwNGQtNGY3OS04MDg3LWIwMjFkMzkzMTRjNSkiLz4mI3hhOyAgICAgIDxnPiYjeGE7ICAgICAgICA8cG9seWdvbiBwb2ludHM9IjExLjc3IDguOTEgMTEuNzcgMTAuNjIgMTAuMzEgMTEuNDggMTAuMzEgOS43NyAxMS43NyA4LjkxIiBmaWxsPSIjNTBlNmZmIi8+JiN4YTsgICAgICAgIDxwb2x5Z29uIHBvaW50cz0iMTEuNzcgOC45MSAxMC4zMSA5Ljc3IDguODQgOC45MSAxMC4zMSA4LjA1IDExLjc3IDguOTEiIGZpbGw9IiNjM2YxZmYiLz4mI3hhOyAgICAgICAgPHBvbHlnb24gcG9pbnRzPSIxMC4zMSA5Ljc3IDEwLjMxIDExLjQ4IDguODQgMTAuNjIgOC44NCA4LjkxIDEwLjMxIDkuNzciIGZpbGw9IiM5Y2ViZmYiLz4mI3hhOyAgICAgICAgPHBvbHlnb24gcG9pbnRzPSI4Ljg0IDEwLjYyIDEwLjMxIDkuNzcgMTAuMzEgMTEuNDggOC44NCAxMC42MiIgZmlsbD0iI2MzZjFmZiIvPiYjeGE7ICAgICAgICA8cG9seWdvbiBwb2ludHM9IjExLjc3IDEwLjYyIDEwLjMxIDkuNzcgMTAuMzEgMTEuNDggMTEuNzcgMTAuNjIiIGZpbGw9IiM5Y2ViZmYiLz4mI3hhOyAgICAgIDwvZz4mI3hhOyAgICAgIDxwYXRoIGQ9Ik0xMi4wNywxNC40OGMtLjg3LS4xNC0uOS0uNzctLjktMS43OEg5LjQ0YzAsMSwwLDEuNjQtLjksMS43OGEuNTEuNTEsMCwwLDAtLjQzLjQ5aDQuNEEuNTEuNTEsMCwwLDAsMTIuMDcsMTQuNDhaIiBmaWxsPSJ1cmwoI2ZkODg1ZWEwLTliMzEtNDg3OC05ZTg1LTkzMGQ2NGYzMzk1NSkiLz4mI3hhOyAgICA8L2c+JiN4YTsgICAgPHJlY3QgeD0iNS4wNyIgeT0iMC41IiB3aWR0aD0iMS45NyIgaGVpZ2h0PSIwLjU3IiBmaWxsPSIjMDA3OGQ0Ii8+JiN4YTsgICAgPHJlY3QgeD0iOC4wMSIgeT0iMC41IiB3aWR0aD0iMS45NyIgaGVpZ2h0PSIwLjU3IiBmaWxsPSIjMDA3OGQ0Ii8+JiN4YTsgICAgPHJlY3QgeD0iMTAuOTYiIHk9IjAuNSIgd2lkdGg9IjEuOTciIGhlaWdodD0iMC41NyIgZmlsbD0iIzAwNzhkNCIvPiYjeGE7ICAgIDxyZWN0IHg9IjEzLjkxIiB5PSIwLjUiIHdpZHRoPSIxLjk3IiBoZWlnaHQ9IjAuNTciIGZpbGw9IiMwMDc4ZDQiLz4mI3hhOyAgICA8cmVjdCB4PSIyLjE0IiB5PSIxNi44OSIgd2lkdGg9IjEuOTciIGhlaWdodD0iMC41NyIgZmlsbD0iIzAwNzhkNCIvPiYjeGE7ICAgIDxyZWN0IHg9IjUuMDgiIHk9IjE2Ljg5IiB3aWR0aD0iMS45NyIgaGVpZ2h0PSIwLjU3IiBmaWxsPSIjMDA3OGQ0Ii8+JiN4YTsgICAgPHJlY3QgeD0iOC4wMyIgeT0iMTYuODkiIHdpZHRoPSIxLjk3IiBoZWlnaHQ9IjAuNTciIGZpbGw9IiMwMDc4ZDQiLz4mI3hhOyAgICA8cmVjdCB4PSIxMC45OCIgeT0iMTYuODkiIHdpZHRoPSIxLjk3IiBoZWlnaHQ9IjAuNTciIGZpbGw9IiMwMDc4ZDQiLz4mI3hhOyAgICA8cmVjdCB4PSIxMy45MiIgeT0iMTYuODkiIHdpZHRoPSIxLjk3IiBoZWlnaHQ9IjAuNTciIGZpbGw9IiMwMDc4ZDQiLz4mI3hhOyAgICA8cmVjdCB4PSIxNi45MyIgeT0iMi4wNSIgd2lkdGg9IjAuNTciIGhlaWdodD0iMS45NyIgZmlsbD0iIzAwNzhkNCIvPiYjeGE7ICAgIDxyZWN0IHg9IjE2LjkzIiB5PSI0Ljk5IiB3aWR0aD0iMC41NyIgaGVpZ2h0PSIxLjk3IiBmaWxsPSIjMDA3OGQ0Ii8+JiN4YTsgICAgPHJlY3QgeD0iMTYuOTMiIHk9IjcuOTQiIHdpZHRoPSIwLjU3IiBoZWlnaHQ9IjEuOTciIGZpbGw9IiMwMDc4ZDQiLz4mI3hhOyAgICA8cmVjdCB4PSIxNi45MyIgeT0iMTAuODgiIHdpZHRoPSIwLjU3IiBoZWlnaHQ9IjEuOTciIGZpbGw9IiMwMDc4ZDQiLz4mI3hhOyAgICA8cmVjdCB4PSIxNi45MyIgeT0iMTMuODMiIHdpZHRoPSIwLjU3IiBoZWlnaHQ9IjEuOTciIGZpbGw9IiMwMDc4ZDQiLz4mI3hhOyAgICA8cmVjdCB4PSIwLjUiIHk9IjIuMDMiIHdpZHRoPSIwLjU3IiBoZWlnaHQ9IjEuOTciIGZpbGw9IiMwMDc4ZDQiLz4mI3hhOyAgICA8cmVjdCB4PSIwLjUiIHk9IjQuOTgiIHdpZHRoPSIwLjU3IiBoZWlnaHQ9IjEuOTciIGZpbGw9IiMwMDc4ZDQiLz4mI3hhOyAgICA8cmVjdCB4PSIwLjUiIHk9IjcuOTIiIHdpZHRoPSIwLjU3IiBoZWlnaHQ9IjEuOTciIGZpbGw9IiMwMDc4ZDQiLz4mI3hhOyAgICA8cmVjdCB4PSIwLjUiIHk9IjEwLjg3IiB3aWR0aD0iMC41NyIgaGVpZ2h0PSIxLjk3IiBmaWxsPSIjMDA3OGQ0Ii8+JiN4YTsgICAgPHJlY3QgeD0iMC41IiB5PSIxMy44MSIgd2lkdGg9IjAuNTciIGhlaWdodD0iMS45NyIgZmlsbD0iIzAwNzhkNCIvPiYjeGE7ICA8L2c+JiN4YTs8bWV0YWRhdGE+JiN4YTsgICA8cmRmOlJERiB4bWxuczpyZGY9Imh0dHA6Ly93d3cudzMub3JnLzE5OTkvMDIvMjItcmRmLXN5bnRheC1ucyMiPiYjeGE7ICAgICAgPHJkZjpsaT5wdWJsaWM6dHJ1ZTwvcmRmOmxpPiYjeGE7ICAgICAgPHJkZjpsaT5zZGs6TXNQb3J0YWxGeC5CYXNlLkltYWdlcy5Qb2x5Y2hyb21hdGljLkF2YWlsYWJpbGl0eVNldCgpPC9yZGY6bGk+JiN4YTsgICAgICA8cmRmOmxpPmNhdGVnb3J5OiBDb21wdXRlPC9yZGY6bGk+JiN4YTsgICA8L3JkZjpSREY+JiN4YTs8L21ldGFkYXRhPiYjeGE7PC9zdmc+;" parent="1" vertex="1">
                    <mxGeometry x="865" y="1410" width="58" height="58" as="geometry"/>
                </mxCell>
                <mxCell id="79" style="edgeStyle=orthogonalEdgeStyle;rounded=0;orthogonalLoop=1;jettySize=auto;html=1;exitX=0.5;exitY=1;exitDx=0;exitDy=0;" parent="1" source="55" target="55" edge="1">
                    <mxGeometry relative="1" as="geometry"/>
                </mxCell>
                <mxCell id="80" value="Recovery Services&#10;Vault" style="shape=image;verticalLabelPosition=bottom;labelBackgroundColor=#ffffff;verticalAlign=top;aspect=fixed;imageAspect=0;image=data:image/svg+xml,PHN2ZyB4bWxucz0iaHR0cDovL3d3dy53My5vcmcvMjAwMC9zdmciIGlkPSJiNGQwZTZlMi0xMmMxLTQyNzUtYjcxNy04OTAwNjBkZDE1NjAiIHdpZHRoPSIxOCIgaGVpZ2h0PSIxOCIgdmlld0JveD0iMCAwIDE4IDE4Ij4mI3hhOyAgPGRlZnM+JiN4YTsgICAgPGxpbmVhckdyYWRpZW50IGlkPSJmMWEzMGY5ZS03ZjQ4LTQ0ZTItOTQ4My02YTZkYjg5Mjg5NzciIHgxPSIxMS4xMyIgeTE9IjEwLjk1IiB4Mj0iMTEuMTMiIHkyPSIxLjIxIiBncmFkaWVudFVuaXRzPSJ1c2VyU3BhY2VPblVzZSI+JiN4YTsgICAgICA8c3RvcCBvZmZzZXQ9IjAiIHN0b3AtY29sb3I9IiMwMDc4ZDQiLz4mI3hhOyAgICAgIDxzdG9wIG9mZnNldD0iMC4xNiIgc3RvcC1jb2xvcj0iIzEzODBkYSIvPiYjeGE7ICAgICAgPHN0b3Agb2Zmc2V0PSIwLjUzIiBzdG9wLWNvbG9yPSIjM2M5MWU1Ii8+JiN4YTsgICAgICA8c3RvcCBvZmZzZXQ9IjAuODIiIHN0b3AtY29sb3I9IiM1NTljZWMiLz4mI3hhOyAgICAgIDxzdG9wIG9mZnNldD0iMSIgc3RvcC1jb2xvcj0iIzVlYTBlZiIvPiYjeGE7ICAgIDwvbGluZWFyR3JhZGllbnQ+JiN4YTsgICAgPGxpbmVhckdyYWRpZW50IGlkPSJiNGE1ZWQ4ZC1hMjhkLTRkMjYtOWFhZC1hNTdlNmFkMGMwYjkiIHgxPSI3LjA2IiB5MT0iMTYuNzkiIHgyPSI3LjA2IiB5Mj0iNi43OCIgZ3JhZGllbnRVbml0cz0idXNlclNwYWNlT25Vc2UiPiYjeGE7ICAgICAgPHN0b3Agb2Zmc2V0PSIwIiBzdG9wLWNvbG9yPSIjMTk4YWIzIi8+JiN4YTsgICAgICA8c3RvcCBvZmZzZXQ9IjAuMTMiIHN0b3AtY29sb3I9IiMyMWEwYzciLz4mI3hhOyAgICAgIDxzdG9wIG9mZnNldD0iMC4zMSIgc3RvcC1jb2xvcj0iIzI4YjdkYiIvPiYjeGE7ICAgICAgPHN0b3Agb2Zmc2V0PSIwLjUiIHN0b3AtY29sb3I9IiMyZWM3ZWEiLz4mI3hhOyAgICAgIDxzdG9wIG9mZnNldD0iMC43MiIgc3RvcC1jb2xvcj0iIzMxZDFmMiIvPiYjeGE7ICAgICAgPHN0b3Agb2Zmc2V0PSIxIiBzdG9wLWNvbG9yPSIjMzJkNGY1Ii8+JiN4YTsgICAgPC9saW5lYXJHcmFkaWVudD4mI3hhOyAgPC9kZWZzPiYjeGE7ICA8dGl0bGU+SWNvbi1tYW5hZ2UtMzE1PC90aXRsZT4mI3hhOyAgPHBhdGggZD0iTTE4LDcuOWEzLjA5LDMuMDksMCwwLDAtMi42OC0zLDMuODksMy44OSwwLDAsMC00LTMuNzJBNCw0LDAsMCwwLDcuNSwzLjgxLDMuNjgsMy42OCwwLDAsMCw0LjI2LDcuMzYsMy43NCwzLjc0LDAsMCwwLDguMTMsMTFsLjM0LDBoNi4yNmwuMTcsMEEzLjEzLDMuMTMsMCwwLDAsMTgsNy45WiIgZmlsbD0idXJsKCNmMWEzMGY5ZS03ZjQ4LTQ0ZTItOTQ4My02YTZkYjg5Mjg5NzcpIi8+JiN4YTsgIDxwYXRoIGQ9Ik0xNC4zOSw1LjIyLDEyLjU2LDMuNDRjLS4yLS4yLS4zNy0uMTMtLjM3LjE4di44YS4yMi4yMiwwLDAsMS0uMjMuMjJjLTEuMTgsMC00LjQ3LjMxLTQuNTksNC44MWEuMjMuMjMsMCwwLDAsLjIzLjIzSDguNzdBLjIzLjIzLDAsMCwwLDksOS40MywyLjc2LDIuNzYsMCwwLDEsMTIsNi4xYS4yMy4yMywwLDAsMSwuMjMuMjN2Ljc0YzAsLjM3LjEyLjQzLjM3LjE4TDE0LjM5LDUuNkEuMjMuMjMsMCwwLDAsMTQuMzksNS4yMloiIGZpbGw9IiNmZmYiLz4mI3hhOyAgPHBhdGggZD0iTTE0LjEyLDEzLjY2YTMuMTcsMy4xNywwLDAsMC0yLjc1LTMuMDVBNCw0LDAsMCwwLDcuMjUsNi43OCw0LjEsNC4xLDAsMCwwLDMuMzMsOS40NiwzLjc4LDMuNzgsMCwwLDAsMCwxMy4xYTMuODQsMy44NCwwLDAsMCw0LDMuNjloNi43OGEuNDcuNDcsMCwwLDAsLjE3LDBBMy4yMSwzLjIxLDAsMCwwLDE0LjEyLDEzLjY2WiIgZmlsbD0idXJsKCNiNGE1ZWQ4ZC1hMjhkLTRkMjYtOWFhZC1hNTdlNmFkMGMwYjkpIi8+JiN4YTs8bWV0YWRhdGE+JiN4YTsgICA8cmRmOlJERiB4bWxuczpyZGY9Imh0dHA6Ly93d3cudzMub3JnLzE5OTkvMDIvMjItcmRmLXN5bnRheC1ucyMiPiYjeGE7ICAgICAgPHJkZjpsaT5wdWJsaWM6dHJ1ZTwvcmRmOmxpPiYjeGE7ICAgICAgPHJkZjpsaT5zZGs6TXNQb3J0YWxGeC5CYXNlLkltYWdlcy5Qb2x5Y2hyb21hdGljLkJhY2t1cCgpOyBNc1BvcnRhbEZ4LkJhc2UuSW1hZ2VzLlBvbHljaHJvbWF0aWMuU2l0ZVJlY292ZXJ5KCk8L3JkZjpsaT4mI3hhOyAgICAgIDxyZGY6bGk+Y2F0ZWdvcnk6IE1hbmFnZW1lbnQgKyBHb3Zlcm5hbmNlLCBNaWdyYXRlLCBTdG9yYWdlPC9yZGY6bGk+JiN4YTsgICA8L3JkZjpSREY+JiN4YTs8L21ldGFkYXRhPiYjeGE7PC9zdmc+;" parent="1" vertex="1">
                    <mxGeometry x="290" y="1580.79" width="48" height="48" as="geometry"/>
                </mxCell>
                <mxCell id="82" value="Key Vault&#10;(Internal)" style="shape=image;verticalLabelPosition=bottom;labelBackgroundColor=#ffffff;verticalAlign=top;aspect=fixed;imageAspect=0;image=data:image/svg+xml,PHN2ZyB4bWxucz0iaHR0cDovL3d3dy53My5vcmcvMjAwMC9zdmciIGlkPSJiYzkzMTY5YS0yNGM0LTQ2ODYtOWYzNy1jN2U0ZjUzYjNkMzQiIHdpZHRoPSIxOCIgaGVpZ2h0PSIxOCIgdmlld0JveD0iMCAwIDE4IDE4Ij4mI3hhOyAgPGRlZnM+JiN4YTsgICAgPHJhZGlhbEdyYWRpZW50IGlkPSJmYjExNGM5My03YzE2LTQ1NDAtODk5YS0wNzk2MDQxNjI5ZTYiIGN4PSI5IiBjeT0iOSIgcj0iOC41IiBncmFkaWVudFVuaXRzPSJ1c2VyU3BhY2VPblVzZSI+JiN4YTsgICAgICA8c3RvcCBvZmZzZXQ9IjAuMTgiIHN0b3AtY29sb3I9IiM1ZWEwZWYiLz4mI3hhOyAgICAgIDxzdG9wIG9mZnNldD0iMC41NiIgc3RvcC1jb2xvcj0iIzVjOWZlZSIvPiYjeGE7ICAgICAgPHN0b3Agb2Zmc2V0PSIwLjY5IiBzdG9wLWNvbG9yPSIjNTU5Y2VkIi8+JiN4YTsgICAgICA8c3RvcCBvZmZzZXQ9IjAuNzgiIHN0b3AtY29sb3I9IiM0YTk3ZTkiLz4mI3hhOyAgICAgIDxzdG9wIG9mZnNldD0iMC44NiIgc3RvcC1jb2xvcj0iIzM5OTBlNCIvPiYjeGE7ICAgICAgPHN0b3Agb2Zmc2V0PSIwLjkzIiBzdG9wLWNvbG9yPSIjMjM4N2RlIi8+JiN4YTsgICAgICA8c3RvcCBvZmZzZXQ9IjAuOTkiIHN0b3AtY29sb3I9IiMwODdiZDYiLz4mI3hhOyAgICAgIDxzdG9wIG9mZnNldD0iMSIgc3RvcC1jb2xvcj0iIzAwNzhkNCIvPiYjeGE7ICAgIDwvcmFkaWFsR3JhZGllbnQ+JiN4YTsgICAgPHJhZGlhbEdyYWRpZW50IGlkPSJlYzQ3OGJkMy01YjM4LTRlN2YtYjY2MS0xMWYzNTU1NzhiZmYiIGN4PSIzOC45NSIgY3k9IjE4Mi4wNyIgcj0iOS44OCIgZ3JhZGllbnRUcmFuc2Zvcm09InRyYW5zbGF0ZSgtMjguNzEgLTE2My4yNCkgc2NhbGUoMC45NCAwLjk0KSIgZ3JhZGllbnRVbml0cz0idXNlclNwYWNlT25Vc2UiPiYjeGE7ICAgICAgPHN0b3Agb2Zmc2V0PSIwLjI3IiBzdG9wLWNvbG9yPSIjZmZkNzBmIi8+JiN4YTsgICAgICA8c3RvcCBvZmZzZXQ9IjAuNDkiIHN0b3AtY29sb3I9IiNmZmNiMTIiLz4mI3hhOyAgICAgIDxzdG9wIG9mZnNldD0iMC44OCIgc3RvcC1jb2xvcj0iI2ZlYWMxOSIvPiYjeGE7ICAgICAgPHN0b3Agb2Zmc2V0PSIxIiBzdG9wLWNvbG9yPSIjZmVhMTFiIi8+JiN4YTsgICAgPC9yYWRpYWxHcmFkaWVudD4mI3hhOyAgPC9kZWZzPiYjeGE7ICA8dGl0bGU+SWNvbi1zZWN1cml0eS0yNDU8L3RpdGxlPiYjeGE7ICA8cGF0aCBpZD0iYWFjZjgzMTEtYTMxNy00MDBmLWI2MTMtNzRiZDAwZGE1Y2UzIiBkPSJNOSwuNUE4LjUsOC41LDAsMSwwLDE3LjUsOSw4LjUxLDguNTEsMCwwLDAsOSwuNVpNOSwxNi4zNEE3LjM0LDcuMzQsMCwxLDEsMTYuMzQsOSw3LjM0LDcuMzQsMCwwLDEsOSwxNi4zNFoiIGZpbGw9InVybCgjZmIxMTRjOTMtN2MxNi00NTQwLTg5OWEtMDc5NjA0MTYyOWU2KSIvPiYjeGE7ICA8Y2lyY2xlIGN4PSI5IiBjeT0iOSIgcj0iNy4zNCIgZmlsbD0iI2ZmZiIvPiYjeGE7ICA8Zz4mI3hhOyAgICA8cGF0aCBpZD0iYmQ5ODNjNDEtZGI3My00MGVjLWE0ZjQtZGExMjEzZmM5OTI0IiBkPSJNMTMuNDQsNy4zM2ExLjg0LDEuODQsMCwwLDAsMC0yLjU5aDBMMTAuMjksMS41OGExLjgzLDEuODMsMCwwLDAtMi41OCwwaDBMNC41Niw0Ljc0YTEuODQsMS44NCwwLDAsMCwwLDIuNTlMNy4xOCwxMGEuNTEuNTEsMCwwLDEsLjE1LjM2djQuODhhLjYzLjYzLDAsMCwwLC4xOC40NGwxLjIsMS4yYS40MS40MSwwLDAsMCwuNTgsMGwxLjE2LTEuMTZoMGwuNjgtLjY4YS4yNS4yNSwwLDAsMCwwLS4zNGwtLjQ5LS40OWEuMjcuMjcsMCwwLDEsMC0uMzdsLjQ5LS40OWEuMjUuMjUsMCwwLDAsMC0uMzRsLS40OS0uNDlhLjI3LjI3LDAsMCwxLDAtLjM3bC40OS0uNDlhLjI1LjI1LDAsMCwwLDAtLjM0bC0uNjgtLjY5di0uMjVaTTksMi4zNUExLDEsMCwwLDEsOSw0LjQyLDEsMSwwLDEsMSw5LDIuMzVaIiBmaWxsPSJ1cmwoI2VjNDc4YmQzLTViMzgtNGU3Zi1iNjYxLTExZjM1NTU3OGJmZikiLz4mI3hhOyAgICA8cGF0aCBpZD0iYWQyZTdlNDQtOWJmZC00Nzc1LThiZjQtOGVmMjZhNTQ0OTIxIiBkPSJNOC4xOCwxNS4zaDBhLjIzLjIzLDAsMCwwLC4zOC0uMTd2LTRhLjI0LjI0LDAsMCwwLS4xMS0uMmgwYS4yMi4yMiwwLDAsMC0uMzQuMnY0QS4yOC4yOCwwLDAsMCw4LjE4LDE1LjNaIiBmaWxsPSIjZmY5MzAwIiBvcGFjaXR5PSIwLjc1Ii8+JiN4YTsgICAgPHJlY3QgaWQ9ImE5OTZmYmZmLTM5MzYtNGIyNC1iNDA3LTM2OTMzNmMxNDNiYSIgeD0iNi40OCIgeT0iNS43OSIgd2lkdGg9IjUuMTciIGhlaWdodD0iMC42MSIgcng9IjAuMjgiIGZpbGw9IiNmZjkzMDAiIG9wYWNpdHk9IjAuNzUiLz4mI3hhOyAgICA8cmVjdCBpZD0iYmIxMmQzMWMtMzM1Mi00YTE4LTg3ZGQtYTE2OWE0YTg3MjFkIiB4PSI2LjQ4IiB5PSI2Ljc4IiB3aWR0aD0iNS4xNyIgaGVpZ2h0PSIwLjYxIiByeD0iMC4yOCIgZmlsbD0iI2ZmOTMwMCIgb3BhY2l0eT0iMC43NSIvPiYjeGE7ICA8L2c+JiN4YTs8bWV0YWRhdGE+JiN4YTsgICA8cmRmOlJERiB4bWxuczpyZGY9Imh0dHA6Ly93d3cudzMub3JnLzE5OTkvMDIvMjItcmRmLXN5bnRheC1ucyMiPiYjeGE7ICAgICAgPHJkZjpsaT5wdWJsaWM6dHJ1ZTwvcmRmOmxpPiYjeGE7ICAgICAgPHJkZjpsaT5zZGs6ZmFsc2U8L3JkZjpsaT4mI3hhOyAgICAgIDxyZGY6bGk+Y2F0ZWdvcnk6IFNlY3VyaXR5PC9yZGY6bGk+JiN4YTsgICA8L3JkZjpSREY+JiN4YTs8L21ldGFkYXRhPiYjeGE7PC9zdmc+;" parent="1" vertex="1">
                    <mxGeometry x="390" y="1679.58" width="50" height="50" as="geometry"/>
                </mxCell>
                <mxCell id="83" value="Development environment" style="text;html=1;strokeColor=none;fillColor=none;align=center;verticalAlign=middle;whiteSpace=wrap;rounded=0;fontSize=31;" parent="1" vertex="1">
                    <mxGeometry x="500" y="30" width="470" height="20" as="geometry"/>
                </mxCell>
                <mxCell id="84" value="Test environment" style="text;html=1;strokeColor=none;fillColor=none;align=center;verticalAlign=middle;whiteSpace=wrap;rounded=0;fontSize=31;" parent="1" vertex="1">
                    <mxGeometry x="510" y="1040" width="470" height="20" as="geometry"/>
                </mxCell>
                <mxCell id="85" style="edgeStyle=orthogonalEdgeStyle;rounded=0;orthogonalLoop=1;jettySize=auto;html=1;exitX=0.5;exitY=1;exitDx=0;exitDy=0;fontSize=31;" parent="1" source="2" target="2" edge="1">
                    <mxGeometry relative="1" as="geometry"/>
                </mxCell>
                <mxCell id="87" style="edgeStyle=orthogonalEdgeStyle;rounded=0;orthogonalLoop=1;jettySize=auto;html=1;exitX=0.5;exitY=1;exitDx=0;exitDy=0;fontSize=31;" parent="1" source="55" target="55" edge="1">
                    <mxGeometry relative="1" as="geometry"/>
                </mxCell>
                <mxCell id="91" value="Storage Account" style="shape=image;verticalLabelPosition=bottom;labelBackgroundColor=#ffffff;verticalAlign=top;aspect=fixed;imageAspect=0;image=data:image/svg+xml,PHN2ZyB4bWxucz0iaHR0cDovL3d3dy53My5vcmcvMjAwMC9zdmciIGlkPSJmMmYwNDM0OS04YWVlLTQ0MTMtODRjOS1hOTA1MzYxMWIzMTkiIHdpZHRoPSIxOCIgaGVpZ2h0PSIxOCIgdmlld0JveD0iMCAwIDE4IDE4Ij4mI3hhOyAgPGRlZnM+JiN4YTsgICAgPGxpbmVhckdyYWRpZW50IGlkPSJhZDRjNGY5Ni0wOWFhLTRmOTEtYmExMC01Y2I4YWQ1MzBmNzQiIHgxPSI5IiB5MT0iMTUuODMiIHgyPSI5IiB5Mj0iNS43OSIgZ3JhZGllbnRVbml0cz0idXNlclNwYWNlT25Vc2UiPiYjeGE7ICAgICAgPHN0b3Agb2Zmc2V0PSIwIiBzdG9wLWNvbG9yPSIjYjNiM2IzIi8+JiN4YTsgICAgICA8c3RvcCBvZmZzZXQ9IjAuMjYiIHN0b3AtY29sb3I9IiNjMWMxYzEiLz4mI3hhOyAgICAgIDxzdG9wIG9mZnNldD0iMSIgc3RvcC1jb2xvcj0iI2U2ZTZlNiIvPiYjeGE7ICAgIDwvbGluZWFyR3JhZGllbnQ+JiN4YTsgIDwvZGVmcz4mI3hhOyAgPHRpdGxlPkljb24tc3RvcmFnZS04NjwvdGl0bGU+JiN4YTsgIDxwYXRoIGQ9Ik0uNSw1Ljc5aDE3YTAsMCwwLDAsMSwwLDB2OS40OGEuNTcuNTcsMCwwLDEtLjU3LjU3SDEuMDdhLjU3LjU3LDAsMCwxLS41Ny0uNTdWNS43OUEwLDAsMCwwLDEsLjUsNS43OVoiIGZpbGw9InVybCgjYWQ0YzRmOTYtMDlhYS00ZjkxLWJhMTAtNWNiOGFkNTMwZjc0KSIvPiYjeGE7ICA8cGF0aCBkPSJNMS4wNywyLjE3SDE2LjkzYS41Ny41NywwLDAsMSwuNTcuNTdWNS43OWEwLDAsMCwwLDEsMCwwSC41YTAsMCwwLDAsMSwwLDBWMi43M0EuNTcuNTcsMCwwLDEsMS4wNywyLjE3WiIgZmlsbD0iIzM3YzJiMSIvPiYjeGE7ICA8cGF0aCBkPSJNMi44MSw2Ljg5SDE1LjE4YS4yNy4yNywwLDAsMSwuMjYuMjd2MS40YS4yNy4yNywwLDAsMS0uMjYuMjdIMi44MWEuMjcuMjcsMCwwLDEtLjI2LS4yN1Y3LjE2QS4yNy4yNywwLDAsMSwyLjgxLDYuODlaIiBmaWxsPSIjZmZmIi8+JiN4YTsgIDxwYXRoIGQ9Ik0yLjgyLDkuNjhIMTUuMTlhLjI3LjI3LDAsMCwxLC4yNi4yN3YxLjQxYS4yNy4yNywwLDAsMS0uMjYuMjdIMi44MmEuMjcuMjcsMCwwLDEtLjI2LS4yN1YxMEEuMjcuMjcsMCwwLDEsMi44Miw5LjY4WiIgZmlsbD0iIzM3YzJiMSIvPiYjeGE7ICA8cGF0aCBkPSJNMi44MiwxMi41SDE1LjE5YS4yNy4yNywwLDAsMSwuMjYuMjd2MS40MWEuMjcuMjcsMCwwLDEtLjI2LjI3SDIuODJhLjI3LjI3LDAsMCwxLS4yNi0uMjdWMTIuNzdBLjI3LjI3LDAsMCwxLDIuODIsMTIuNVoiIGZpbGw9IiMyNTgyNzciLz4mI3hhOzxtZXRhZGF0YT4mI3hhOyAgIDxyZGY6UkRGIHhtbG5zOnJkZj0iaHR0cDovL3d3dy53My5vcmcvMTk5OS8wMi8yMi1yZGYtc3ludGF4LW5zIyI+JiN4YTsgICAgICA8cmRmOmxpPnB1YmxpYzp0cnVlPC9yZGY6bGk+JiN4YTsgICAgICA8cmRmOmxpPnNkazpNc1BvcnRhbEZ4LkJhc2UuSW1hZ2VzLlBvbHljaHJvbWF0aWMuU3RvcmFnZSgpPC9yZGY6bGk+JiN4YTsgICAgICA8cmRmOmxpPmNhdGVnb3J5OiBTdG9yYWdlPC9yZGY6bGk+JiN4YTsgICA8L3JkZjpSREY+JiN4YTs8L21ldGFkYXRhPiYjeGE7PC9zdmc+;" parent="1" vertex="1">
                    <mxGeometry x="280" y="1680" width="58" height="58" as="geometry"/>
                </mxCell>
                <mxCell id="92" style="edgeStyle=orthogonalEdgeStyle;rounded=0;orthogonalLoop=1;jettySize=auto;html=1;exitX=0.5;exitY=1;exitDx=0;exitDy=0;" parent="1" source="57" target="57" edge="1">
                    <mxGeometry relative="1" as="geometry"/>
                </mxCell>
                <mxCell id="95" value="" style="shape=actor;whiteSpace=wrap;html=1;" parent="1" vertex="1">
                    <mxGeometry x="200" y="830" width="40" height="60" as="geometry"/>
                </mxCell>
                <mxCell id="96" value="" style="endArrow=classic;html=1;exitX=0.9;exitY=0.5;exitDx=0;exitDy=0;exitPerimeter=0;entryX=0.5;entryY=1;entryDx=0;entryDy=0;edgeStyle=orthogonalEdgeStyle;dashed=1;" parent="1" source="95" target="93" edge="1">
                    <mxGeometry width="50" height="50" relative="1" as="geometry">
                        <mxPoint x="780" y="790" as="sourcePoint"/>
                        <mxPoint x="830" y="740" as="targetPoint"/>
                    </mxGeometry>
                </mxCell>
                <mxCell id="97" value="&lt;font style=&quot;font-size: 15px&quot;&gt;Resources typically created&amp;nbsp;&lt;br&gt;by an administrator using the&lt;br&gt;deploy-baseline.sh script&lt;br&gt;&lt;/font&gt;" style="edgeLabel;html=1;align=center;verticalAlign=middle;resizable=0;points=[];" parent="96" vertex="1" connectable="0">
                    <mxGeometry x="-0.1529" y="-2" relative="1" as="geometry">
                        <mxPoint x="27.33" y="28" as="offset"/>
                    </mxGeometry>
                </mxCell>
                <mxCell id="98" value="" style="shape=actor;whiteSpace=wrap;html=1;" parent="1" vertex="1">
                    <mxGeometry x="1140" y="830" width="40" height="60" as="geometry"/>
                </mxCell>
                <mxCell id="99" value="" style="endArrow=classic;html=1;exitX=0.1;exitY=0.5;exitDx=0;exitDy=0;exitPerimeter=0;entryX=0.5;entryY=1;entryDx=0;entryDy=0;edgeStyle=orthogonalEdgeStyle;dashed=1;" parent="1" source="98" edge="1">
                    <mxGeometry width="50" height="50" relative="1" as="geometry">
                        <mxPoint x="1119.5800000000004" y="860" as="sourcePoint"/>
                        <mxPoint x="935.58" y="790" as="targetPoint"/>
                        <Array as="points">
                            <mxPoint x="936" y="860"/>
                        </Array>
                    </mxGeometry>
                </mxCell>
                <mxCell id="100" value="&lt;font style=&quot;font-size: 15px&quot;&gt;Resources typically created&amp;nbsp;&lt;br&gt;by a service principal using the&lt;br&gt;deploy.sh script&lt;br&gt;&lt;/font&gt;" style="edgeLabel;html=1;align=center;verticalAlign=middle;resizable=0;points=[];" parent="99" vertex="1" connectable="0">
                    <mxGeometry x="-0.1529" y="-2" relative="1" as="geometry">
                        <mxPoint x="-5.670000000000002" y="32" as="offset"/>
                    </mxGeometry>
                </mxCell>
                <mxCell id="101" value="" style="shape=actor;whiteSpace=wrap;html=1;" parent="1" vertex="1">
                    <mxGeometry x="180" y="120" width="40" height="60" as="geometry"/>
                </mxCell>
                <mxCell id="102" value="" style="endArrow=classic;html=1;exitX=0.25;exitY=1;exitDx=0;exitDy=0;entryX=0;entryY=0.75;entryDx=0;entryDy=0;edgeStyle=orthogonalEdgeStyle;dashed=1;" parent="1" source="101" target="21" edge="1">
                    <mxGeometry width="50" height="50" relative="1" as="geometry">
                        <mxPoint x="150" y="200" as="sourcePoint"/>
                        <mxPoint x="200" y="335" as="targetPoint"/>
                    </mxGeometry>
                </mxCell>
                <mxCell id="103" value="&lt;font style=&quot;font-size: 15px&quot;&gt;Resources provisioned&lt;br&gt;by the platform team&lt;br&gt;&lt;/font&gt;" style="edgeLabel;html=1;align=center;verticalAlign=middle;resizable=0;points=[];" parent="102" vertex="1" connectable="0">
                    <mxGeometry x="-0.1529" y="-2" relative="1" as="geometry">
                        <mxPoint x="42" y="78.12" as="offset"/>
                    </mxGeometry>
                </mxCell>
            </root>
        </mxGraphModel>
    </diagram>
</mxfile>